<svg width="22" height="22" viewBox="0 0 22 22" fill="none" xmlns="http://www.w3.org/2000/svg">
<path d="M13.0625 0.893753H8.93755C4.91567 1.71875 1.7188 4.88125 0.893799 8.9375V13.0625C1.7188 17.1188 4.91567 20.2813 8.93755 21.1063H13.0625C17.1188 20.2813 20.2813 17.0844 21.1063 13.0625V8.9375C20.2813 4.88125 17.0844 1.71875 13.0625 0.893753Z" fill="white"/>
<path d="M21.0303 13.4063C21.2183 12.618 21.313 11.8104 21.3125 11C21.3125 10.1716 21.2149 9.36582 21.0303 8.59375H13.4063V0.969721C12.618 0.781681 11.8104 0.686958 11 0.687502C10.1716 0.687502 9.36582 0.785127 8.59375 0.969721V8.59375H0.969721C0.781681 9.38201 0.686958 10.1896 0.687502 11C0.687502 11.8284 0.785127 12.6342 0.969721 13.4063H8.59375V21.0303C9.38201 21.2183 10.1896 21.313 11 21.3125C11.8284 21.3125 12.6342 21.2149 13.4063 21.0303V13.4063H21.0303Z" fill="#CE1124"/>
</svg>
