<svg width="22" height="22" viewBox="0 0 22 22" fill="none" xmlns="http://www.w3.org/2000/svg">
<path d="M10.9311 0.6875C6.4623 0.6875 2.64668 3.575 1.2373 7.5625H20.6936C19.2498 3.575 15.4342 0.6875 10.9311 0.6875Z" fill="#F2B200"/>
<path d="M10.9311 21.3125C15.4342 21.3125 19.2498 18.4594 20.6592 14.4375H1.2373C2.64668 18.4594 6.4623 21.3125 10.9311 21.3125Z" fill="#83BF4F"/>
<path d="M1.2377 7.5625C0.85957 8.62812 0.65332 9.79688 0.65332 11C0.65332 12.2031 0.85957 13.3719 1.2377 14.4375H20.6939C21.0721 13.3719 21.2783 12.2031 21.2783 11C21.2783 9.79688 21.0721 8.62812 20.6939 7.5625H1.2377Z" fill="white"/>
<path d="M10.9316 13.75C12.4504 13.75 13.6816 12.5188 13.6816 11C13.6816 9.48122 12.4504 8.25 10.9316 8.25C9.41286 8.25 8.18164 9.48122 8.18164 11C8.18164 12.5188 9.41286 13.75 10.9316 13.75Z" fill="#428BC1"/>
<path d="M10.9316 13.4062C12.2606 13.4062 13.3379 12.3289 13.3379 11C13.3379 9.67106 12.2606 8.59375 10.9316 8.59375C9.60271 8.59375 8.52539 9.67106 8.52539 11C8.52539 12.3289 9.60271 13.4062 10.9316 13.4062Z" fill="white"/>
<path d="M10.0381 8.9375C10.133 8.9375 10.21 8.86055 10.21 8.76562C10.21 8.6707 10.133 8.59375 10.0381 8.59375C9.94316 8.59375 9.86621 8.6707 9.86621 8.76562C9.86621 8.86055 9.94316 8.9375 10.0381 8.9375Z" fill="#428BC1"/>
<path d="M9.4873 9.24695C9.58223 9.24695 9.65918 9.17 9.65918 9.07507C9.65918 8.98015 9.58223 8.9032 9.4873 8.9032C9.39238 8.9032 9.31543 8.98015 9.31543 9.07507C9.31543 9.17 9.39238 9.24695 9.4873 9.24695Z" fill="#428BC1"/>
<path d="M9.04102 9.69373C9.13594 9.69373 9.21289 9.61677 9.21289 9.52185C9.21289 9.42693 9.13594 9.34998 9.04102 9.34998C8.94609 9.34998 8.86914 9.42693 8.86914 9.52185C8.86914 9.61677 8.94609 9.69373 9.04102 9.69373Z" fill="#428BC1"/>
<path d="M8.73145 10.2438C8.82637 10.2438 8.90332 10.1668 8.90332 10.0719C8.90332 9.97698 8.82637 9.90002 8.73145 9.90002C8.63652 9.90002 8.55957 9.97698 8.55957 10.0719C8.55957 10.1668 8.63652 10.2438 8.73145 10.2438Z" fill="#428BC1"/>
<path d="M8.55957 10.8625C8.65449 10.8625 8.73145 10.7856 8.73145 10.6907C8.73145 10.5957 8.65449 10.5188 8.55957 10.5188C8.46465 10.5188 8.3877 10.5957 8.3877 10.6907C8.3877 10.7856 8.46465 10.8625 8.55957 10.8625Z" fill="#428BC1"/>
<path d="M8.55957 11.4813C8.65449 11.4813 8.73145 11.4044 8.73145 11.3094C8.73145 11.2145 8.65449 11.1376 8.55957 11.1376C8.46465 11.1376 8.3877 11.2145 8.3877 11.3094C8.3877 11.4044 8.46465 11.4813 8.55957 11.4813Z" fill="#428BC1"/>
<path d="M8.73145 12.1C8.82637 12.1 8.90332 12.023 8.90332 11.9281C8.90332 11.8332 8.82637 11.7562 8.73145 11.7562C8.63652 11.7562 8.55957 11.8332 8.55957 11.9281C8.55957 12.023 8.63652 12.1 8.73145 12.1Z" fill="#428BC1"/>
<path d="M9.04102 12.65C9.13594 12.65 9.21289 12.5731 9.21289 12.4781C9.21289 12.3832 9.13594 12.3063 9.04102 12.3063C8.94609 12.3063 8.86914 12.3832 8.86914 12.4781C8.86914 12.5731 8.94609 12.65 9.04102 12.65Z" fill="#428BC1"/>
<path d="M9.4873 13.0969C9.58223 13.0969 9.65918 13.02 9.65918 12.925C9.65918 12.8301 9.58223 12.7532 9.4873 12.7532C9.39238 12.7532 9.31543 12.8301 9.31543 12.925C9.31543 13.02 9.39238 13.0969 9.4873 13.0969Z" fill="#428BC1"/>
<path d="M10.0381 13.4062C10.133 13.4062 10.21 13.3293 10.21 13.2344C10.21 13.1395 10.133 13.0625 10.0381 13.0625C9.94316 13.0625 9.86621 13.1395 9.86621 13.2344C9.86621 13.3293 9.94316 13.4062 10.0381 13.4062Z" fill="#428BC1"/>
<path d="M10.6221 13.5438C10.717 13.5438 10.7939 13.4669 10.7939 13.3719C10.7939 13.277 10.717 13.2001 10.6221 13.2001C10.5271 13.2001 10.4502 13.277 10.4502 13.3719C10.4502 13.4669 10.5271 13.5438 10.6221 13.5438Z" fill="#428BC1"/>
<path d="M11.1035 13.4063C11.1035 13.3032 11.1723 13.2344 11.241 13.2001C11.3441 13.2001 11.4129 13.2688 11.4473 13.3376C11.4473 13.4407 11.3785 13.5094 11.3098 13.5438C11.1723 13.5782 11.1035 13.5094 11.1035 13.4063Z" fill="#428BC1"/>
<path d="M11.8594 13.4062C11.9543 13.4062 12.0312 13.3293 12.0312 13.2344C12.0312 13.1395 11.9543 13.0625 11.8594 13.0625C11.7645 13.0625 11.6875 13.1395 11.6875 13.2344C11.6875 13.3293 11.7645 13.4062 11.8594 13.4062Z" fill="#428BC1"/>
<path d="M12.4092 13.0969C12.5041 13.0969 12.5811 13.02 12.5811 12.925C12.5811 12.8301 12.5041 12.7532 12.4092 12.7532C12.3143 12.7532 12.2373 12.8301 12.2373 12.925C12.2373 13.02 12.3143 13.0969 12.4092 13.0969Z" fill="#428BC1"/>
<path d="M12.8564 12.65C12.9514 12.65 13.0283 12.5731 13.0283 12.4781C13.0283 12.3832 12.9514 12.3063 12.8564 12.3063C12.7615 12.3063 12.6846 12.3832 12.6846 12.4781C12.6846 12.5731 12.7615 12.65 12.8564 12.65Z" fill="#428BC1"/>
<path d="M13.166 12.1C13.2609 12.1 13.3379 12.023 13.3379 11.9281C13.3379 11.8332 13.2609 11.7562 13.166 11.7562C13.0711 11.7562 12.9941 11.8332 12.9941 11.9281C12.9941 12.023 13.0711 12.1 13.166 12.1Z" fill="#428BC1"/>
<path d="M13.3379 11.4813C13.4328 11.4813 13.5098 11.4044 13.5098 11.3094C13.5098 11.2145 13.4328 11.1376 13.3379 11.1376C13.243 11.1376 13.166 11.2145 13.166 11.3094C13.166 11.4044 13.243 11.4813 13.3379 11.4813Z" fill="#428BC1"/>
<path d="M13.3381 10.8625C13.235 10.8625 13.1662 10.7938 13.1318 10.725C13.1318 10.6219 13.2006 10.5532 13.2693 10.5188C13.3725 10.5188 13.4412 10.5875 13.4756 10.6563C13.51 10.7594 13.4412 10.8282 13.3381 10.8625Z" fill="#428BC1"/>
<path d="M13.166 10.2438C13.2609 10.2438 13.3379 10.1668 13.3379 10.0719C13.3379 9.97698 13.2609 9.90002 13.166 9.90002C13.0711 9.90002 12.9941 9.97698 12.9941 10.0719C12.9941 10.1668 13.0711 10.2438 13.166 10.2438Z" fill="#428BC1"/>
<path d="M12.8564 9.69373C12.9514 9.69373 13.0283 9.61677 13.0283 9.52185C13.0283 9.42693 12.9514 9.34998 12.8564 9.34998C12.7615 9.34998 12.6846 9.42693 12.6846 9.52185C12.6846 9.61677 12.7615 9.69373 12.8564 9.69373Z" fill="#428BC1"/>
<path d="M12.4092 9.24695C12.5041 9.24695 12.5811 9.17 12.5811 9.07507C12.5811 8.98015 12.5041 8.9032 12.4092 8.9032C12.3143 8.9032 12.2373 8.98015 12.2373 9.07507C12.2373 9.17 12.3143 9.24695 12.4092 9.24695Z" fill="#428BC1"/>
<path d="M12.0314 8.83441C11.9971 8.93753 11.8939 8.97191 11.7908 8.93753C11.6877 8.90316 11.6533 8.80003 11.6877 8.69691C11.7221 8.59378 11.8252 8.55941 11.9283 8.59378C12.0314 8.66253 12.0658 8.76566 12.0314 8.83441ZM11.4127 8.62816C11.4127 8.73128 11.3096 8.80003 11.2064 8.76566C11.1033 8.76566 11.0346 8.66253 11.0689 8.55941C11.0689 8.45628 11.1721 8.38753 11.2752 8.42191C11.3783 8.45628 11.4471 8.55941 11.4127 8.62816ZM10.7939 8.59378C10.7939 8.69691 10.7252 8.76566 10.6564 8.80003C10.5533 8.80003 10.4846 8.73128 10.4502 8.66253C10.4502 8.55941 10.5189 8.49066 10.5877 8.45628C10.6908 8.42191 10.7939 8.49066 10.7939 8.59378Z" fill="#428BC1"/>
<path d="M10.9316 11.5156C11.2164 11.5156 11.4473 11.2848 11.4473 11C11.4473 10.7152 11.2164 10.4844 10.9316 10.4844C10.6469 10.4844 10.416 10.7152 10.416 11C10.416 11.2848 10.6469 11.5156 10.9316 11.5156Z" fill="#428BC1"/>
<path d="M10.9312 8.59375L10.8625 10.0719L10.9312 11L11.0344 10.0719L10.9312 8.59375ZM10.3125 8.6625L10.6219 10.1406L10.9312 11L10.7937 10.0719L10.3125 8.6625Z" fill="#428BC1"/>
<path d="M9.72832 8.9032L10.4158 10.2438L10.9314 11.0001L10.5533 10.1407L9.72832 8.9032ZM9.24707 9.28132L10.2439 10.4157L10.9314 11.0001L10.3471 10.2782L9.24707 9.28132Z" fill="#428BC1"/>
<path d="M8.86914 9.79688L10.1066 10.6219L10.9316 11L10.1754 10.45L8.86914 9.79688Z" fill="#428BC1"/>
<path d="M8.62852 10.3812L10.0379 10.8281L10.9316 11L10.0723 10.6906L8.62852 10.3812ZM8.52539 11L10.0379 11.0687L10.9316 11L10.0379 10.9312L8.52539 11Z" fill="#428BC1"/>
<path d="M8.62793 11.6187L10.0717 11.3094L10.9311 11L10.0373 11.1719L8.62793 11.6187ZM8.86855 12.2031L10.1748 11.55L10.9311 11L10.1061 11.3781L8.86855 12.2031Z" fill="#428BC1"/>
<path d="M9.24707 12.6844L10.3471 11.7219L10.9314 11L10.2439 11.5844L9.24707 12.6844ZM9.72832 13.0969L10.5533 11.825L10.9314 11L10.4158 11.7563L9.72832 13.0969Z" fill="#428BC1"/>
<path d="M10.3125 13.3375L10.7937 11.9281L10.9312 11L10.6219 11.8594L10.3125 13.3375ZM10.9312 13.4062L11.0344 11.9281L10.9312 11L10.8625 11.9281L10.9312 13.4062ZM11.55 13.3375L11.275 11.8594L10.9312 11L11.1031 11.9281L11.55 13.3375Z" fill="#428BC1"/>
<path d="M12.1348 13.0969L11.4816 11.7563L10.9316 11L11.3441 11.8594L12.1348 13.0969ZM12.6504 12.6844L11.6535 11.5844L10.9316 11L11.5504 11.7219L12.6504 12.6844Z" fill="#428BC1"/>
<path d="M13.0285 12.2031L11.791 11.3781L10.9316 11L11.6879 11.55L13.0285 12.2031ZM13.2691 11.6187L11.8598 11.1719L10.9316 11L11.8254 11.3094L13.2691 11.6187ZM13.3379 11L11.8598 10.8969L10.9316 11L11.8598 11.0687L13.3379 11ZM13.2691 10.3812L11.8254 10.6906L10.9316 11L11.8598 10.8281L13.2691 10.3812Z" fill="#428BC1"/>
<path d="M13.0285 9.79692L11.6879 10.45L10.9316 11L11.791 10.6219L13.0285 9.79692ZM12.6504 9.31567L11.5504 10.2782L10.9316 11L11.6535 10.4157L12.6504 9.31567Z" fill="#428BC1"/>
<path d="M12.1348 8.9032L11.3441 10.1751L10.9316 11.0001L11.4816 10.2438L12.1348 8.9032Z" fill="#428BC1"/>
<path d="M11.5848 8.66248L11.1035 10.0718L10.9316 11L11.2754 10.1406L11.5848 8.66248Z" fill="#428BC1"/>
</svg>
