<svg width="255" height="294" viewBox="0 0 255 294" fill="none" xmlns="http://www.w3.org/2000/svg">
<path fill-rule="evenodd" clip-rule="evenodd" d="M0.5 129.071V126.986C0.5 58.3857 56.8869 2.7749 126.443 2.7749H128.557C198.113 2.7749 254.5 58.3857 254.5 126.986V129.071C254.5 197.672 198.114 253.284 128.557 253.284H126.443C56.8869 253.284 0.5 197.672 0.5 129.071Z" fill="#E4EBF7"/>
<path fill-rule="evenodd" clip-rule="evenodd" d="M42.5099 132.97C42.4 134.045 42.0764 135.09 41.5573 136.042C41.0383 136.995 40.3342 137.837 39.4851 138.521C38.636 139.205 37.6586 139.718 36.6086 140.029C35.5587 140.341 34.4568 140.446 33.3659 140.337C32.2749 140.229 31.2164 139.91 30.2505 139.398C29.2847 138.886 28.4306 138.191 27.7369 137.354C27.0432 136.517 26.5235 135.553 26.2076 134.517C25.8916 133.482 25.7855 132.395 25.8954 131.319C26.1174 129.146 27.2054 127.149 28.9203 125.767C30.6351 124.386 32.8363 123.732 35.0395 123.951C37.2427 124.17 39.2675 125.243 40.6685 126.934C42.0695 128.626 42.7319 130.797 42.5099 132.97Z" fill="white"/>
<path d="M51.2046 148.561L38.4445 159.295M39.7053 136.411L50.2796 142.323L39.7053 136.411Z" stroke="white" stroke-width="2"/>
<path fill-rule="evenodd" clip-rule="evenodd" d="M42.631 161.34C42.5557 162.077 42.334 162.792 41.9786 163.444C41.6233 164.097 41.1411 164.673 40.5597 165.142C39.9782 165.61 39.309 165.961 38.59 166.175C37.8711 166.388 37.1166 166.46 36.3696 166.385C35.6226 166.311 34.8977 166.093 34.2364 165.742C33.5751 165.392 32.9902 164.916 32.5152 164.343C32.0402 163.769 31.6844 163.109 31.4681 162.4C31.2517 161.691 31.1791 160.947 31.2544 160.21C31.4064 158.722 32.1514 157.355 33.3257 156.409C34.4999 155.463 36.0071 155.015 37.5158 155.165C39.0244 155.315 40.4108 156.05 41.3701 157.208C42.3294 158.366 42.7829 159.853 42.631 161.34ZM60.5012 145.315C60.4254 146.058 60.2021 146.778 59.8442 147.435C59.4862 148.092 59.0006 148.673 58.415 149.144C57.8294 149.616 57.1553 149.97 56.4311 150.185C55.707 150.4 54.9471 150.472 54.1947 150.397C53.4423 150.322 52.7122 150.102 52.0461 149.749C51.3799 149.396 50.7909 148.917 50.3124 148.339C49.834 147.762 49.4756 147.097 49.2577 146.383C49.0398 145.669 48.9667 144.919 49.0424 144.177C49.1955 142.678 49.9459 141.301 51.1286 140.348C52.3113 139.395 53.8294 138.945 55.349 139.096C56.8685 139.247 58.265 139.987 59.2312 141.153C60.1974 142.32 60.6542 143.817 60.5012 145.315ZM102.297 29.5272L132.382 29.5142C133.609 29.5136 134.786 29.0322 135.654 28.1758C136.521 27.3194 137.009 26.1581 137.008 24.9475C137.007 23.7368 136.519 22.576 135.651 21.7203C134.783 20.8646 133.605 20.3842 132.378 20.3848L102.293 20.3978C101.685 20.3981 101.083 20.5165 100.522 20.7462C99.9606 20.9759 99.4506 21.3124 99.021 21.7365C98.1535 22.593 97.6666 23.7543 97.6672 24.965C97.6679 26.1756 98.1562 27.3364 99.0246 28.192C99.8931 29.0476 101.071 29.5278 102.298 29.5272H102.297ZM113.805 47.772L143.888 47.759C145.116 47.7585 146.293 47.277 147.16 46.4206C148.028 45.5642 148.515 44.4029 148.514 43.1923C148.514 41.9817 148.026 40.8208 147.157 39.9651C146.289 39.1095 145.112 38.6291 143.884 38.6296L113.799 38.6426C113.192 38.6429 112.59 38.7613 112.028 38.991C111.467 39.2207 110.957 39.5572 110.527 39.9813C109.66 40.8379 109.173 41.9992 109.174 43.2098C109.174 44.4204 109.663 45.5812 110.531 46.4368C111.399 47.2924 112.577 47.7727 113.805 47.772Z" fill="white"/>
<path fill-rule="evenodd" clip-rule="evenodd" d="M116.199 29.5139V29.5109L132.122 29.5039C130.894 29.5044 129.717 29.9859 128.85 30.8423C127.982 31.6987 127.495 32.86 127.495 34.0706C127.496 35.2812 127.984 36.4421 128.852 37.2978C129.721 38.1534 130.898 38.6339 132.126 38.6333L116.203 38.6403V38.6383C117.413 38.6128 118.565 38.1206 119.412 37.2673C120.258 36.414 120.732 35.2675 120.731 34.0737C120.731 32.8798 120.256 31.7337 119.409 30.8812C118.562 30.0286 117.409 29.5374 116.199 29.5129V29.5139ZM188.559 137.774C188.001 143.231 183.064 147.21 177.531 146.66C171.997 146.11 167.964 141.24 168.521 135.783C169.079 130.326 174.017 126.347 179.55 126.897C185.083 127.448 189.117 132.317 188.559 137.774Z" fill="white"/>
<path d="M197.116 158.48L181.728 171.424M183.249 143.826L196.001 150.958L183.249 143.826Z" stroke="white" stroke-width="2"/>
<path fill-rule="evenodd" clip-rule="evenodd" d="M188.707 171.991C188.523 173.785 187.625 175.435 186.208 176.576C184.792 177.717 182.974 178.256 181.155 178.076C179.335 177.895 177.663 177.008 176.506 175.612C175.349 174.215 174.802 172.422 174.985 170.627C175.183 168.844 176.087 167.211 177.5 166.082C178.913 164.954 180.721 164.421 182.531 164.601C184.34 164.781 186.004 165.658 187.16 167.042C188.317 168.426 188.872 170.205 188.706 171.991H188.707ZM207.542 155.344C207.358 157.151 206.452 158.813 205.025 159.962C203.598 161.111 201.767 161.654 199.934 161.472C198.101 161.289 196.417 160.396 195.251 158.989C194.086 157.582 193.535 155.776 193.72 153.968C193.924 152.175 194.836 150.534 196.259 149.4C197.682 148.267 199.501 147.732 201.321 147.914C203.141 148.095 204.815 148.977 205.979 150.368C207.144 151.759 207.705 153.547 207.541 155.344" fill="white"/>
<path fill-rule="evenodd" clip-rule="evenodd" d="M155.679 194.146C155.679 194.733 155.442 195.295 155.022 195.71C154.602 196.124 154.031 196.357 153.437 196.357C152.842 196.357 152.272 196.124 151.852 195.71C151.431 195.295 151.195 194.733 151.195 194.146C151.195 193.56 151.431 192.998 151.852 192.583C152.272 192.169 152.842 191.936 153.437 191.936C154.031 191.936 154.602 192.169 155.022 192.583C155.442 192.998 155.679 193.56 155.679 194.146ZM229.666 118.261C229.666 118.848 229.43 119.41 229.009 119.825C228.589 120.239 228.018 120.472 227.424 120.472C226.829 120.472 226.259 120.239 225.838 119.825C225.418 119.41 225.182 118.848 225.182 118.261C225.182 117.675 225.418 117.112 225.838 116.697C226.259 116.283 226.829 116.05 227.424 116.05C228.018 116.05 228.589 116.283 229.009 116.697C229.43 117.112 229.666 117.675 229.666 118.261V118.261ZM220.698 153.108C220.698 153.695 220.462 154.257 220.042 154.672C219.621 155.086 219.051 155.319 218.456 155.319C217.861 155.319 217.291 155.086 216.871 154.672C216.45 154.257 216.214 153.695 216.214 153.108C216.214 152.522 216.45 151.959 216.871 151.545C217.291 151.13 217.861 150.897 218.456 150.897C219.05 150.897 219.62 151.13 220.041 151.545C220.461 151.959 220.697 152.522 220.697 153.108H220.698ZM180.886 109.883C180.886 110.47 180.65 111.032 180.23 111.447C179.809 111.862 179.239 112.095 178.644 112.095C178.049 112.095 177.479 111.862 177.058 111.447C176.637 111.032 176.401 110.47 176.401 109.883C176.401 109.296 176.637 108.734 177.058 108.319C177.478 107.905 178.049 107.672 178.643 107.672C179.238 107.672 179.808 107.905 180.229 108.319C180.649 108.734 180.885 109.296 180.885 109.883H180.886ZM199.422 94.4892C199.422 95.0756 199.186 95.6381 198.765 96.0528C198.345 96.4675 197.775 96.7005 197.18 96.7005C196.585 96.7005 196.015 96.4675 195.594 96.0528C195.174 95.6381 194.938 95.0756 194.938 94.4892C194.938 93.9027 195.174 93.3402 195.594 92.9255C196.015 92.5108 196.585 92.2778 197.18 92.2778C197.775 92.2778 198.345 92.5108 198.765 92.9255C199.186 93.3402 199.422 93.9027 199.422 94.4892ZM206.248 182.591C206.248 182.881 206.19 183.169 206.078 183.437C205.965 183.705 205.8 183.949 205.592 184.154C205.384 184.36 205.137 184.523 204.865 184.634C204.593 184.745 204.301 184.802 204.007 184.802C203.712 184.802 203.421 184.745 203.149 184.634C202.877 184.523 202.63 184.36 202.422 184.154C202.213 183.949 202.048 183.705 201.936 183.437C201.823 183.169 201.765 182.881 201.765 182.591C201.765 182.005 202.001 181.442 202.422 181.028C202.842 180.613 203.412 180.38 204.007 180.38C204.601 180.38 205.171 180.613 205.592 181.028C206.012 181.442 206.248 182.005 206.248 182.591Z" stroke="white" stroke-width="2"/>
<path d="M225.181 119.449L212.228 127.311L196.782 119.448V96.7041M218.704 155.32L216.775 175.403L205.749 181.363L218.704 155.32ZM177.6 176.702L171.188 186.467H159.727L155.179 192.918L177.6 176.702ZM178.891 127.328V111.602V127.328Z" stroke="white" stroke-width="2"/>
<path fill-rule="evenodd" clip-rule="evenodd" d="M183.767 29.331C183.767 13.1329 197.081 0 213.506 0C229.931 0 243.246 13.1319 243.246 29.331C243.246 45.531 229.931 58.6639 213.506 58.6639C197.082 58.6639 183.767 45.531 183.767 29.332" fill="#568159"/>
<path fill-rule="evenodd" clip-rule="evenodd" d="M225.121 41.7215L203.249 41.5965C203.017 41.5952 202.787 41.5487 202.573 41.4598C202.359 41.371 202.165 41.2413 202.001 41.0784C201.838 40.9155 201.709 40.7224 201.621 40.5102C201.533 40.2981 201.489 40.0709 201.49 39.8418L201.562 27.6072C201.564 27.3781 201.611 27.1515 201.701 26.9403C201.791 26.7292 201.922 26.5376 202.088 26.3765C202.253 26.2154 202.449 26.088 202.664 26.0016C202.879 25.9151 203.109 25.8713 203.341 25.8726L225.212 25.9976C226.19 26.0036 226.977 26.7889 226.972 27.7533L226.9 39.9869C226.899 40.216 226.852 40.4426 226.761 40.6538C226.671 40.8649 226.54 41.0565 226.375 41.2176C226.209 41.3787 226.014 41.5061 225.799 41.5926C225.583 41.679 225.353 41.7228 225.121 41.7215Z" fill="white"/>
<path fill-rule="evenodd" clip-rule="evenodd" d="M218.686 29.2029C218.67 31.7809 216.607 33.8587 214.077 33.8446C211.548 33.8306 209.509 31.7289 209.524 29.1499L209.565 22.2223C209.581 19.6443 211.644 17.5666 214.173 17.5806C216.703 17.5956 218.741 19.6974 218.727 22.2753L218.687 29.2029H218.686ZM214.091 15.1236C212.241 15.1133 210.463 15.828 209.147 17.1107C207.831 18.3933 207.086 20.1388 207.076 21.9632L207.032 29.334C207.027 30.2374 207.202 31.133 207.547 31.9697C207.893 32.8064 208.402 33.5677 209.046 34.2103C210.347 35.5079 212.117 36.2429 213.967 36.2536C215.817 36.2642 217.595 35.5495 218.911 34.2669C220.227 32.9842 220.972 31.2386 220.983 29.414L221.026 22.0432C221.036 20.2187 220.311 18.4648 219.011 17.1672C217.71 15.8696 215.941 15.1345 214.091 15.1236ZM170.465 68.3926H166.479C165.211 68.3891 163.996 67.8909 163.099 67.0067C162.203 66.1225 161.698 64.9242 161.694 63.6738C161.698 62.4234 162.203 61.2251 163.099 60.3409C163.996 59.4567 165.211 58.9585 166.479 58.955H170.465C171.733 58.9585 172.948 59.4567 173.844 60.3409C174.741 61.2251 175.246 62.4234 175.249 63.6738C175.246 64.9242 174.741 66.1225 173.844 67.0067C172.948 67.8909 171.733 68.3891 170.465 68.3926Z" fill="white"/>
<path fill-rule="evenodd" clip-rule="evenodd" d="M171.123 248.931C169.344 248.93 167.639 248.234 166.382 246.993C165.124 245.753 164.418 244.071 164.418 242.317V176.184C164.44 174.445 165.156 172.783 166.411 171.561C167.666 170.338 169.359 169.652 171.123 169.652C172.887 169.652 174.58 170.338 175.835 171.561C177.091 172.783 177.807 174.445 177.828 176.184V242.317C177.828 244.071 177.122 245.753 175.864 246.993C174.607 248.233 172.902 248.929 171.124 248.93" fill="#568159"/>
<path fill-rule="evenodd" clip-rule="evenodd" d="M179.169 248.269C177.391 248.269 175.686 247.572 174.428 246.332C173.171 245.092 172.465 243.41 172.464 241.657V208.59C172.453 207.715 172.619 206.846 172.951 206.035C173.283 205.223 173.775 204.484 174.399 203.861C175.023 203.239 175.765 202.744 176.584 202.407C177.403 202.069 178.282 201.896 179.17 201.896C180.057 201.896 180.936 202.069 181.755 202.407C182.574 202.744 183.316 203.239 183.94 203.861C184.564 204.484 185.056 205.223 185.388 206.035C185.72 206.846 185.886 207.715 185.875 208.59V241.656C185.875 243.41 185.168 245.092 183.911 246.332C182.654 247.572 180.948 248.269 179.17 248.269" fill="#C7DFC2"/>
<path fill-rule="evenodd" clip-rule="evenodd" d="M189.157 294H161.389C160.536 294 159.719 293.666 159.116 293.072C158.513 292.477 158.174 291.67 158.174 290.829V244.925C158.174 244.084 158.513 243.277 159.116 242.683C159.719 242.088 160.536 241.754 161.389 241.754H189.157C190.01 241.754 190.828 242.088 191.431 242.683C192.034 243.277 192.373 244.084 192.373 244.925V290.828C192.373 291.669 192.034 292.476 191.431 293.071C190.828 293.665 190.01 293.999 189.157 293.999" fill="#F2D7AD"/>
<path fill-rule="evenodd" clip-rule="evenodd" d="M83.6455 147.728C83.6455 147.728 90.1138 146.801 101.463 146.448C113.36 146.076 119.285 147.534 119.285 147.534C119.285 147.534 123.034 143.678 120.266 139.107C121.563 127.025 126.334 106.268 120.606 90.8158C119.474 89.4763 116.81 89.3032 112.962 90.1956C111.606 90.5107 105.713 90.0465 104.865 90.0955L89.3348 89.7484C89.3348 89.7484 85.7979 89.5784 81.1848 89.2402C79.6511 89.1272 76.8973 87.5566 75.6487 88.9021C75.2368 89.3453 73.1889 94.5732 73.6504 104.985L82.4091 140.64C82.4091 140.64 79.2231 144.252 83.6455 147.728Z" fill="white"/>
<path fill-rule="evenodd" clip-rule="evenodd" d="M77.3523 73.3523L76.4395 66.9529L88.593 60.4304C88.593 60.4304 95.9995 60.3124 96.7461 61.6359C97.4936 62.9604 91.0497 62.6293 91.0497 62.6293C91.0497 62.6293 89.1874 64.0178 88.3972 65.1302C86.7195 67.4941 87.3971 71.6036 79.9601 71.1184C78.2277 71.4025 77.3534 73.3523 77.3534 73.3523" fill="#FFC6A0"/>
<path fill-rule="evenodd" clip-rule="evenodd" d="M53.6903 77.7012C53.6903 77.7012 68.1109 87.1107 79.0209 92.1506C80.0971 92.6478 76.8969 108.34 66.9586 103.966C59.4162 100.647 46.508 95.5229 45.1691 89.4646C44.4489 86.2054 47.7485 81.8187 53.6903 77.7002V77.7012ZM144.393 80.1431C144.393 80.1431 137.604 83.1432 130.35 87.0217C126.401 89.1325 120.068 91.7274 117.844 95.0127C111.531 104.33 121.43 106.237 130.976 102.518C137.782 99.8665 160.39 90.3869 144.393 80.1431Z" fill="#FFB594"/>
<path fill-rule="evenodd" clip-rule="evenodd" d="M77.7564 66.3848L80.8602 70.2672C80.8602 70.2672 78.0374 72.9382 74.4599 76.0164C67.2552 82.2137 61.4736 90.3177 58.2359 92.4625C54.2131 95.1255 48.3423 95.7778 45.8846 92.3445C42.2807 87.3106 46.3552 77.711 77.7564 66.3848Z" fill="#FFC6A0"/>
<path fill-rule="evenodd" clip-rule="evenodd" d="M66.1001 85.1479C66.1001 85.1479 63.7266 93.5641 57.0605 99.6004C57.7219 100.149 75.9126 110.114 79.5216 109.66C84.8346 108.991 86.0304 90.685 80.683 89.1214C79.9709 88.9134 74.6975 87.835 71.7032 86.9536C70.8208 86.6935 70.0692 85.243 68.1075 86.0173L66.0991 85.1479H66.1001ZM130.7 85.8582C130.7 85.8582 136.094 87.8149 138.13 99.5974C137.576 99.8715 120.329 111.952 115.988 107.405C109.361 100.463 115.211 90.0058 120.324 88.7883C125.037 87.6669 125.426 87.4178 130.701 85.8582" fill="white"/>
<path d="M79.7988 94.6914C79.7988 94.6914 80.7229 102.104 74.8145 107.774" stroke="#E4EBF7" stroke-width="1.051" stroke-linecap="round" stroke-linejoin="round"/>
<path d="M89.1482 94.7154C89.1482 94.7154 92.3169 97.2884 99.5581 97.2884C106.8 97.2884 108.762 93.8501 108.762 93.8501" stroke="#E4EBF7" stroke-width="0.932" stroke-linecap="round" stroke-linejoin="round"/>
<path fill-rule="evenodd" clip-rule="evenodd" d="M119.362 68.6647L112.484 62.4854C112.484 62.4854 107.052 58.1697 103.129 61.592C99.2062 65.0153 107.655 63.6758 108.862 65.7586C110.069 67.8414 109.723 66.902 106.75 66.2047C101.066 64.8732 104.638 67.0981 109.767 71.5618C111.888 73.4074 116.859 72.5171 116.859 72.5171L119.362 68.6647Z" fill="#FFC6A0"/>
<path fill-rule="evenodd" clip-rule="evenodd" d="M107.289 91.349L106.988 80.4079L90.8417 80.3809L90.3041 90.8348C90.2777 91.2379 90.4765 91.6231 90.8265 91.8342C92.9048 93.0856 100.348 96.9291 106.852 92.2583C107.143 92.0482 107.301 91.7041 107.289 91.348" fill="#FFB594"/>
<path fill-rule="evenodd" clip-rule="evenodd" d="M109.613 74.2676C110.442 73.1202 110.609 65.1462 110.643 62.3352C110.646 62.0696 110.546 61.8128 110.365 61.6168C110.183 61.4208 109.932 61.3003 109.664 61.2798L104.978 60.9147C97.1572 59.8703 87.6622 61.5389 86.4633 67.263C80.9028 73.0782 86.0363 80.512 86.0363 80.512C86.0363 80.512 88.0274 84.0793 90.4029 87.3055C91.1697 88.3469 90.8066 83.5731 93.4864 81.3743C99.0895 76.7786 109.613 74.2686 109.613 74.2686" fill="#5C2552"/>
<path fill-rule="evenodd" clip-rule="evenodd" d="M90.1919 83.2372C90.1919 83.2372 92.9154 89.4415 101.96 89.7616C109.892 90.0417 111.062 82.751 109.5 72.2501L108.578 66.765C102.373 63.8669 92.8789 67.3052 92.8789 67.3052C92.8789 67.3052 92.2946 69.35 92.6862 72.8113C90.3776 74.878 90.836 78.4314 90.836 78.4314C90.836 78.4314 89.9181 76.5087 88.8277 76.1095C87.9554 75.7894 86.9035 76.1985 86.4724 78.0902C85.4176 82.724 90.1919 83.2372 90.1919 83.2372Z" fill="#FFC6A0"/>
<path d="M102.787 77.1278L104.512 76.1994L103.483 71.8738L104.167 70.4673" stroke="#DB836E" stroke-width="1.145" stroke-linecap="round" stroke-linejoin="round"/>
<path fill-rule="evenodd" clip-rule="evenodd" d="M107.557 74.1196C107.535 74.8329 107.099 75.3991 106.584 75.3831C106.066 75.3671 105.667 74.7759 105.689 74.0626C105.71 73.3493 106.147 72.7841 106.663 72.7991C107.18 72.8151 107.58 73.4063 107.557 74.1196ZM99.4894 74.3767C99.4671 75.09 99.0309 75.6552 98.5147 75.6402C97.9984 75.6242 97.5977 75.033 97.62 74.3197C97.6423 73.6064 98.0785 73.0402 98.5948 73.0562C99.1121 73.0722 99.5117 73.6624 99.4894 74.3767Z" fill="#552950"/>
<path d="M92.9367 86.8184C92.9367 86.8184 98.2811 91.7772 105.797 89.1462" stroke="#DB836E" stroke-width="1.145" stroke-linecap="round" stroke-linejoin="round"/>
<path fill-rule="evenodd" clip-rule="evenodd" d="M101.704 81.9337C101.704 81.9337 98.061 82.1658 100.244 79.1427C101.857 77.6461 105.211 78.6825 105.211 78.6825C105.211 78.6825 106.383 82.59 101.704 81.9337Z" fill="#DB836E"/>
<path d="M95.7275 72.0015C95.7275 72.0015 98.2552 70.8575 100.574 70.9285M104.853 70.6265C104.853 70.6265 107.372 71.4665 108.304 71.3415L104.853 70.6265Z" stroke="#5C2552" stroke-width="1.526" stroke-linecap="round" stroke-linejoin="round"/>
<path d="M101.259 83.7502C101.259 83.7502 103.198 83.9013 103.804 83.4961M88.0558 77.4028C88.0558 77.4028 89.0305 78.2822 89.5347 79.5096C89.1523 79.9898 88.4869 80.6621 89.2953 81.3193L88.0558 77.4028Z" stroke="#DB836E" stroke-width="1.145" stroke-linecap="round" stroke-linejoin="round"/>
<path d="M102.099 115.864L112.283 113.855M89.5391 115.864L105.494 112.851L89.5391 115.864Z" stroke="#E4EBF7" stroke-width="1.051" stroke-linecap="round" stroke-linejoin="round"/>
<path d="M67.9599 86.7954C67.9599 86.7954 66.339 95.6287 61.167 100.879" stroke="#E4EBF7" stroke-width="1.114" stroke-linecap="round" stroke-linejoin="round"/>
<path d="M130.646 87.9668C130.646 87.9668 133.703 92.0893 134.765 99.7562" stroke="#E4EBF7" stroke-width="1.051" stroke-linecap="round" stroke-linejoin="round"/>
<path d="M65.5078 84.8477C65.5078 84.8477 59.3915 94.7634 51.7061 94.7544" stroke="#DB836E" stroke-width="0.795" stroke-linecap="round" stroke-linejoin="round"/>
<path fill-rule="evenodd" clip-rule="evenodd" d="M114.475 65.9336L114.331 71.2556C114.331 71.2556 120.41 75.7293 126.447 80.4611C130.993 84.0244 135.462 87.9188 137.589 89.1263C142.462 91.8933 146.617 92.4826 148.824 90.935C152.953 88.0399 153.259 81.0533 140.571 75.6663C136.239 73.8276 124.196 69.3039 114.475 65.9326" fill="#FFC6A0"/>
<path d="M132.9 85.52C132.9 85.52 137.554 91.2792 144.686 91.7363" stroke="#DB836E" stroke-width="0.75" stroke-linecap="round" stroke-linejoin="round"/>
<path d="M123.95 105.77C123.95 105.77 123.551 114.337 122.591 119.387" stroke="#E4EBF7" stroke-width="1.051" stroke-linecap="round" stroke-linejoin="round"/>
<path d="M117.942 161.572C117.942 161.572 114.32 160.084 115.225 154.43" stroke="#648BD8" stroke-width="1.051" stroke-linecap="round" stroke-linejoin="round"/>
<path fill-rule="evenodd" clip-rule="evenodd" d="M103.474 290.354C103.474 290.354 107.862 292.412 110.988 291.385C113.871 290.436 115.617 292.058 118.222 292.571C120.829 293.085 125.246 293.68 130.162 291.302C130.057 285.749 123.124 287.29 117.942 284.536C115.323 283.146 114.075 279.777 114.265 275.67H104.659C104.659 275.67 103.236 286.27 103.473 290.355" fill="#CBD1D1"/>
<path fill-rule="evenodd" clip-rule="evenodd" d="M103.449 290.182C103.449 290.182 105.931 291.463 110.356 290.84C113.481 290.4 114.149 291.325 117.942 291.879C121.734 292.433 128.898 291.809 130.022 290.979C130.443 292.087 129.67 293.057 129.67 293.057C129.67 293.057 128.125 293.665 124.754 293.888C122.679 294.025 118.827 294.181 116.981 293.381C115.155 291.995 111.619 291.463 111.128 293.138C107.125 294.096 103.612 292.85 103.612 292.85L103.45 290.182H103.449Z" fill="#2B0849"/>
<path fill-rule="evenodd" clip-rule="evenodd" d="M110.882 276.293H114.043C114.043 276.293 113.938 283.046 118.678 284.916C113.938 285.54 109.935 282.595 110.882 276.293Z" fill="#A4AABA"/>
<path fill-rule="evenodd" clip-rule="evenodd" d="M58.9753 272.622C58.9753 272.622 56.823 280.095 54.3927 285.023C52.5557 288.748 50.0767 292.574 59.9765 292.574C66.7704 292.574 69.1256 292.09 67.5625 285.923C65.9995 279.757 67.8344 272.622 67.8344 272.622H58.9753Z" fill="#CBD1D1"/>
<path fill-rule="evenodd" clip-rule="evenodd" d="M52.7781 290.148C52.7781 290.148 54.9193 291.327 59.5558 291.327C65.7715 291.327 67.9847 289.664 67.9847 289.664C67.9847 289.664 68.5984 290.786 67.3518 291.845C66.3375 292.707 63.6759 293.448 59.8012 293.404C55.5644 293.355 53.8411 292.834 52.9181 292.227C52.0752 291.673 52.2162 290.633 52.7781 290.148Z" fill="#2B0849"/>
<path fill-rule="evenodd" clip-rule="evenodd" d="M59.871 274.541C59.871 274.541 59.9054 276.071 59.5515 277.492C59.1944 278.924 58.4489 280.62 58.3961 281.664C58.3373 282.824 63.0316 283.256 63.6645 281.699C64.2964 280.139 64.9862 275.221 65.6191 274.39C66.25 273.559 60.6084 272.254 59.871 274.54" fill="#A4AABA"/>
<path fill-rule="evenodd" clip-rule="evenodd" d="M102.829 277.118L116.326 277.21C116.326 277.21 117.635 222.962 118.195 213.13C118.755 203.299 122.005 169.984 119.206 150.319L106.548 149.679L83.4975 150.455C83.4975 150.455 83.0583 154.4 82.2904 160.38C82.2275 160.873 81.6037 161.218 81.5358 161.738C81.4597 162.32 81.9618 163.086 81.8583 163.695C79.4747 177.703 75.4245 196.633 73.0368 210.137C72.9192 210.801 71.7923 211.142 71.5661 212.815C71.5255 213.115 71.7791 214.332 71.6797 214.601C64.7458 233.251 60.6338 262.203 57.2764 276.175L72.0124 276.161C72.0124 276.161 74.2286 267.634 76.0777 259.277C78.9138 246.455 99.3938 174.692 99.3938 174.692L102.437 174.175L103.489 220.292C103.489 220.292 103.262 221.521 103.827 222.301C104.393 223.083 103.263 223.418 103.432 224.535L103.827 226.319C103.827 226.319 103.375 233.462 102.923 238.15C102.47 242.837 102.829 277.118 102.829 277.118Z" fill="#7BB2F9"/>
<path d="M109.59 224.015C109.59 224.015 112.387 222.911 115.746 220.151M79.0469 220.516C80.2093 220.61 83.1204 218.508 86.0619 215.604L79.0469 220.516Z" stroke="#648BD8" stroke-width="1.051" stroke-linecap="round" stroke-linejoin="round"/>
<path d="M110.512 220.987C110.512 220.987 113.31 219.883 116.669 217.123" stroke="#648BD8" stroke-linecap="round" stroke-linejoin="round"/>
<path d="M58.9043 273.042H72.3318M77.6885 223.641C77.6885 223.641 80.3338 223.054 84.2511 220.293L77.6885 223.641ZM89.0802 150.877C88.8064 153.966 89.3815 159.358 84.7035 159.953L89.0802 150.877ZM106.83 149.131C106.83 149.131 106.941 163.072 105.525 164.119C103.287 165.775 102.508 166.054 102.508 166.054L106.83 149.131ZM102.96 149.686C102.96 149.686 102.996 162.501 101.753 173.94L102.96 149.686ZM96.789 175.031C96.789 175.031 104.066 173.375 106.303 173.375L96.789 175.031ZM77.2543 204.831C76.9338 206.381 76.6052 207.899 76.2674 209.367C76.2674 209.367 74.7966 211.19 75.25 213.125C75.7024 215.06 74.2935 215.16 70.219 228.404C68.5089 233.965 65.6911 246.9 63.8156 255.861C63.7365 256.241 59.7401 273.928 59.664 274.291L77.2543 204.831ZM78.646 196.817C78.3617 198.396 78.0652 199.973 77.7564 201.547L78.646 196.817ZM85.6092 151.471L84.4022 161.888C84.4022 161.888 83.2956 162.036 83.8991 164.118C84.0117 165.459 81.201 179.816 78.6723 194.397L85.6092 151.471Z" stroke="#648BD8" stroke-width="1.051" stroke-linecap="round" stroke-linejoin="round"/>
<path fill-rule="evenodd" clip-rule="evenodd" d="M119.558 147.478C119.558 147.478 102.36 144.39 83.3468 147.678C83.506 150.179 83.3447 151.807 83.3447 151.807C83.3447 151.807 98.1608 149.004 119.329 151.497C119.583 149.154 119.558 147.478 119.558 147.478Z" fill="#192064"/>
<path fill-rule="evenodd" clip-rule="evenodd" d="M109.55 150.409L109.554 145.522C109.555 145.313 109.474 145.112 109.327 144.961C109.181 144.81 108.981 144.721 108.769 144.712C106.306 144.62 103.657 144.604 100.863 144.698C100.65 144.706 100.448 144.794 100.3 144.945C100.151 145.096 100.068 145.298 100.067 145.508L100.064 150.39C100.064 150.846 100.441 151.21 100.903 151.198C103.502 151.134 106.102 151.14 108.701 151.215C108.811 151.219 108.92 151.201 109.023 151.162C109.126 151.123 109.219 151.064 109.298 150.989C109.378 150.914 109.441 150.824 109.484 150.724C109.527 150.625 109.55 150.517 109.55 150.409Z" fill="white"/>
<path fill-rule="evenodd" clip-rule="evenodd" d="M108.425 149.482L108.427 146.421C108.428 146.254 108.364 146.094 108.247 145.974C108.13 145.854 107.971 145.784 107.802 145.777C105.831 145.714 103.857 145.711 101.885 145.768C101.715 145.774 101.554 145.844 101.436 145.964C101.318 146.084 101.251 146.244 101.25 146.412L101.249 149.469C101.249 149.829 101.544 150.117 101.909 150.109C103.715 150.069 105.67 150.068 107.754 150.121C108.119 150.13 108.425 149.842 108.425 149.481" fill="#192064"/>
<path d="M104.167 174.089L105.073 218.507C105.073 218.507 105.751 220.069 104.845 221.185C103.941 222.302 107.336 221.856 105.751 223.417C104.167 224.98 106.657 224.534 105.751 226.766C105.151 228.246 104.749 247.76 104.646 261.735M103.438 274.035H115.885H103.438ZM104.621 269.175C104.627 272.545 104.662 274.937 104.733 275.648L104.621 269.175ZM104.636 263.223C104.627 264.754 104.621 266.204 104.62 267.538L104.636 263.223Z" stroke="#648BD8" stroke-width="1.051" stroke-linecap="round" stroke-linejoin="round"/>
</svg>
