<svg width="255" height="294" viewBox="0 0 255 294" fill="none" xmlns="http://www.w3.org/2000/svg">
<path fill-rule="evenodd" clip-rule="evenodd" d="M0.755005 127.8V125.69C0.755005 56.274 57.028 0 126.445 0H128.555C197.971 0 254.245 56.274 254.245 125.69V127.8C254.245 197.217 197.971 253.49 128.555 253.49H126.445C57.028 253.49 0.755005 197.217 0.755005 127.8Z" fill="#E4EBF7"/>
<path fill-rule="evenodd" clip-rule="evenodd" d="M40.7441 131.707C40.6344 132.796 40.3113 133.853 39.7933 134.816C39.2753 135.78 38.5725 136.633 37.7251 137.325C36.8776 138.017 35.9022 138.536 34.8543 138.851C33.8065 139.166 32.7068 139.272 31.6181 139.162C30.5294 139.053 29.4729 138.73 28.509 138.212C27.5452 137.694 26.6928 136.991 26.0005 136.143C25.3083 135.296 24.7897 134.321 24.4744 133.273C24.1592 132.225 24.0534 131.125 24.1631 130.036C24.3866 127.839 25.4733 125.821 27.1842 124.425C28.8952 123.028 31.0905 122.368 33.2878 122.59C35.4851 122.811 37.5045 123.896 38.9025 125.606C40.3004 127.315 40.9624 129.51 40.7431 131.707" fill="white"/>
<path d="M49.4197 147.483L36.6857 158.344M37.9447 135.189L48.4977 141.172L37.9447 135.189Z" stroke="white" stroke-width="2"/>
<path fill-rule="evenodd" clip-rule="evenodd" d="M40.8645 160.415C40.7953 161.165 40.5782 161.895 40.2258 162.56C39.8733 163.226 39.3925 163.816 38.811 164.295C38.2295 164.774 37.5589 165.133 36.8379 165.352C36.1169 165.57 35.3598 165.644 34.6102 165.568C33.8606 165.493 33.1334 165.269 32.4705 164.911C31.8076 164.553 31.2223 164.067 30.7482 163.482C30.2741 162.896 29.9206 162.223 29.7082 161.5C29.4958 160.777 29.4286 160.019 29.5105 159.27C29.6743 157.774 30.4224 156.403 31.5919 155.456C32.7615 154.509 34.2579 154.063 35.7552 154.214C37.2525 154.365 38.6296 155.101 39.5865 156.263C40.5435 157.424 41.0028 158.917 40.8645 160.415ZM58.6975 144.199C58.6252 144.953 58.4047 145.684 58.0487 146.352C57.6927 147.02 57.2082 147.612 56.6232 148.092C56.0381 148.572 55.3639 148.932 54.6393 149.151C53.9147 149.37 53.154 149.444 52.4009 149.368C51.6477 149.292 50.917 149.068 50.2507 148.709C49.5843 148.35 48.9954 147.863 48.5179 147.275C48.0403 146.688 47.6835 146.012 47.4679 145.287C47.2523 144.561 47.1822 143.8 47.2615 143.047C47.4173 141.533 48.1674 140.142 49.3473 139.181C50.5271 138.219 52.0404 137.764 53.5549 137.917C55.0694 138.07 56.4615 138.817 57.4256 139.995C58.3898 141.173 58.8472 142.685 58.6975 144.2V144.199ZM100.411 27.0332L130.435 27.0202C131.041 27.02 131.642 26.9002 132.202 26.6679C132.762 26.4355 133.271 26.095 133.7 25.6659C134.129 25.2368 134.469 24.7275 134.701 24.167C134.933 23.6065 135.052 23.0058 135.052 22.3992C135.051 21.7927 134.932 21.1921 134.699 20.6318C134.467 20.0715 134.126 19.5624 133.697 19.1337C133.268 18.705 132.759 18.3649 132.198 18.1331C131.638 17.9012 131.037 17.782 130.431 17.7822L100.407 17.7952C99.1982 17.8209 98.048 18.3191 97.2026 19.1829C96.3573 20.0468 95.8841 21.2075 95.8846 22.4162C95.8852 23.6248 96.3593 24.7852 97.2054 25.6483C98.0515 26.5114 99.2021 27.0086 100.411 27.0332ZM111.895 45.4952L141.918 45.4822C142.532 45.4947 143.143 45.3845 143.715 45.1578C144.286 44.9312 144.807 44.5928 145.246 44.1624C145.685 43.732 146.034 43.2184 146.271 42.6515C146.509 42.0846 146.632 41.476 146.632 40.8612C146.631 40.2464 146.508 39.6378 146.27 39.0712C146.031 38.5045 145.682 37.9911 145.243 37.5612C144.803 37.1312 144.283 36.7932 143.711 36.5671C143.139 36.3409 142.528 36.2312 141.914 36.2442L111.89 36.2572C110.665 36.2578 109.49 36.7449 108.624 37.6115C107.758 38.4781 107.272 39.6532 107.273 40.8782C107.273 42.1033 107.76 43.2779 108.627 44.1438C109.493 45.0096 110.669 45.4958 111.894 45.4952" fill="white"/>
<path fill-rule="evenodd" clip-rule="evenodd" d="M114.285 27.0197V27.0177L130.175 27.0107C128.95 27.0114 127.776 27.4987 126.91 28.3654C126.044 29.2321 125.558 30.4072 125.559 31.6322C125.559 32.8573 126.047 34.0319 126.913 34.8976C127.78 35.7634 128.955 36.2494 130.18 36.2487L114.288 36.2557V36.2537C115.496 36.2281 116.646 35.7301 117.491 34.8666C118.336 34.0031 118.809 32.8429 118.808 31.6348C118.808 30.4267 118.334 29.2668 117.488 28.4041C116.642 27.5413 115.492 27.0444 114.284 27.0197H114.285ZM150.922 69.6897H146.943C145.678 69.6858 144.466 69.1814 143.572 68.2867C142.677 67.3921 142.173 66.1798 142.169 64.9147C142.173 63.6497 142.677 62.4376 143.572 61.5431C144.466 60.6486 145.678 60.1444 146.943 60.1407H150.922C152.187 60.1444 153.4 60.6486 154.294 61.543C155.189 62.4375 155.693 63.6496 155.697 64.9147C155.694 66.18 155.189 67.3924 154.295 68.2871C153.4 69.1818 152.188 69.6861 150.922 69.6897Z" fill="white"/>
<path fill-rule="evenodd" clip-rule="evenodd" d="M172.441 29.8333C172.441 13.4413 185.73 0.15332 202.122 0.15332C218.514 0.15332 231.802 13.4413 231.802 29.8333C231.802 46.2263 218.514 59.5143 202.122 59.5143C185.73 59.5143 172.442 46.2263 172.442 29.8343" fill="#FF4D4F"/>
<path fill-rule="evenodd" clip-rule="evenodd" d="M204.312 19.0337L203.636 34.0687C203.622 34.4605 203.456 34.8314 203.174 35.1036C202.892 35.3757 202.515 35.5277 202.123 35.5277C201.731 35.5277 201.354 35.3757 201.072 35.1036C200.79 34.8314 200.624 34.4605 200.61 34.0687L199.935 19.0337C199.924 18.7395 199.973 18.4461 200.078 18.1711C200.183 17.8961 200.342 17.6451 200.547 17.4331C200.751 17.2211 200.996 17.0524 201.267 16.9372C201.538 16.8221 201.829 16.7627 202.123 16.7627C202.418 16.7627 202.709 16.8221 202.98 16.9372C203.251 17.0524 203.496 17.2211 203.7 17.4331C203.905 17.6451 204.064 17.8961 204.169 18.1711C204.274 18.4461 204.323 18.7395 204.312 19.0337ZM204.048 38.4117C204.561 38.8887 204.818 39.5117 204.818 40.2817C204.818 41.0517 204.561 41.6747 204.048 42.1887C203.498 42.6647 202.838 42.9217 202.105 42.9217C201.757 42.928 201.412 42.8629 201.09 42.7305C200.769 42.598 200.477 42.4011 200.235 42.1517C199.685 41.6377 199.429 41.0157 199.429 40.2817C199.429 39.5117 199.685 38.8887 200.235 38.4117C200.748 37.8987 201.372 37.6787 202.105 37.6787C202.875 37.6787 203.535 37.8987 204.048 38.4117Z" fill="white"/>
<path fill-rule="evenodd" clip-rule="evenodd" d="M120.055 132.874C124.481 132.276 123.667 131.67 124.134 128.096C124.809 122.916 121.026 111.161 115.872 102.978C114.784 92.2583 103.274 91.7383 103.274 91.7383C103.274 91.7383 107.586 96.6333 107.47 107.937C108.868 113.18 108.274 122.387 108.274 122.387C108.274 122.387 113.529 133.756 120.054 132.874" fill="#FFB594"/>
<path fill-rule="evenodd" clip-rule="evenodd" d="M101.699 91.2094C101.699 91.2094 103.162 90.6264 104.91 91.7914C112.99 93.1894 115.278 98.4973 116.21 103.159C118.074 104.441 118.074 105.489 118.074 106.655C118.439 107.432 119.589 109.685 119.589 109.685C119.589 109.685 112.364 111.433 108.635 116.443C107.236 110.033 101.699 91.2084 101.699 91.2084" fill="white"/>
<path fill-rule="evenodd" clip-rule="evenodd" d="M94.7627 90.0992L95.7817 84.2842L86.5517 72.4102L81.3187 77.9912L78.7257 87.8542C78.7257 87.8542 87.1157 92.9822 94.7627 90.1002" fill="#FFB594"/>
<path fill-rule="evenodd" clip-rule="evenodd" d="M83.6864 77.8148C83.6864 77.8148 79.1294 74.9468 81.2414 70.9228C82.8734 67.8158 85.7784 72.0618 85.7784 72.0618C85.7784 72.0618 86.3024 68.3998 88.9174 68.3998C89.4404 67.3538 90.4864 64.2158 90.4864 64.2158C90.4864 64.2158 101.993 66.8308 104.086 67.3538C104.085 72.5838 101.769 86.8828 96.2024 87.3228C87.2624 88.0288 83.6864 77.8148 83.6864 77.8148Z" fill="#FFC6A0"/>
<path fill-rule="evenodd" clip-rule="evenodd" d="M103.726 71.8425C106.342 69.7495 107.215 62.0675 107.215 62.0675C107.215 62.0675 104.723 61.5755 100.539 60.0055C95.8311 57.9135 87.6721 55.2345 82.9641 60.9875C73.4241 65.3975 80.9021 80.9175 80.9021 80.9175L83.6311 77.8805C83.6311 77.8805 79.6751 74.5765 81.5391 71.6035C83.7221 68.1235 85.4821 72.6835 85.4821 72.6835C85.4821 72.6835 86.1221 70.2835 89.0821 69.3235C89.4381 68.6095 90.1221 66.6335 90.5221 65.4515C90.6078 65.1967 90.7855 64.9831 91.0203 64.8523C91.2552 64.7216 91.5304 64.6831 91.7921 64.7445C94.2021 65.3045 100.515 66.7745 103.209 67.4205C103.733 67.5465 104.085 68.0395 104.034 68.5765L103.726 71.8425Z" fill="#520038"/>
<path fill-rule="evenodd" clip-rule="evenodd" d="M101.975 76.1128C101.871 76.7258 101.39 77.1568 100.899 77.0728C100.409 76.9908 100.094 76.4268 100.197 75.8128C100.301 75.1998 100.782 74.7688 101.273 74.8518C101.764 74.9348 102.078 75.4988 101.975 76.1118V76.1128ZM95.0154 74.6728C94.9114 75.2858 94.4304 75.7168 93.9394 75.6328C93.4494 75.5508 93.1344 74.9868 93.2374 74.3728C93.3414 73.7598 93.8224 73.3288 94.3134 73.4128C94.8044 73.4948 95.1184 74.0588 95.0154 74.6728Z" fill="#552950"/>
<path d="M99.9606 73.2432L99.0606 74.8632L98.7606 79.2432H96.5206" stroke="#DB836E" stroke-width="1.063" stroke-linecap="round" stroke-linejoin="round"/>
<path d="M100.681 72.8825C100.681 72.8825 102.481 72.1625 103.201 73.4225" stroke="#5C2552" stroke-width="1.117" stroke-linecap="round" stroke-linejoin="round"/>
<path d="M82.1221 72.6833C82.1221 72.6833 82.6021 71.5633 83.2421 71.9633C83.8821 72.3633 84.5221 73.4033 83.8021 73.9633C83.0821 74.5233 83.9621 75.6433 83.9621 75.6433" stroke="#DB836E" stroke-width="1.117" stroke-linecap="round" stroke-linejoin="round"/>
<path d="M93.0811 71.3232C93.0811 71.3232 94.9211 72.4432 97.2411 72.2832" stroke="#5C2552" stroke-width="1.117" stroke-linecap="round" stroke-linejoin="round"/>
<path d="M84.4415 79.6426C84.4415 79.6426 86.2275 86.1896 93.7035 87.5966M93.4805 80.2026C93.4805 80.2026 95.7205 81.4026 97.8805 81.4026L93.4805 80.2026ZM94.4405 82.7626C94.4405 82.7626 95.4005 83.1626 95.9605 83.0826L94.4405 82.7626Z" stroke="#DB836E" stroke-width="1.063" stroke-linecap="round" stroke-linejoin="round"/>
<path d="M96.3031 91.2622C96.3031 91.2622 95.2351 94.0832 88.0051 93.3672C80.7751 92.6502 77.7151 88.3232 77.7151 88.3232" stroke="#E4EBF7" stroke-width="1.136" stroke-linecap="round" stroke-linejoin="round"/>
<path fill-rule="evenodd" clip-rule="evenodd" d="M78.8807 87.0769C78.8807 87.0769 85.4067 92.0489 95.3507 89.5629C95.3507 89.5629 104.928 90.5829 106.887 94.8849C112.247 106.655 107.43 131.72 106.887 134.847C110.383 138.902 106.421 143.33 106.421 143.33C90.7967 139.782 70.6107 142.73 70.6107 142.73C65.7617 139.184 69.3877 133.686 69.3877 133.686L63.1347 109.919C60.6497 94.6919 63.9677 90.1159 66.6837 89.1759C69.7137 88.1269 74.7237 87.8939 74.7237 87.8939C75.2197 87.8359 75.8037 87.8179 76.0937 87.6609C78.4537 86.3789 78.8807 87.0779 78.8807 87.0779" fill="white"/>
<path fill-rule="evenodd" clip-rule="evenodd" d="M66.583 89.4092C66.583 89.4092 59.708 89.8742 58.993 97.5652C58.527 106.422 62.023 108.519 62.023 108.519C62.023 108.519 68.098 130.621 78.819 131.476C87.209 129.3 83.577 124.774 83.48 120.056C83.247 108.752 76.372 103.159 76.372 103.159C76.372 103.159 72.16 89.4092 66.583 89.4092Z" fill="#FFC6A0"/>
<path fill-rule="evenodd" clip-rule="evenodd" d="M72.4709 123.824C72.4709 123.824 73.3259 135.088 82.2989 130.31C87.0639 127.774 89.8799 116.482 92.0879 107.742C93.5439 101.974 94.6679 95.5449 94.6679 95.5449L89.6949 93.8359C89.6949 93.8359 87.2869 99.3519 81.9259 106.111C77.5909 111.578 72.7819 117.221 72.4709 123.824Z" fill="#FFC6A0"/>
<path d="M109.218 104.79C109.218 104.79 110.965 107.514 106.887 135.325C109.263 137.541 107.94 141.337 106.654 142.835" stroke="#E4EBF7" stroke-width="1.085" stroke-linecap="round" stroke-linejoin="round"/>
<path fill-rule="evenodd" clip-rule="evenodd" d="M124.017 131.126C124.017 131.126 123.59 133.858 112.247 133.107C97.06 132.101 86.921 129.857 86.921 129.857L87.854 124.057C87.854 124.057 88.577 124.272 97.564 123.989C109.451 123.616 116.278 117.919 122.528 122.967C126.567 126.23 124.017 131.127 124.017 131.127" fill="#FFC6A0"/>
<path fill-rule="evenodd" clip-rule="evenodd" d="M70.9945 90.5731C70.9945 90.5731 65.4015 85.8341 59.9405 93.2531C56.6225 100.476 60.4575 108.537 62.6045 112.831C62.2945 116.56 64.9345 117.142 64.9345 117.142C64.9345 117.142 65.0425 118.037 66.4505 119.822C70.5285 112.792 73.1705 110.656 80.1615 107.276C79.8335 106.62 78.2845 104.011 78.3365 103.509C78.5115 101.819 77.0545 100.886 77.0545 100.886C77.0545 100.886 76.7685 100.73 75.8895 98.1481C75.1015 95.8351 73.8535 92.9711 70.9945 90.5731Z" fill="white"/>
<path fill-rule="evenodd" clip-rule="evenodd" d="M90.9874 287.626C90.9874 287.626 95.8424 289.934 99.3004 288.781C102.488 287.718 104.42 289.536 107.302 290.112C110.183 290.689 115.071 291.355 120.509 288.688C120.392 282.46 112.723 284.189 106.991 281.1C104.096 279.54 102.715 275.764 102.925 271.156H92.2994C92.2994 271.156 90.7264 283.046 90.9874 287.626Z" fill="#CBD1D1"/>
<path fill-rule="evenodd" clip-rule="evenodd" d="M90.962 287.432C90.962 287.432 93.707 288.869 98.601 288.17C102.057 287.676 101.824 288.83 106.019 289.452C110.214 290.073 119.111 289.258 120.353 288.326C120.819 289.568 119.965 290.656 119.965 290.656C119.965 290.656 118.256 291.338 114.527 291.588C112.232 291.742 106.429 291.864 104.387 290.967C102.367 289.413 99.493 289.452 98.327 290.733C93.9 291.808 91.143 290.423 91.143 290.423L90.962 287.432Z" fill="#2B0849"/>
<path fill-rule="evenodd" clip-rule="evenodd" d="M99.1845 271.856H102.68C102.68 271.856 102.563 279.43 107.807 281.527C102.563 282.227 98.1355 278.925 99.1845 271.856Z" fill="#A4AABA"/>
<path fill-rule="evenodd" clip-rule="evenodd" d="M45.1805 271.645C45.1805 271.645 42.9725 279.419 40.4785 284.544C38.5945 288.418 36.0505 292.398 46.2075 292.398C53.1775 292.398 55.5925 291.895 53.9895 285.481C52.3855 279.066 54.2685 271.645 54.2685 271.645H45.1805Z" fill="#CBD1D1"/>
<path fill-rule="evenodd" clip-rule="evenodd" d="M38.8207 289.876C38.8207 289.876 41.0187 291.101 45.7747 291.101C52.1507 291.101 54.4207 289.371 54.4207 289.371C54.4207 289.371 55.0507 290.539 53.7717 291.641C52.7317 292.538 50.0017 293.309 46.0267 293.262C41.6797 293.212 39.9117 292.669 38.9647 292.038C38.1007 291.461 38.2447 290.381 38.8207 289.876Z" fill="#2B0849"/>
<path fill-rule="evenodd" clip-rule="evenodd" d="M46.0987 273.64C46.0987 273.64 46.1337 275.232 45.7697 276.71C45.4047 278.2 44.6397 279.965 44.5857 281.05C44.5247 282.256 49.3407 282.707 49.9887 281.086C50.6387 279.464 51.3457 274.349 51.9947 273.484C52.6427 272.619 46.8547 271.262 46.0987 273.64Z" fill="#A4AABA"/>
<path fill-rule="evenodd" clip-rule="evenodd" d="M90.2314 277.169L104.13 277.264C104.13 277.264 105.479 220.621 106.055 210.355C106.631 200.088 109.978 165.303 107.097 144.77L94.0604 144.101L70.3234 144.911C70.3234 144.911 69.8714 149.031 69.0804 155.276C69.0154 155.791 68.3724 156.15 68.3034 156.693C68.2254 157.301 68.7424 158.1 68.6354 158.737C66.1804 173.364 62.8384 191.473 60.3794 205.574C60.2584 206.267 59.0974 206.622 58.8644 208.37C58.8224 208.684 59.0844 209.954 58.9804 210.235C51.8404 229.708 46.7784 262.836 43.3204 277.425L58.4964 277.41C58.4964 277.41 60.7784 267.265 62.6814 258.539C65.6034 245.15 86.6934 170.219 86.6934 170.219L89.8264 169.265L89.6684 217.833C89.6684 217.833 89.4354 219.115 90.0184 219.931C90.6014 220.746 89.4374 221.098 89.6104 222.262L90.0184 224.126C90.0184 224.126 89.5524 231.584 89.0864 236.478C88.6194 241.373 90.2314 277.168 90.2314 277.168" fill="#7BB2F9"/>
<path d="M96.7793 222.133C96.7793 222.133 99.6603 220.981 103.119 218.099M65.3253 218.48C66.5223 218.579 69.5203 216.383 72.5503 213.353L65.3253 218.48Z" stroke="#648BD8" stroke-width="1.085" stroke-linecap="round" stroke-linejoin="round"/>
<path d="M97.7277 218.972C97.7277 218.972 100.61 217.819 104.068 214.938" stroke="#648BD8" stroke-width="1.032" stroke-linecap="round" stroke-linejoin="round"/>
<path d="M44.9971 273.326H58.8251M63.9271 221.743C63.9271 221.743 66.6511 221.129 70.6861 218.247L63.9271 221.743ZM75.6581 145.765C75.3771 148.991 75.9681 154.621 71.1521 155.243L75.6581 145.765ZM93.9371 143.943C93.9371 143.943 94.0521 158.5 92.5931 159.593C90.2881 161.323 89.4861 161.613 89.4861 161.613L93.9371 143.943ZM89.9521 144.522C89.9521 144.522 90.2211 157.666 88.9421 169.61L89.9521 144.522ZM84.2801 170.309C84.2801 170.309 91.0901 169.258 93.3961 169.258L84.2801 170.309ZM46.7811 269.644L45.8891 274.182L46.7811 269.644ZM47.6921 262.888L46.8771 267.045L47.6921 262.888ZM63.4801 202.102C63.1501 203.72 63.3781 204.006 63.0311 205.54C63.0311 205.54 60.2751 207.443 60.7411 209.463C61.2071 211.483 60.4311 212.887 56.2361 226.715C54.4741 232.522 52.0031 245.637 50.0711 254.993C50.0411 255.137 49.5501 257.639 48.9311 260.793L63.4801 202.102ZM64.9131 193.735C64.6181 195.393 64.3131 197.045 63.9961 198.673L64.9131 193.735ZM72.0851 146.386L70.8411 157.263C70.8411 157.263 69.7011 157.418 70.3221 159.593C70.4391 160.992 67.5441 175.983 64.9401 191.208L72.0851 146.386Z" stroke="#648BD8" stroke-width="1.085" stroke-linecap="round" stroke-linejoin="round"/>
<path fill-rule="evenodd" clip-rule="evenodd" d="M106.935 141.716C103.907 141.227 88.11 138.972 70.716 141.916C70.5661 141.942 70.4307 142.021 70.3354 142.14C70.24 142.259 70.1912 142.408 70.198 142.56C70.261 143.867 70.242 144.903 70.213 145.555C70.209 145.646 70.2255 145.738 70.2612 145.822C70.2969 145.907 70.3511 145.982 70.4197 146.043C70.4883 146.104 70.5696 146.149 70.6577 146.175C70.7458 146.2 70.8385 146.206 70.929 146.191C74.232 145.657 87.966 143.779 106.593 145.925C106.94 145.965 107.253 145.711 107.285 145.365C107.409 144.018 107.445 142.94 107.455 142.336C107.458 142.187 107.407 142.042 107.311 141.928C107.216 141.814 107.082 141.739 106.935 141.716Z" fill="#192064"/>
<path fill-rule="evenodd" clip-rule="evenodd" d="M97.1531 144.863L97.1561 139.761C97.1573 139.542 97.0736 139.332 96.9227 139.174C96.7718 139.016 96.5654 138.923 96.3471 138.914C93.6344 138.812 90.919 138.808 88.2061 138.9C87.9864 138.908 87.7783 139 87.6254 139.158C87.4725 139.316 87.3867 139.527 87.3861 139.747L87.3831 144.844C87.3831 145.32 87.7711 145.701 88.2471 145.689C90.7251 145.625 93.4131 145.622 96.2771 145.706C96.3903 145.71 96.5032 145.691 96.609 145.65C96.7148 145.609 96.8114 145.548 96.8931 145.469C96.9747 145.391 97.0398 145.297 97.0845 145.192C97.1291 145.088 97.1525 144.976 97.1531 144.863Z" fill="white"/>
<path fill-rule="evenodd" clip-rule="evenodd" d="M95.9937 143.895L95.9957 140.7C95.9971 140.527 95.9307 140.359 95.8106 140.234C95.6905 140.108 95.5262 140.035 95.3527 140.028C93.4527 139.967 91.4117 139.955 89.2587 140.018C89.0838 140.024 88.9179 140.097 88.7959 140.222C88.6739 140.348 88.6054 140.516 88.6047 140.69L88.6027 143.882C88.6027 144.258 88.9077 144.559 89.2827 144.551C91.1417 144.509 93.1567 144.508 95.3027 144.563C95.6787 144.573 95.9927 144.272 95.9937 143.895Z" fill="#192064"/>
<path d="M91.1946 170.003L92.1266 216.383C92.1266 216.383 92.8266 218.014 91.8936 219.179C90.9616 220.345 94.4576 219.879 92.8256 221.509C91.1956 223.142 93.7586 222.675 92.8256 225.006C92.2076 226.552 91.7946 246.927 91.6876 261.519M90.8566 273.121H103.676H90.8566ZM91.9706 269.36C91.9766 272.879 91.8986 274.91 91.9706 275.652V269.36ZM91.6776 263.073C91.6686 264.672 91.6616 265.631 91.6616 267.578L91.6776 263.073Z" stroke="#648BD8" stroke-width="1.085" stroke-linecap="round" stroke-linejoin="round"/>
<path d="M78.353 89.6406C78.353 89.6406 86.044 95.7776 94.9 92.3606M74.491 98.2636L76.705 102.576C76.705 102.576 78.803 103.392 78.57 105.256L79.386 107.47L74.491 98.2636ZM65.052 116.21C65.285 115.278 67.228 109.063 77.637 105.722L65.052 116.21Z" stroke="#E4EBF7" stroke-width="1.085" stroke-linecap="round" stroke-linejoin="round"/>
<path fill-rule="evenodd" clip-rule="evenodd" d="M92.7289 86.5532C92.7289 86.5532 98.2049 85.7372 100.303 82.0082C101.6 81.6632 101.023 84.2202 99.9729 85.6792C99.2729 86.6502 98.9629 87.2332 98.9629 87.2332C98.9629 87.2332 99.1569 87.5432 99.1179 88.0492C99.0649 88.7462 98.9429 88.7022 98.8459 89.0972C98.7649 89.4322 98.9539 89.7542 98.8459 90.1462C98.7999 90.3162 98.6479 90.6462 98.4639 91.0242C98.3439 91.2732 98.3919 91.7112 98.2639 91.9722C98.0329 92.4412 96.7019 93.8422 95.6419 94.8272C91.8159 98.3812 90.6239 96.4712 89.6409 94.4192C88.7469 92.5542 88.9799 89.2922 88.7669 87.5442C88.4169 84.6302 86.1449 84.5142 86.8439 83.1152C87.1869 82.4302 89.7139 83.8052 90.1069 84.8632C90.8639 86.9032 93.0589 86.6702 92.7289 86.5532Z" fill="#FFC6A0"/>
<path d="M100.555 82.0283C100.09 82.1053 100.205 82.3003 99.5853 83.2713C98.9633 84.2423 94.7683 86.2033 93.1953 86.4953C90.6063 86.9753 90.9173 84.9353 88.9413 83.6403C87.2513 82.5333 85.3793 83.0023 87.5433 85.0383C88.5333 85.9703 88.4753 86.1453 88.9413 88.2433C89.2763 89.7493 88.3013 91.9133 89.6413 93.8363" stroke="#DB836E" stroke-width="0.774" stroke-linecap="round" stroke-linejoin="round"/>
<path d="M80.2983 108.272C78.1983 111.198 76.0323 114.447 74.7413 117.034" stroke="#E59788" stroke-width="0.774" stroke-linecap="round" stroke-linejoin="round"/>
<path fill-rule="evenodd" clip-rule="evenodd" d="M88.4751 124.367C88.4751 124.367 86.3771 122.425 83.3481 121.648C80.3181 120.871 79.7741 121.493 77.8321 121.726C75.8901 121.959 73.9471 120.794 74.1801 122.426C74.4131 124.056 79.2301 123.436 79.3861 124.523C79.5411 125.61 73.0161 127.319 71.0731 126.698C70.2961 127.475 71.5391 128.562 73.0931 128.873C73.3261 130.427 75.3461 130.427 75.3461 130.427C75.3461 130.427 76.0451 131.437 77.9871 131.515C80.4731 132.835 86.9211 130.815 88.9411 129.961C90.9611 129.106 88.4751 124.367 88.4751 124.367Z" fill="#FFC6A0"/>
<path d="M79.6193 107.703C79.6193 107.703 71.2293 110.461 66.4513 119.823M74.1803 122.425C74.1803 122.425 74.8403 123.552 77.3473 123.843C79.6623 124.113 79.9103 124.426 79.9103 124.426C79.9103 124.426 77.3653 127.32 70.8403 126.698L74.1803 122.425ZM73.1713 128.873C73.1713 128.873 76.9973 128.97 78.1043 128.155L73.1713 128.873ZM75.7353 130.349C75.7353 130.349 77.6963 130.485 79.0953 129.844L75.7353 130.349ZM77.9873 131.515C77.9873 131.515 79.7353 131.534 80.9013 131.01L77.9873 131.515ZM74.0833 121.92C74.0833 121.92 73.4883 120.888 75.3453 121.493C77.0163 122.037 78.1783 121.548 80.4733 121.648C81.8623 121.709 83.5403 121.351 84.4553 121.798C86.0613 122.582 88.0873 123.979 88.0873 123.979C88.0873 123.979 98.6133 125.183 107.12 122.852L74.0833 121.92Z" stroke="#E59788" stroke-width="0.774" stroke-linecap="round" stroke-linejoin="round"/>
<path d="M110.033 112.132C110.033 112.132 113.413 108.519 117.608 107.47" stroke="#E4EBF7" stroke-width="1.085" stroke-linecap="round" stroke-linejoin="round"/>
<path d="M108.13 122.605C108.13 122.605 117.827 119.86 119.575 121.725" stroke="#E59788" stroke-width="0.774" stroke-linecap="round" stroke-linejoin="round"/>
<path d="M133.73 169.638L129.775 165.683M195.36 83.2551L199.331 79.3691L195.36 83.2551ZM187.921 90.5321L191.657 86.8771L187.921 90.5321ZM192.507 83.8061L188.045 79.2461L192.507 83.8061ZM199.208 90.6561L195.075 86.4311L199.208 90.6561ZM130.011 162.673L133.729 158.955L130.011 162.673ZM123.046 169.638L126.544 166.14L123.046 169.638ZM127.316 163.225L123.046 158.955L127.316 163.225Z" stroke="#BFCDDD" stroke-width="2" stroke-linecap="round" stroke-linejoin="round"/>
<path fill-rule="evenodd" clip-rule="evenodd" d="M190.911 211.378H189.307C188.244 211.374 187.226 210.951 186.474 210.199C185.723 209.448 185.299 208.429 185.296 207.367V175.279C185.299 174.216 185.723 173.198 186.474 172.447C187.225 171.696 188.243 171.272 189.306 171.269H190.911C191.974 171.272 192.992 171.695 193.743 172.446C194.495 173.198 194.918 174.216 194.922 175.279V207.367C194.918 208.429 194.495 209.447 193.744 210.198C192.992 210.95 191.974 211.373 190.912 211.377" fill="#A3B4C6"/>
<path fill-rule="evenodd" clip-rule="evenodd" d="M238.579 212.576C238.579 213.852 238.071 215.076 237.169 215.979C236.266 216.882 235.042 217.389 233.766 217.389H147.13C145.853 217.389 144.629 216.882 143.726 215.979C142.824 215.076 142.317 213.852 142.317 212.576C142.317 211.299 142.824 210.075 143.726 209.172C144.629 208.27 145.853 207.763 147.13 207.763H233.766C235.042 207.763 236.266 208.27 237.169 209.172C238.071 210.075 238.579 211.299 238.579 212.576Z" fill="#A3B4C6"/>
<path fill-rule="evenodd" clip-rule="evenodd" d="M154.853 189.695H225.366V105.078H154.853V189.695Z" fill="#A3B4C6"/>
<path fill-rule="evenodd" clip-rule="evenodd" d="M225.683 189.695H154.535C153.685 189.692 152.871 189.353 152.27 188.752C151.669 188.151 151.33 187.336 151.327 186.486V167.519C151.33 166.669 151.668 165.854 152.269 165.252C152.87 164.651 153.685 164.312 154.535 164.309H225.683C226.534 164.312 227.349 164.651 227.95 165.252C228.551 165.854 228.89 166.668 228.892 167.519V186.486C228.89 187.336 228.551 188.151 227.949 188.752C227.348 189.354 226.533 189.693 225.682 189.695H225.683ZM225.683 130.431H154.535C153.685 130.428 152.871 130.089 152.27 129.488C151.669 128.887 151.33 128.073 151.327 127.223V108.255C151.33 107.405 151.669 106.59 152.27 105.989C152.871 105.388 153.685 105.049 154.535 105.046H225.683C226.534 105.049 227.349 105.388 227.95 105.989C228.551 106.591 228.89 107.405 228.892 108.256V127.223C228.89 128.073 228.551 128.888 227.949 129.489C227.348 130.09 226.533 130.429 225.682 130.431" fill="#BFCDDD"/>
<path fill-rule="evenodd" clip-rule="evenodd" d="M160.317 120.145C159.997 120.151 159.679 120.094 159.381 119.976C159.084 119.858 158.812 119.681 158.584 119.457C158.355 119.233 158.173 118.966 158.049 118.67C157.925 118.375 157.861 118.058 157.861 117.738C157.861 117.418 157.925 117.101 158.049 116.806C158.173 116.51 158.355 116.243 158.584 116.019C158.812 115.795 159.084 115.618 159.381 115.5C159.679 115.382 159.997 115.325 160.317 115.332C160.947 115.344 161.547 115.604 161.988 116.053C162.428 116.503 162.675 117.108 162.675 117.738C162.675 118.368 162.428 118.973 161.988 119.423C161.547 119.873 160.947 120.132 160.317 120.145ZM167.734 120.145C167.414 120.151 167.096 120.094 166.798 119.976C166.501 119.858 166.229 119.681 166.001 119.457C165.772 119.233 165.59 118.966 165.466 118.67C165.342 118.375 165.278 118.058 165.278 117.738C165.278 117.418 165.342 117.101 165.466 116.806C165.59 116.51 165.772 116.243 166.001 116.019C166.229 115.795 166.501 115.618 166.798 115.5C167.096 115.382 167.414 115.325 167.734 115.332C168.364 115.344 168.964 115.604 169.405 116.053C169.845 116.503 170.092 117.108 170.092 117.738C170.092 118.368 169.845 118.973 169.405 119.423C168.964 119.873 168.364 120.132 167.734 120.145ZM175.151 120.145C174.831 120.151 174.513 120.094 174.215 119.976C173.918 119.858 173.646 119.681 173.418 119.457C173.189 119.233 173.007 118.966 172.883 118.67C172.759 118.375 172.695 118.058 172.695 117.738C172.695 117.418 172.759 117.101 172.883 116.806C173.007 116.51 173.189 116.243 173.418 116.019C173.646 115.795 173.918 115.618 174.215 115.5C174.513 115.382 174.831 115.325 175.151 115.332C175.781 115.344 176.381 115.604 176.822 116.053C177.262 116.503 177.509 117.108 177.509 117.738C177.509 118.368 177.262 118.973 176.822 119.423C176.381 119.873 175.781 120.132 175.151 120.145ZM223.293 120.145H200.832C200.62 120.145 200.416 120.06 200.265 119.91C200.115 119.759 200.03 119.555 200.03 119.343V116.135C200.03 115.692 200.389 115.332 200.832 115.332H223.292C223.736 115.332 224.095 115.692 224.095 116.135V119.343C224.095 119.786 223.735 120.145 223.293 120.145Z" fill="white"/>
<path fill-rule="evenodd" clip-rule="evenodd" d="M225.683 160.063H154.535C153.685 160.06 152.87 159.721 152.269 159.12C151.668 158.519 151.33 157.704 151.327 156.854V137.887C151.33 137.037 151.669 136.222 152.27 135.621C152.871 135.02 153.685 134.681 154.535 134.678H225.683C226.534 134.68 227.348 135.019 227.949 135.621C228.551 136.222 228.89 137.036 228.892 137.887V156.854C228.89 157.704 228.551 158.519 227.949 159.121C227.348 159.722 226.533 160.061 225.682 160.063" fill="#BFCDDD"/>
<path d="M156.325 160.212H163.076M174.21 130.431H223.511H174.21ZM165.739 130.431H171.828H165.739ZM156.707 130.431H163.457H156.707ZM174.592 160.212H223.892H174.592ZM166.12 160.212H172.209H166.12Z" stroke="#7C90A5" stroke-width="1.124" stroke-linecap="round" stroke-linejoin="round"/>
<path fill-rule="evenodd" clip-rule="evenodd" d="M160.317 150.637C159.679 150.637 159.067 150.384 158.615 149.932C158.164 149.481 157.91 148.869 157.91 148.23C157.91 147.592 158.164 146.98 158.615 146.528C159.067 146.077 159.679 145.823 160.317 145.823C160.956 145.823 161.568 146.077 162.019 146.528C162.471 146.98 162.724 147.592 162.724 148.23C162.724 148.869 162.471 149.481 162.019 149.932C161.568 150.384 160.956 150.637 160.317 150.637ZM167.734 150.637C167.096 150.637 166.484 150.384 166.032 149.932C165.581 149.481 165.327 148.869 165.327 148.23C165.327 147.592 165.581 146.98 166.032 146.528C166.484 146.077 167.096 145.823 167.734 145.823C168.373 145.823 168.985 146.077 169.436 146.528C169.888 146.98 170.141 147.592 170.141 148.23C170.141 148.869 169.888 149.481 169.436 149.932C168.985 150.384 168.373 150.637 167.734 150.637ZM175.151 150.637C174.835 150.637 174.522 150.575 174.23 150.454C173.938 150.333 173.673 150.155 173.45 149.932C173.226 149.708 173.049 149.443 172.928 149.151C172.807 148.859 172.745 148.546 172.745 148.23C172.745 147.914 172.807 147.601 172.928 147.309C173.049 147.017 173.227 146.751 173.45 146.528C173.674 146.304 173.939 146.127 174.231 146.006C174.523 145.885 174.836 145.823 175.152 145.823C175.791 145.823 176.403 146.077 176.854 146.528C177.306 146.98 177.559 147.592 177.559 148.23C177.559 148.869 177.306 149.481 176.854 149.932C176.403 150.384 175.791 150.637 175.152 150.637H175.151ZM223.293 150.637H200.832C200.62 150.637 200.416 150.553 200.265 150.402C200.115 150.252 200.03 150.048 200.03 149.835V146.626C200.03 146.183 200.389 145.824 200.832 145.824H223.292C223.736 145.824 224.095 146.184 224.095 146.626V149.835C224.095 150.278 223.735 150.637 223.293 150.637ZM160.317 179.586C159.997 179.593 159.679 179.535 159.381 179.417C159.084 179.299 158.812 179.123 158.584 178.899C158.355 178.675 158.173 178.407 158.049 178.112C157.925 177.817 157.861 177.5 157.861 177.18C157.861 176.86 157.925 176.543 158.049 176.247C158.173 175.952 158.355 175.685 158.584 175.46C158.812 175.236 159.084 175.06 159.381 174.942C159.679 174.824 159.997 174.767 160.317 174.773C160.947 174.786 161.547 175.045 161.988 175.495C162.428 175.945 162.675 176.55 162.675 177.18C162.675 177.81 162.428 178.414 161.988 178.864C161.547 179.314 160.947 179.573 160.317 179.586ZM167.734 179.586C167.414 179.593 167.096 179.535 166.798 179.417C166.501 179.299 166.229 179.123 166.001 178.899C165.772 178.675 165.59 178.407 165.466 178.112C165.342 177.817 165.278 177.5 165.278 177.18C165.278 176.86 165.342 176.543 165.466 176.247C165.59 175.952 165.772 175.685 166.001 175.46C166.229 175.236 166.501 175.06 166.798 174.942C167.096 174.824 167.414 174.767 167.734 174.773C168.364 174.786 168.964 175.045 169.405 175.495C169.845 175.945 170.092 176.55 170.092 177.18C170.092 177.81 169.845 178.414 169.405 178.864C168.964 179.314 168.364 179.573 167.734 179.586ZM175.151 179.586C174.831 179.593 174.513 179.535 174.215 179.417C173.918 179.299 173.646 179.123 173.418 178.899C173.189 178.675 173.007 178.407 172.883 178.112C172.759 177.817 172.695 177.5 172.695 177.18C172.695 176.86 172.759 176.543 172.883 176.247C173.007 175.952 173.189 175.685 173.418 175.46C173.646 175.236 173.918 175.06 174.215 174.942C174.513 174.824 174.831 174.767 175.151 174.773C175.781 174.786 176.381 175.045 176.822 175.495C177.262 175.945 177.509 176.55 177.509 177.18C177.509 177.81 177.262 178.414 176.822 178.864C176.381 179.314 175.781 179.573 175.151 179.586ZM223.293 179.586H200.832C200.62 179.586 200.416 179.502 200.265 179.351C200.115 179.201 200.03 178.997 200.03 178.784V175.575C200.03 175.132 200.389 174.773 200.832 174.773H223.292C223.736 174.773 224.095 175.133 224.095 175.575V178.784C224.095 179.227 223.735 179.586 223.293 179.586Z" fill="white"/>
<path fill-rule="evenodd" clip-rule="evenodd" d="M203.795 220.707H176.423C175.785 220.705 175.174 220.451 174.723 220C174.272 219.549 174.018 218.938 174.017 218.3V206.852C174.018 206.215 174.272 205.604 174.723 205.153C175.174 204.702 175.785 204.447 176.423 204.445H203.795C204.432 204.447 205.044 204.701 205.495 205.152C205.946 205.603 206.2 206.215 206.202 206.852V218.299C206.2 218.937 205.946 219.549 205.495 220C205.044 220.451 204.432 220.705 203.795 220.706" fill="#BFCDDD"/>
<path d="M201.805 206.816V218.336M178.014 206.816V218.336V206.816Z" stroke="#A3B4C6" stroke-width="1.124" stroke-linecap="round" stroke-linejoin="round"/>
<path fill-rule="evenodd" clip-rule="evenodd" d="M163.628 267.493C161.129 267.493 158.733 266.5 156.966 264.733C155.199 262.966 154.206 260.57 154.206 258.071V243.251C154.232 240.769 155.236 238.397 157 236.651C158.764 234.904 161.146 233.925 163.629 233.925C166.111 233.925 168.493 234.904 170.257 236.651C172.021 238.397 173.025 240.769 173.051 243.251V258.071C173.051 260.57 172.058 262.966 170.291 264.733C168.524 266.5 166.127 267.493 163.628 267.493Z" fill="#568159"/>
<path fill-rule="evenodd" clip-rule="evenodd" d="M171.975 267.429C170.738 267.429 169.512 267.185 168.369 266.712C167.226 266.238 166.187 265.544 165.312 264.669C164.437 263.794 163.743 262.755 163.27 261.612C162.796 260.469 162.553 259.244 162.553 258.006V254.568C162.579 252.086 163.583 249.714 165.347 247.968C167.111 246.222 169.493 245.242 171.975 245.242C174.458 245.242 176.84 246.222 178.604 247.968C180.368 249.714 181.372 252.086 181.398 254.568V258.006C181.398 260.505 180.405 262.902 178.638 264.669C176.871 266.436 174.475 267.429 171.976 267.429" fill="#C7DFC2"/>
<path fill-rule="evenodd" clip-rule="evenodd" d="M182.065 293.265H154.353C153.931 293.265 153.514 293.182 153.124 293.02C152.735 292.859 152.381 292.623 152.083 292.324C151.785 292.026 151.549 291.673 151.388 291.283C151.226 290.894 151.144 290.476 151.144 290.055V269.389C151.144 268.967 151.226 268.55 151.388 268.16C151.549 267.771 151.785 267.417 152.083 267.119C152.381 266.821 152.735 266.584 153.124 266.423C153.514 266.262 153.931 266.179 154.353 266.179H182.064C182.485 266.179 182.903 266.262 183.292 266.423C183.681 266.584 184.035 266.821 184.333 267.119C184.631 267.417 184.867 267.771 185.029 268.16C185.19 268.55 185.273 268.967 185.273 269.389V290.057C185.273 290.908 184.935 291.724 184.333 292.326C183.731 292.928 182.915 293.266 182.064 293.266" fill="#F2D7AD"/>
</svg>
