<svg width="22" height="22" viewBox="0 0 22 22" fill="none" xmlns="http://www.w3.org/2000/svg">
<path d="M19.28 3.62H15.5V2.18C15.5 2.081 15.419 2 15.32 2H14.06C13.961 2 13.88 2.081 13.88 2.18V3.62H8.12V2.18C8.12 2.081 8.039 2 7.94 2H6.68C6.581 2 6.5 2.081 6.5 2.18V3.62H2.72C2.32175 3.62 2 3.94175 2 4.34V19.28C2 19.6783 2.32175 20 2.72 20H19.28C19.6783 20 20 19.6783 20 19.28V4.34C20 3.94175 19.6783 3.62 19.28 3.62ZM18.38 18.38H3.62V9.83H18.38V18.38ZM3.62 8.3V5.24H6.5V6.32C6.5 6.419 6.581 6.5 6.68 6.5H7.94C8.039 6.5 8.12 6.419 8.12 6.32V5.24H13.88V6.32C13.88 6.419 13.961 6.5 14.06 6.5H15.32C15.419 6.5 15.5 6.419 15.5 6.32V5.24H18.38V8.3H3.62Z" fill="#141414"/>
</svg>
