<svg width="22" height="22" viewBox="0 0 22 22" fill="none" xmlns="http://www.w3.org/2000/svg">
<path d="M18.7755 13.2879L17.4627 12.1629C17.5249 11.7811 17.5569 11.3914 17.5569 11.0016C17.5569 10.6119 17.5249 10.2221 17.4627 9.84039L18.7755 8.71531C18.8745 8.63034 18.9454 8.51717 18.9787 8.39084C19.012 8.26452 19.0061 8.13103 18.9619 8.00812L18.9439 7.95588C18.5825 6.94336 18.0413 6.00475 17.3465 5.18538L17.3104 5.14319C17.2261 5.04384 17.1138 4.97243 16.9882 4.93836C16.8626 4.90429 16.7297 4.90916 16.6069 4.95233L14.9775 5.53295C14.3762 5.03872 13.7048 4.64896 12.9792 4.37572L12.6646 2.66802C12.6408 2.53952 12.5787 2.42131 12.4863 2.32908C12.3939 2.23686 12.2758 2.17498 12.1475 2.15168L12.0934 2.14164C11.0492 1.95279 9.95084 1.95279 8.90663 2.14164L8.85251 2.15168C8.72423 2.17498 8.60606 2.23686 8.5137 2.32908C8.42134 2.42131 8.35916 2.53952 8.33542 2.66802L8.01875 4.38376C7.299 4.65705 6.62874 5.0466 6.03455 5.53696L4.39307 4.95233C4.27034 4.90881 4.13731 4.90377 4.01165 4.93786C3.886 4.97195 3.77366 5.04357 3.68958 5.14319L3.6535 5.18538C2.95953 6.00533 2.41844 6.94379 2.05612 7.95588L2.03808 8.00812C1.94789 8.25925 2.02205 8.54052 2.22448 8.71531L3.55329 9.85244C3.49116 10.2301 3.4611 10.6159 3.4611 10.9996C3.4611 11.3854 3.49116 11.7711 3.55329 12.1468L2.22448 13.2839C2.12546 13.3689 2.05459 13.4821 2.0213 13.6084C1.988 13.7347 1.99386 13.8682 2.03808 13.9911L2.05612 14.0434C2.41889 15.0559 2.95603 15.9901 3.6535 16.8139L3.68958 16.8561C3.77387 16.9554 3.88621 17.0268 4.01179 17.0609C4.13737 17.095 4.2703 17.0901 4.39307 17.0469L6.03455 16.4623C6.63181 16.9545 7.29922 17.3443 8.01875 17.6155L8.33542 19.3312C8.35916 19.4597 8.42134 19.5779 8.5137 19.6702C8.60606 19.7624 8.72423 19.8243 8.85251 19.8476L8.90663 19.8576C9.96043 20.0475 11.0396 20.0475 12.0934 19.8576L12.1475 19.8476C12.2758 19.8243 12.3939 19.7624 12.4863 19.6702C12.5787 19.5779 12.6408 19.4597 12.6646 19.3312L12.9792 17.6235C13.7045 17.351 14.3797 16.96 14.9775 16.4663L16.6069 17.0469C16.7297 17.0904 16.8627 17.0955 16.9883 17.0614C17.114 17.0273 17.2263 16.9557 17.3104 16.8561L17.3465 16.8139C18.044 15.9881 18.5811 15.0559 18.9439 14.0434L18.9619 13.9911C19.0521 13.744 18.9779 13.4627 18.7755 13.2879V13.2879ZM16.0397 10.0775C16.0898 10.3808 16.1159 10.6922 16.1159 11.0036C16.1159 11.315 16.0898 11.6264 16.0397 11.9298L15.9074 12.7355L17.4046 14.0192C17.1777 14.5434 16.8912 15.0396 16.5508 15.4979L14.6909 14.8369L14.0615 15.3553C13.5825 15.7491 13.0494 16.0585 12.4722 16.2754L11.7086 16.5627L11.3498 18.5115C10.7837 18.5758 10.2123 18.5758 9.64619 18.5115L9.28743 16.5587L8.52983 16.2674C7.95862 16.0504 7.4275 15.741 6.95249 15.3493L6.32316 14.8289L4.45119 15.4959C4.11047 15.0358 3.82587 14.5396 3.59739 14.0172L5.11059 12.7214L4.98031 11.9178C4.93221 11.6184 4.90616 11.309 4.90616 11.0036C4.90616 10.6963 4.93021 10.3889 4.98031 10.0895L5.11059 9.28589L3.59739 7.99004C3.82387 7.46567 4.11047 6.97144 4.45119 6.51136L6.32316 7.17837L6.95249 6.65802C7.4275 6.26626 7.95862 5.95686 8.52983 5.73988L9.28944 5.45258L9.6482 3.49977C10.2114 3.43548 10.7866 3.43548 11.3518 3.49977L11.7106 5.44857L12.4742 5.73586C13.0494 5.95284 13.5845 6.26224 14.0635 6.65602L14.6929 7.17435L16.5528 6.51337C16.8935 6.97345 17.1781 7.46969 17.4066 7.99205L15.9095 9.27584L16.0397 10.0775ZM10.502 7.26677C8.55388 7.26677 6.97454 8.84992 6.97454 10.8027C6.97454 12.7555 8.55388 14.3387 10.502 14.3387C12.4501 14.3387 14.0295 12.7555 14.0295 10.8027C14.0295 8.84992 12.4501 7.26677 10.502 7.26677ZM12.0894 12.3939C11.8812 12.6032 11.6337 12.7692 11.3613 12.8823C11.0889 12.9954 10.7969 13.0533 10.502 13.0529C9.90274 13.0529 9.33954 12.8178 8.91464 12.3939C8.70585 12.1852 8.54028 11.9372 8.42746 11.6641C8.31464 11.391 8.25679 11.0983 8.25725 10.8027C8.25725 10.202 8.49175 9.63747 8.91464 9.21155C9.33954 8.78563 9.90274 8.55258 10.502 8.55258C11.1013 8.55258 11.6645 8.78563 12.0894 9.21155C12.2982 9.42025 12.4637 9.66827 12.5766 9.94135C12.6894 10.2144 12.7472 10.5072 12.7468 10.8027C12.7468 11.4034 12.5123 11.968 12.0894 12.3939Z" fill="#141414"/>
</svg>
