<svg width="22" height="22" viewBox="0 0 22 22" fill="none" xmlns="http://www.w3.org/2000/svg">
<path d="M17.8131 6.51406L13.5335 2.18884C13.4142 2.0683 13.2511 2 13.0821 2H4.63636C4.28437 2 4 2.28728 4 2.64286V19.3571C4 19.7127 4.28437 20 4.63636 20H17.3636C17.7156 20 18 19.7127 18 19.3571V6.96808C18 6.79732 17.9324 6.6346 17.8131 6.51406ZM16.5324 7.26339H12.7898V3.48259L16.5324 7.26339ZM16.5682 18.5536H5.43182V3.44643H11.4375V7.78571C11.4375 8.00949 11.5255 8.2241 11.6821 8.38234C11.8388 8.54057 12.0512 8.62946 12.2727 8.62946H16.5682V18.5536ZM8.8125 11.7433C8.8125 11.8518 8.9 11.9342 9.00739 11.9342H9.6517C9.75909 11.9342 9.84659 11.8498 9.84659 11.7453C9.84659 11.1788 10.3597 10.7087 11 10.7087C11.6403 10.7087 12.1534 11.1788 12.1534 11.7433C12.1534 12.2516 11.7358 12.6915 11.173 12.7658C10.7892 12.8221 10.4869 13.1737 10.483 13.5714V14.2143C10.483 14.3248 10.5724 14.4152 10.6818 14.4152H11.3182C11.4276 14.4152 11.517 14.3248 11.517 14.2143V13.9692C11.517 13.8487 11.5966 13.7382 11.7099 13.702C12.5969 13.4127 13.2014 12.6172 13.1875 11.7152C13.1716 10.6002 12.2091 9.69018 11.0298 9.67411C9.80881 9.66004 8.8125 10.5902 8.8125 11.7433ZM10.3636 15.6607C10.3636 15.8312 10.4307 15.9947 10.55 16.1153C10.6694 16.2358 10.8312 16.3036 11 16.3036C11.1688 16.3036 11.3306 16.2358 11.45 16.1153C11.5693 15.9947 11.6364 15.8312 11.6364 15.6607C11.6364 15.4902 11.5693 15.3267 11.45 15.2061C11.3306 15.0856 11.1688 15.0179 11 15.0179C10.8312 15.0179 10.6694 15.0856 10.55 15.2061C10.4307 15.3267 10.3636 15.4902 10.3636 15.6607Z" fill="#141414"/>
</svg>
