<svg width="22" height="22" viewBox="0 0 22 22" fill="none" xmlns="http://www.w3.org/2000/svg">
<path d="M18.2381 16.8182H17.6667V9.09091C17.6667 5.88409 15.1833 3.23409 11.9524 2.79318V1.90909C11.9524 1.40682 11.5262 1 11 1C10.4738 1 10.0476 1.40682 10.0476 1.90909V2.79318C6.81667 3.23409 4.33333 5.88409 4.33333 9.09091V16.8182H3.7619C3.34048 16.8182 3 17.1432 3 17.5455V18.2727C3 18.3727 3.08571 18.4545 3.19048 18.4545H8.33333C8.33333 19.8591 9.52857 21 11 21C12.4714 21 13.6667 19.8591 13.6667 18.4545H18.8095C18.9143 18.4545 19 18.3727 19 18.2727V17.5455C19 17.1432 18.6595 16.8182 18.2381 16.8182ZM11 19.5455C10.369 19.5455 9.85714 19.0568 9.85714 18.4545H12.1429C12.1429 19.0568 11.631 19.5455 11 19.5455ZM6.04762 16.8182V9.09091C6.04762 7.82727 6.5619 6.64091 7.49762 5.74773C8.43333 4.85455 9.67619 4.36364 11 4.36364C12.3238 4.36364 13.5667 4.85455 14.5024 5.74773C15.4381 6.64091 15.9524 7.82727 15.9524 9.09091V16.8182H6.04762Z" fill="#141414"/>
</svg>
