<svg width="22" height="22" viewBox="0 0 22 22" fill="none" xmlns="http://www.w3.org/2000/svg">
<path d="M19.5714 16.6V15.2C19.5683 13.0948 18.7594 11.0674 17.3045 9.51852C15.8497 7.96964 13.8548 7.01204 11.7143 6.835V5.4H13.8571V4H8.14286V5.4H10.2857V6.835C8.14518 7.01204 6.15032 7.96964 4.69548 9.51852C3.24063 11.0674 2.43169 13.0948 2.42857 15.2V16.6H1V18H21V16.6H19.5714ZM11 8.2C12.6458 8.20223 14.2405 8.76042 15.5153 9.78049C16.7902 10.8006 17.6672 12.2202 17.9986 13.8H4.00143C4.33282 12.2202 5.20984 10.8006 6.48467 9.78049C7.7595 8.76042 9.3542 8.20223 11 8.2ZM3.85714 15.2H18.1429V16.6H3.85714V15.2Z" fill="#141414"/>
</svg>
