<svg width="22" height="22" viewBox="0 0 22 22" fill="none" xmlns="http://www.w3.org/2000/svg">
<path d="M19.2023 4.83755C19.191 4.81727 19.1752 4.79698 19.1572 4.78121C19.0445 4.66852 18.862 4.66852 18.7493 4.78121L14.8664 8.66456L13.3363 7.13421L17.2214 3.2486C17.2394 3.23057 17.2529 3.21254 17.2665 3.19226C17.3476 3.05477 17.3025 2.87897 17.1651 2.79784C14.9521 1.49062 12.054 1.79037 10.1498 3.69261C8.63988 5.20267 8.1396 7.34381 8.65115 9.26858L2.04826 15.8723C1.98065 15.9399 1.98516 16.0504 2.05502 16.1202L5.87929 19.945C5.94915 20.0148 6.06182 20.0194 6.12718 19.9517L12.7278 13.3503C14.6546 13.8641 16.7955 13.366 18.3076 11.8537C20.2096 9.94924 20.5093 7.05081 19.2023 4.83755ZM17.1605 10.7043C15.8512 12.0137 13.8861 12.2662 12.3244 11.4616L12.1261 11.6599L12.1239 11.6576L5.94915 17.8354L4.16434 16.0504L9.34975 10.8643C9.34975 10.8643 9.34975 10.8665 9.35201 10.8665L10.5419 9.67653C9.73736 8.11462 9.98976 6.14928 11.2991 4.83981C11.7213 4.4171 12.2299 4.09053 12.7899 3.88243C13.35 3.67433 13.9484 3.58959 14.5442 3.63401L11.5492 6.62709C11.4139 6.76254 11.338 6.94615 11.338 7.13759C11.338 7.32903 11.4139 7.51264 11.5492 7.64808L14.3549 10.4541C14.4903 10.5894 14.6739 10.6654 14.8653 10.6654C15.0567 10.6654 15.2403 10.5894 15.3757 10.4541L18.3685 7.46101C18.4518 8.6285 18.0439 9.82302 17.1605 10.7043Z" fill="#164827"/>
</svg>
