<svg width="22" height="22" viewBox="0 0 22 22" fill="none" xmlns="http://www.w3.org/2000/svg">
<path d="M18.5594 8.88386C19.2528 9.28053 19.8151 9.86906 20.1776 10.5777C20.5401 11.2863 20.6872 12.0844 20.601 12.8747C20.5147 13.665 20.1988 14.4132 19.6918 15.0282C19.1848 15.6432 18.5087 16.0983 17.7457 16.3381C17.4761 17.5536 16.7967 18.6412 15.8199 19.4208C14.8431 20.2004 13.6276 20.6252 12.3747 20.625L9.62587 20.625V19.9423V19.2597L12.3747 19.2598C13.2276 19.26 14.0597 18.9975 14.7563 18.5085C15.4528 18.0195 15.9796 17.328 16.2642 16.5293H15.8106C15.6284 16.5293 15.4536 16.4573 15.3247 16.3293C15.1958 16.2013 15.1234 16.0277 15.1234 15.8466V9.02039C15.1234 8.83935 15.1958 8.66572 15.3247 8.5377C15.4536 8.40968 15.6284 8.33777 15.8106 8.33777H16.4978C16.7204 8.33777 16.939 8.35551 17.1534 8.38964C16.9987 6.87544 16.2836 5.47218 15.1469 4.45175C14.0101 3.43133 12.5324 2.86638 11.0003 2.86638C9.4681 2.86638 7.99047 3.43133 6.85368 4.45175C5.71689 5.47218 5.00187 6.87544 4.84716 8.38964C5.06396 8.35515 5.28318 8.3378 5.50274 8.33777H6.18993C6.37219 8.33777 6.54697 8.40968 6.67585 8.5377C6.80472 8.66572 6.87712 8.83935 6.87712 9.02039V15.8466C6.87712 16.0277 6.80472 16.2013 6.67585 16.3293C6.54697 16.4573 6.37219 16.5293 6.18993 16.5293H5.50274C4.59425 16.5303 3.71086 16.2332 2.98982 15.6842C2.26878 15.1352 1.75046 14.365 1.5154 13.4932C1.28034 12.6215 1.3417 11.6971 1.68994 10.8635C2.03818 10.03 2.65381 9.33409 3.44117 8.88386C3.44117 6.89239 4.23757 4.98248 5.65518 3.5743C7.07278 2.16611 8.99547 1.375 11.0003 1.375C13.0051 1.375 14.9278 2.16611 16.3454 3.5743C17.763 4.98248 18.5594 6.89239 18.5594 8.88386ZM5.50274 9.70301C4.77372 9.70301 4.07456 9.99069 3.55907 10.5028C3.04358 11.0148 2.75397 11.7093 2.75397 12.4335C2.75397 13.1577 3.04358 13.8522 3.55907 14.3643C4.07456 14.8763 4.77372 15.164 5.50274 15.164V9.70301ZM19.2466 12.4335C19.2466 11.7093 18.957 11.0148 18.4415 10.5028C17.926 9.99069 17.2268 9.70301 16.4978 9.70301V15.164C17.2268 15.164 17.926 14.8763 18.4415 14.3643C18.957 13.8522 19.2466 13.1577 19.2466 12.4335Z" fill="#164827"/>
</svg>
