<svg width="22" height="22" viewBox="0 0 22 22" fill="none" xmlns="http://www.w3.org/2000/svg">
<path d="M11 2C6.02991 2 2 6.02991 2 11C2 15.9701 6.02991 20 11 20C15.9701 20 20 15.9701 20 11C20 6.02991 15.9701 2 11 2ZM11 18.4732C6.87366 18.4732 3.52679 15.1263 3.52679 11C3.52679 6.87366 6.87366 3.52679 11 3.52679C15.1263 3.52679 18.4732 6.87366 18.4732 11C18.4732 15.1263 15.1263 18.4732 11 18.4732ZM11.9583 10.5339L11.448 10.4154V7.71741C12.2114 7.82188 12.6835 8.3 12.7638 8.88661C12.7739 8.96696 12.8422 9.02522 12.9225 9.02522H13.8246C13.919 9.02522 13.9933 8.94286 13.9853 8.84844C13.8627 7.59687 12.8321 6.7933 11.456 6.65469V5.99777C11.456 5.90937 11.3837 5.83705 11.2953 5.83705H10.7308C10.6424 5.83705 10.5701 5.90937 10.5701 5.99777V6.66071C9.14777 6.79933 8.03482 7.58482 8.03482 9.05134C8.03482 10.4094 9.03527 11.0643 10.0859 11.3154L10.5821 11.442V14.3087C9.6942 14.1902 9.19598 13.7161 9.09353 13.0772C9.08147 13.0009 9.01317 12.9446 8.93482 12.9446H8.0067C7.91228 12.9446 7.83795 13.025 7.84598 13.1194C7.93638 14.2243 8.77411 15.2408 10.5621 15.3714V16.0022C10.5621 16.0906 10.6344 16.1629 10.7228 16.1629H11.2933C11.3817 16.1629 11.454 16.0906 11.454 16.0002L11.45 15.3634C13.023 15.2248 14.148 14.383 14.148 12.8723C14.146 11.4781 13.26 10.8554 11.9583 10.5339ZM10.5801 10.2085C10.4676 10.1763 10.3732 10.1462 10.2788 10.108C9.59978 9.86295 9.28438 9.46719 9.28438 8.95692C9.28438 8.22768 9.83683 7.81183 10.5801 7.71741V10.2085ZM11.448 14.3147V11.6288C11.5103 11.6469 11.5665 11.6609 11.6248 11.673C12.575 11.9623 12.8944 12.3641 12.8944 12.9808C12.8944 13.7663 12.3038 14.2384 11.448 14.3147Z" fill="black" fill-opacity="0.85"/>
</svg>
