<svg width="22" height="22" viewBox="0 0 22 22" fill="none" xmlns="http://www.w3.org/2000/svg">
<path d="M7.26772 2.94419H7.07129C7.17933 2.94419 7.26772 2.85579 7.26772 2.74776V2.94419H14.732V2.74776C14.732 2.85579 14.8204 2.94419 14.9284 2.94419H14.732V4.71204H16.4999V2.74776C16.4999 1.88102 15.7952 1.17633 14.9284 1.17633H7.07129C6.20455 1.17633 5.49986 1.88102 5.49986 2.74776V4.71204H7.26772V2.94419ZM19.6427 4.71204H2.357C1.92241 4.71204 1.57129 5.06316 1.57129 5.49776V6.28347C1.57129 6.39151 1.65968 6.4799 1.76772 6.4799H3.25075L3.85723 19.3214C3.89651 20.1587 4.58892 20.8192 5.4262 20.8192H16.5735C17.4133 20.8192 18.1032 20.1612 18.1425 19.3214L18.749 6.4799H20.232C20.34 6.4799 20.4284 6.39151 20.4284 6.28347V5.49776C20.4284 5.06316 20.0773 4.71204 19.6427 4.71204ZM16.3845 19.0513H5.61526L5.02107 6.4799H16.9787L16.3845 19.0513Z" fill="#FF4D4F"/>
</svg>
