<svg width="22" height="22" viewBox="0 0 22 22" fill="none" xmlns="http://www.w3.org/2000/svg">
<path d="M10.2145 5.027V3.5H7.85793C7.6496 3.5 7.4498 3.42098 7.30249 3.28033C7.15518 3.13968 7.07242 2.94891 7.07242 2.75C7.07242 2.55109 7.15518 2.36032 7.30249 2.21967C7.4498 2.07902 7.6496 2 7.85793 2H14.1421C14.3504 2 14.5502 2.07902 14.6975 2.21967C14.8448 2.36032 14.9276 2.55109 14.9276 2.75C14.9276 2.94891 14.8448 3.13968 14.6975 3.28033C14.5502 3.42098 14.3504 3.5 14.1421 3.5H11.7855V5.027C13.2926 5.12968 14.7613 5.52776 16.1001 6.19642C17.4389 6.86508 18.619 7.78996 19.5669 8.91337C20.5147 10.0368 21.2099 11.3346 21.6092 12.726C22.0084 14.1173 22.1031 15.5722 21.8873 17H0.11274C-0.10305 15.5722 -0.00837931 14.1173 0.390846 12.726C0.790072 11.3346 1.48529 10.0368 2.43312 8.91337C3.38096 7.78996 4.56109 6.86508 5.89988 6.19642C7.23867 5.52776 8.70742 5.12968 10.2145 5.027ZM1.5738 15.5H20.4262C20.4262 14.3181 20.1824 13.1478 19.7087 12.0558C19.235 10.9639 18.5406 9.97177 17.6653 9.13604C16.79 8.30031 15.7509 7.63738 14.6073 7.18508C13.4636 6.73279 12.2379 6.5 11 6.5C9.76213 6.5 8.53639 6.73279 7.39275 7.18508C6.24911 7.63738 5.20997 8.30031 4.33467 9.13604C3.45937 9.97177 2.76504 10.9639 2.29133 12.0558C1.81762 13.1478 1.5738 14.3181 1.5738 15.5ZM0.788284 18.5H21.2117C21.42 18.5 21.6198 18.579 21.7672 18.7197C21.9145 18.8603 21.9972 19.0511 21.9972 19.25C21.9972 19.4489 21.9145 19.6397 21.7672 19.7803C21.6198 19.921 21.42 20 21.2117 20H0.788284C0.579952 20 0.380153 19.921 0.23284 19.7803C0.085527 19.6397 0.00276745 19.4489 0.00276745 19.25C0.00276745 19.0511 0.085527 18.8603 0.23284 18.7197C0.380153 18.579 0.579952 18.5 0.788284 18.5Z" fill="black"/>
</svg>
