<svg width="22" height="22" viewBox="0 0 22 22" fill="none" xmlns="http://www.w3.org/2000/svg">
<path d="M4.75568 16.8906C4.80479 16.8906 4.85389 16.8857 4.903 16.8783L9.03291 16.154C9.08202 16.1442 9.12867 16.1221 9.16305 16.0853L19.5713 5.677C19.5941 5.65428 19.6121 5.6273 19.6244 5.5976C19.6368 5.5679 19.6431 5.53606 19.6431 5.5039C19.6431 5.47174 19.6368 5.4399 19.6244 5.41019C19.6121 5.38049 19.5941 5.35351 19.5713 5.3308L15.4905 1.24754C15.4439 1.20088 15.3825 1.17633 15.3162 1.17633C15.2499 1.17633 15.1885 1.20088 15.1418 1.24754L4.73358 11.6558C4.69675 11.6926 4.67465 11.7368 4.66483 11.7859L3.9405 15.9158C3.91661 16.0474 3.92515 16.1828 3.96537 16.3102C4.00558 16.4377 4.07627 16.5535 4.1713 16.6475C4.33336 16.8047 4.53715 16.8906 4.75568 16.8906ZM6.41059 12.6085L15.3162 3.70535L17.1159 5.50513L8.21037 14.4083L6.02755 14.7937L6.41059 12.6085ZM20.0354 18.9531H1.96394C1.52934 18.9531 1.17822 19.3042 1.17822 19.7388V20.6228C1.17822 20.7308 1.26662 20.8192 1.37465 20.8192H20.6247C20.7327 20.8192 20.8211 20.7308 20.8211 20.6228V19.7388C20.8211 19.3042 20.47 18.9531 20.0354 18.9531Z" fill="#434343"/>
</svg>
