<svg width="22" height="22" viewBox="0 0 22 22" fill="none" xmlns="http://www.w3.org/2000/svg">
<path d="M21.5631 10.368C19.2354 5.46466 15.7169 2.99702 11.0001 2.99702C6.28095 2.99702 2.76487 5.46466 0.437195 10.3705C0.343831 10.5682 0.29541 10.7841 0.29541 11.0027C0.29541 11.2214 0.343831 11.4373 0.437195 11.635C2.76487 16.5383 6.2834 19.006 11.0001 19.006C15.7193 19.006 19.2354 16.5383 21.5631 11.6325C21.7522 11.2347 21.7522 10.7731 21.5631 10.368ZM11.0001 17.2381C7.03965 17.2381 4.13987 15.2296 2.09456 11.0015C4.13987 6.77336 7.03965 4.76488 11.0001 4.76488C14.9606 4.76488 17.8604 6.77336 19.9057 11.0015C17.8629 15.2296 14.9631 17.2381 11.0001 17.2381ZM10.9019 6.68006C8.51532 6.68006 6.5805 8.61488 6.5805 11.0015C6.5805 13.3881 8.51532 15.3229 10.9019 15.3229C13.2885 15.3229 15.2234 13.3881 15.2234 11.0015C15.2234 8.61488 13.2885 6.68006 10.9019 6.68006ZM10.9019 13.7515C9.38206 13.7515 8.15193 12.5214 8.15193 11.0015C8.15193 9.48162 9.38206 8.25149 10.9019 8.25149C12.4218 8.25149 13.6519 9.48162 13.6519 11.0015C13.6519 12.5214 12.4218 13.7515 10.9019 13.7515Z" fill="#434343"/>
</svg>
