<svg width="22" height="22" viewBox="0 0 22 22" fill="none" xmlns="http://www.w3.org/2000/svg">
<path d="M2.37052 1.44811C2.25543 1.39055 2.1265 1.36644 1.99839 1.37853C1.87028 1.39062 1.74814 1.43842 1.64585 1.5165C1.54356 1.59457 1.46524 1.69979 1.41979 1.82018C1.37435 1.94056 1.3636 2.07129 1.38877 2.19748L3.3179 8.86623C3.35387 8.99051 3.42418 9.10211 3.52074 9.18822C3.6173 9.27432 3.7362 9.33143 3.86377 9.35298L11.6875 10.6634C12.056 10.7362 12.056 11.2642 11.6875 11.3371L3.86377 12.6475C3.7362 12.669 3.6173 12.7261 3.52074 12.8122C3.42418 12.8984 3.35387 13.01 3.3179 13.1342L1.38877 19.803C1.3636 19.9292 1.37435 20.0599 1.41979 20.1803C1.46524 20.3007 1.54356 20.4059 1.64585 20.484C1.74814 20.562 1.87028 20.6098 1.99839 20.6219C2.1265 20.634 2.25543 20.6099 2.37052 20.5524L20.2455 11.6149C20.3596 11.5577 20.4555 11.4699 20.5225 11.3614C20.5895 11.2528 20.625 11.1278 20.625 11.0002C20.625 10.8727 20.5895 10.7476 20.5225 10.6391C20.4555 10.5305 20.3596 10.4428 20.2455 10.3856L2.37052 1.44811Z" fill="#568159"/>
</svg>
