<svg width="524" height="145" viewBox="0 0 524 145" fill="none" xmlns="http://www.w3.org/2000/svg">
<g clip-path="url(#clip0_345_44453)">
<path d="M282.242 13.5C280.137 13.5 278.176 14.1104 276.522 15.1617C280.518 17.4587 283.507 21.3166 284.653 25.897C287.944 25.1373 290.652 22.8567 292 19.8356C290.334 16.103 286.593 13.5 282.242 13.5Z" fill="#C7DFC2"/>
<path d="M282.242 13.5C280.137 13.5 278.176 14.1104 276.523 15.1617C277.437 15.6872 278.297 16.295 279.096 16.9738C279.989 16.7311 280.929 16.6005 281.899 16.6005C285.728 16.6005 289.084 18.6164 290.969 21.6432C291.368 21.0783 291.715 20.4739 292 19.8355C290.334 16.103 286.593 13.5 282.242 13.5Z" fill="#568159"/>
<path d="M270.822 11.0222L270.812 11.0638L270.832 11.1022C271.184 11.8085 271.487 12.5438 271.74 13.3018C274.061 13.8208 276.205 14.8107 278.068 16.1656C279.374 15.6446 280.598 14.8557 281.655 13.7985C284.732 10.7217 285.537 6.23572 284.075 2.41857C280.258 0.957129 275.772 1.76186 272.695 4.83873C271.95 5.58416 271.339 6.41279 270.86 7.29416C271.153 8.40064 271.148 9.67424 270.822 11.0222Z" fill="#C7DFC2"/>
<path d="M270.822 11.0224L270.812 11.064L270.832 11.1023C271.184 11.8086 271.487 12.5439 271.74 13.3019C271.868 13.3304 271.994 13.3604 272.121 13.3917C272.424 11.1609 273.432 9.00803 275.147 7.29299C277.721 4.71932 281.28 3.73647 284.61 4.33881C284.492 3.6869 284.314 3.04365 284.075 2.41857C280.258 0.957129 275.772 1.76186 272.695 4.83873C271.95 5.58416 271.339 6.41279 270.86 7.29416C271.153 8.40076 271.148 9.67436 270.822 11.0224Z" fill="#568159"/>
<path d="M273.826 13.9099L281.046 6.68978C281.389 6.34653 281.389 5.79001 281.046 5.44688C280.703 5.10364 280.146 5.10364 279.803 5.44688L271.91 13.34C272.564 13.4933 273.203 13.6842 273.826 13.9099Z" fill="#3B6C43"/>
<path d="M286.837 18.957H281.078C281.551 19.5137 281.99 20.1007 282.39 20.7148H286.837C287.323 20.7148 287.716 20.3213 287.716 19.8359C287.716 19.3505 287.323 18.957 286.837 18.957Z" fill="#3B6C43"/>
<path d="M250.813 30.0644C250.813 20.5934 258.518 12.8882 267.989 12.8882C269.326 12.8882 270.627 13.0419 271.877 13.332C271.617 12.5499 271.305 11.7871 270.936 11.0499C271.517 8.64909 271.125 6.3733 269.637 4.88573C268.15 3.39815 265.874 3.00639 263.473 3.58659C256.039 -0.1265 246.043 1.71979 239.026 8.73756C232.008 15.7553 230.162 25.7512 233.875 33.1851C233.294 35.5859 233.686 37.8618 235.174 39.3493C236.661 40.8369 238.937 41.2286 241.338 40.6484C245.53 42.7421 250.536 43.068 255.363 41.6962C252.54 38.6342 250.813 34.5475 250.813 30.0644Z" fill="#F9D26F"/>
<path d="M240.184 40.5902C238.696 39.1026 238.305 36.8268 238.885 34.426C235.172 26.9922 237.018 16.9962 244.036 9.97845C249.24 4.7745 256.081 2.41528 262.301 3.05688C255.014 0.0791478 245.681 2.08259 239.025 8.73778C232.008 15.7556 230.162 25.7515 233.875 33.1855C233.294 35.5863 233.686 37.8621 235.174 39.3496C236.473 40.649 238.374 41.112 240.434 40.8217C240.349 40.7473 240.265 40.671 240.184 40.5902Z" fill="#F6BD41"/>
<path d="M267.989 47.3582C277.54 47.3582 285.282 39.6157 285.282 30.0648C285.282 20.514 277.54 12.7715 267.989 12.7715C258.438 12.7715 250.695 20.514 250.695 30.0648C250.695 39.6157 258.438 47.3582 267.989 47.3582Z" fill="#F6BD41"/>
<path d="M270.78 46.4713C271.672 45.9204 272.387 45.112 272.826 44.1513C271.311 44.6842 269.683 44.9752 267.988 44.9752C266.292 44.9752 264.663 44.6838 263.147 44.1504C263.591 45.1211 264.317 45.9353 265.222 46.4869C266.298 47.1431 266.686 48.5214 266.155 49.6648L264.609 52.9958C263.462 55.4656 265.265 58.2911 267.988 58.2911C270.711 58.2911 272.514 55.4656 271.368 52.9958L269.821 49.6642C269.286 48.5105 269.698 47.1395 270.78 46.4713Z" fill="#FEF0AE"/>
<path d="M266.292 52.7924L267.839 49.4613C268.37 48.3179 267.982 46.9397 266.906 46.2834C266.254 45.8859 265.697 45.3506 265.269 44.7203C264.542 44.5829 263.834 44.3914 263.148 44.1504C263.592 45.1211 264.318 45.9353 265.223 46.4869C266.299 47.1431 266.687 48.5214 266.156 49.6648L264.61 52.9958C263.463 55.4656 265.266 58.2911 267.989 58.2911C268.427 58.2911 268.842 58.217 269.224 58.0839C269.192 58.0729 269.162 58.0603 269.131 58.0485C266.718 57.7041 265.223 55.0943 266.292 52.7924Z" fill="#FEE97D"/>
<path d="M267.988 44.2131C275.642 44.2131 281.846 38.0089 281.846 30.3556C281.846 22.7023 275.642 16.498 267.988 16.498C260.335 16.498 254.131 22.7023 254.131 30.3556C254.131 38.0089 260.335 44.2131 267.988 44.2131Z" fill="#FFF5C6"/>
<path d="M257.895 30.3556C257.895 23.3528 263.116 17.5475 269.87 16.6264C269.255 16.5423 268.627 16.498 267.988 16.498C260.347 16.498 254.131 22.7145 254.131 30.3556C254.131 37.9967 260.347 44.2132 267.988 44.2132C268.627 44.2132 269.255 44.1688 269.87 44.0849C263.116 43.1637 257.895 37.3585 257.895 30.3556Z" fill="#FEF0AE"/>
<path d="M267.105 28.2305L259.375 20.5C258.933 20.8863 258.518 21.3016 258.132 21.7429L265.862 29.4733C266.096 28.9129 266.545 28.4641 267.105 28.2305Z" fill="#FCE08C"/>
<path d="M267.988 28.0532C268.3 28.0532 268.596 28.116 268.867 28.2284V17.2899C268.577 17.2705 268.284 17.2598 267.988 17.2598C267.693 17.2598 267.4 17.2705 267.109 17.2899V28.2284C267.38 28.116 267.677 28.0532 267.988 28.0532Z" fill="#FCE08C"/>
<path d="M265.686 30.3555C265.686 30.0442 265.749 29.7476 265.861 29.4766H254.923C254.903 29.7672 254.893 30.06 254.893 30.3555C254.893 30.6509 254.903 30.9438 254.923 31.2344H265.861C265.749 30.9633 265.686 30.6667 265.686 30.3555Z" fill="#FCE08C"/>
<path d="M270.114 29.4733L277.845 21.7429C277.458 21.3014 277.043 20.8861 276.602 20.5L268.871 28.2304C269.432 28.4639 269.881 28.9128 270.114 29.4733Z" fill="#FCE08C"/>
<path d="M265.862 31.2383L258.132 38.9687C258.518 39.4101 258.933 39.8254 259.375 40.2116L267.105 32.4812C266.545 32.2475 266.096 31.7988 265.862 31.2383Z" fill="#FCE08C"/>
<path d="M281.054 29.4766H270.115C270.228 29.7476 270.29 30.0442 270.29 30.3555C270.29 30.6667 270.228 30.9633 270.115 31.2344H281.054C281.073 30.9438 281.084 30.6509 281.084 30.3555C281.084 30.06 281.073 29.7672 281.054 29.4766Z" fill="#FCE08C"/>
<path d="M268.871 32.4813L276.602 40.2117C277.043 39.8254 277.458 39.4101 277.845 38.9688L270.114 31.2383C269.881 31.7988 269.432 32.2476 268.871 32.4813Z" fill="#FCE08C"/>
<path d="M267.988 32.6576C267.677 32.6576 267.38 32.5948 267.109 32.4824V43.4209C267.4 43.4403 267.693 43.4511 267.988 43.4511C268.284 43.4511 268.577 43.4403 268.867 43.4209V32.4824C268.596 32.5949 268.3 32.6576 267.988 32.6576Z" fill="#FCE08C"/>
<path d="M267.989 32.7757C269.325 32.7757 270.408 31.6924 270.408 30.3561C270.408 29.0198 269.325 27.9365 267.989 27.9365C266.652 27.9365 265.569 29.0198 265.569 30.3561C265.569 31.6924 266.652 32.7757 267.989 32.7757Z" fill="white"/>
<path d="M267.989 45.0921C259.864 45.0921 253.253 38.4814 253.253 30.3557C253.253 22.23 259.864 15.6191 267.989 15.6191C276.115 15.6191 282.726 22.2299 282.726 30.3556C282.726 38.4812 276.115 45.0921 267.989 45.0921ZM267.989 17.377C260.833 17.377 255.011 23.1992 255.011 30.3556C255.011 37.512 260.833 43.3342 267.989 43.3342C275.146 43.3342 280.968 37.512 280.968 30.3556C280.968 23.1992 275.146 17.377 267.989 17.377Z" fill="white"/>
</g>
<path d="M218.783 75.0479L221.367 80.0449L223.958 75.0479H225.455L222.023 81.2822V85.001H220.704V81.2822L217.272 75.0479H218.783ZM225.756 81.3848V81.2275C225.756 80.6943 225.833 80.1999 225.988 79.7441C226.143 79.2839 226.367 78.8851 226.658 78.5479C226.95 78.2061 227.303 77.9417 227.718 77.7549C228.132 77.5635 228.597 77.4678 229.112 77.4678C229.632 77.4678 230.099 77.5635 230.514 77.7549C230.933 77.9417 231.288 78.2061 231.58 78.5479C231.876 78.8851 232.102 79.2839 232.257 79.7441C232.412 80.1999 232.489 80.6943 232.489 81.2275V81.3848C232.489 81.918 232.412 82.4124 232.257 82.8682C232.102 83.3239 231.876 83.7227 231.58 84.0645C231.288 84.4017 230.935 84.666 230.521 84.8574C230.11 85.0443 229.646 85.1377 229.126 85.1377C228.606 85.1377 228.139 85.0443 227.725 84.8574C227.31 84.666 226.954 84.4017 226.658 84.0645C226.367 83.7227 226.143 83.3239 225.988 82.8682C225.833 82.4124 225.756 81.918 225.756 81.3848ZM227.021 81.2275V81.3848C227.021 81.7539 227.064 82.1025 227.15 82.4307C227.237 82.7542 227.367 83.0413 227.54 83.292C227.718 83.5426 227.939 83.7409 228.203 83.8867C228.467 84.028 228.775 84.0986 229.126 84.0986C229.472 84.0986 229.775 84.028 230.035 83.8867C230.299 83.7409 230.518 83.5426 230.691 83.292C230.865 83.0413 230.994 82.7542 231.081 82.4307C231.172 82.1025 231.218 81.7539 231.218 81.3848V81.2275C231.218 80.863 231.172 80.5189 231.081 80.1953C230.994 79.8672 230.862 79.5778 230.685 79.3271C230.511 79.0719 230.293 78.8714 230.028 78.7256C229.769 78.5798 229.463 78.5068 229.112 78.5068C228.766 78.5068 228.461 78.5798 228.196 78.7256C227.937 78.8714 227.718 79.0719 227.54 79.3271C227.367 79.5778 227.237 79.8672 227.15 80.1953C227.064 80.5189 227.021 80.863 227.021 81.2275ZM238.601 83.292V77.6045H239.872V85.001H238.662L238.601 83.292ZM238.84 81.7334L239.366 81.7197C239.366 82.2119 239.314 82.6676 239.209 83.0869C239.109 83.5016 238.945 83.8617 238.717 84.167C238.489 84.4723 238.19 84.7116 237.821 84.8848C237.452 85.0534 237.003 85.1377 236.475 85.1377C236.115 85.1377 235.784 85.0853 235.483 84.9805C235.187 84.8757 234.932 84.7139 234.718 84.4951C234.504 84.2764 234.337 83.9915 234.219 83.6406C234.105 83.2897 234.048 82.8682 234.048 82.376V77.6045H235.312V82.3896C235.312 82.7223 235.349 82.998 235.422 83.2168C235.499 83.431 235.602 83.6019 235.729 83.7295C235.862 83.8525 236.007 83.9391 236.167 83.9893C236.331 84.0394 236.5 84.0645 236.673 84.0645C237.211 84.0645 237.637 83.9619 237.951 83.7568C238.266 83.5472 238.491 83.2669 238.628 82.916C238.769 82.5605 238.84 82.1663 238.84 81.7334ZM246.537 79.1836V85.001H245.272V77.6045H246.469L246.537 79.1836ZM246.236 81.0225L245.71 81.002C245.715 80.4961 245.79 80.029 245.936 79.6006C246.081 79.1676 246.286 78.7917 246.551 78.4727C246.815 78.1536 247.13 77.9076 247.494 77.7344C247.863 77.5566 248.271 77.4678 248.718 77.4678C249.082 77.4678 249.41 77.5179 249.702 77.6182C249.994 77.7139 250.242 77.8688 250.447 78.083C250.657 78.2972 250.816 78.5752 250.926 78.917C251.035 79.2542 251.09 79.6667 251.09 80.1543V85.001H249.818V80.1406C249.818 79.7533 249.761 79.4434 249.647 79.2109C249.534 78.974 249.367 78.8031 249.148 78.6982C248.93 78.5889 248.661 78.5342 248.342 78.5342C248.027 78.5342 247.74 78.6003 247.48 78.7324C247.225 78.8646 247.004 79.0469 246.817 79.2793C246.635 79.5117 246.492 79.7783 246.387 80.0791C246.286 80.3753 246.236 80.6898 246.236 81.0225ZM252.676 81.3848V81.2275C252.676 80.6943 252.753 80.1999 252.908 79.7441C253.063 79.2839 253.286 78.8851 253.578 78.5479C253.87 78.2061 254.223 77.9417 254.638 77.7549C255.052 77.5635 255.517 77.4678 256.032 77.4678C256.552 77.4678 257.019 77.5635 257.434 77.7549C257.853 77.9417 258.208 78.2061 258.5 78.5479C258.796 78.8851 259.022 79.2839 259.177 79.7441C259.332 80.1999 259.409 80.6943 259.409 81.2275V81.3848C259.409 81.918 259.332 82.4124 259.177 82.8682C259.022 83.3239 258.796 83.7227 258.5 84.0645C258.208 84.4017 257.855 84.666 257.44 84.8574C257.03 85.0443 256.565 85.1377 256.046 85.1377C255.526 85.1377 255.059 85.0443 254.645 84.8574C254.23 84.666 253.874 84.4017 253.578 84.0645C253.286 83.7227 253.063 83.3239 252.908 82.8682C252.753 82.4124 252.676 81.918 252.676 81.3848ZM253.94 81.2275V81.3848C253.94 81.7539 253.984 82.1025 254.07 82.4307C254.157 82.7542 254.287 83.0413 254.46 83.292C254.638 83.5426 254.859 83.7409 255.123 83.8867C255.387 84.028 255.695 84.0986 256.046 84.0986C256.392 84.0986 256.695 84.028 256.955 83.8867C257.219 83.7409 257.438 83.5426 257.611 83.292C257.785 83.0413 257.914 82.7542 258.001 82.4307C258.092 82.1025 258.138 81.7539 258.138 81.3848V81.2275C258.138 80.863 258.092 80.5189 258.001 80.1953C257.914 79.8672 257.782 79.5778 257.604 79.3271C257.431 79.0719 257.213 78.8714 256.948 78.7256C256.688 78.5798 256.383 78.5068 256.032 78.5068C255.686 78.5068 255.381 78.5798 255.116 78.7256C254.856 78.8714 254.638 79.0719 254.46 79.3271C254.287 79.5778 254.157 79.8672 254.07 80.1953C253.984 80.5189 253.94 80.863 253.94 81.2275ZM264.092 77.6045V78.5752H260.093V77.6045H264.092ZM261.446 75.8066H262.711V83.1689C262.711 83.4196 262.75 83.6087 262.827 83.7363C262.905 83.8639 263.005 83.9482 263.128 83.9893C263.251 84.0303 263.383 84.0508 263.524 84.0508C263.629 84.0508 263.739 84.0417 263.853 84.0234C263.971 84.0007 264.06 83.9824 264.119 83.9688L264.126 85.001C264.026 85.0329 263.894 85.0625 263.729 85.0898C263.57 85.1217 263.376 85.1377 263.148 85.1377C262.839 85.1377 262.554 85.0762 262.294 84.9531C262.034 84.8301 261.827 84.625 261.672 84.3379C261.521 84.0462 261.446 83.6543 261.446 83.1621V75.8066ZM273.409 83.7363V79.9287C273.409 79.637 273.35 79.3841 273.231 79.1699C273.118 78.9512 272.944 78.7826 272.712 78.6641C272.479 78.5456 272.192 78.4863 271.851 78.4863C271.532 78.4863 271.251 78.541 271.01 78.6504C270.773 78.7598 270.586 78.9033 270.449 79.0811C270.317 79.2588 270.251 79.4502 270.251 79.6553H268.986C268.986 79.391 269.055 79.1289 269.191 78.8691C269.328 78.6094 269.524 78.3747 269.779 78.165C270.039 77.9508 270.349 77.7822 270.709 77.6592C271.074 77.5316 271.479 77.4678 271.926 77.4678C272.464 77.4678 272.938 77.5589 273.348 77.7412C273.762 77.9235 274.086 78.1992 274.318 78.5684C274.555 78.9329 274.674 79.391 274.674 79.9424V83.3877C274.674 83.6338 274.694 83.8958 274.735 84.1738C274.781 84.4518 274.847 84.6911 274.934 84.8916V85.001H273.614C273.55 84.8551 273.5 84.6615 273.464 84.4199C273.427 84.1738 273.409 83.946 273.409 83.7363ZM273.628 80.5166L273.642 81.4053H272.363C272.003 81.4053 271.682 81.4349 271.399 81.4941C271.117 81.5488 270.88 81.6331 270.688 81.7471C270.497 81.861 270.351 82.0046 270.251 82.1777C270.151 82.3464 270.101 82.5446 270.101 82.7725C270.101 83.0049 270.153 83.2168 270.258 83.4082C270.363 83.5996 270.52 83.7523 270.729 83.8662C270.944 83.9756 271.206 84.0303 271.516 84.0303C271.903 84.0303 272.245 83.9482 272.541 83.7842C272.837 83.6201 273.072 83.4196 273.245 83.1826C273.423 82.9456 273.519 82.7155 273.532 82.4922L274.072 83.1006C274.04 83.292 273.954 83.5039 273.812 83.7363C273.671 83.9688 273.482 84.1921 273.245 84.4062C273.013 84.6159 272.735 84.7913 272.411 84.9326C272.092 85.0693 271.732 85.1377 271.331 85.1377C270.83 85.1377 270.39 85.0397 270.012 84.8438C269.638 84.6478 269.346 84.3857 269.137 84.0576C268.932 83.7249 268.829 83.3535 268.829 82.9434C268.829 82.5469 268.907 82.1982 269.062 81.8975C269.216 81.5921 269.44 81.3392 269.731 81.1387C270.023 80.9336 270.374 80.7786 270.784 80.6738C271.194 80.569 271.652 80.5166 272.158 80.5166H273.628ZM281.325 83.5654V74.501H282.597V85.001H281.435L281.325 83.5654ZM276.349 81.3848V81.2412C276.349 80.6761 276.417 80.1634 276.554 79.7031C276.695 79.2383 276.893 78.8395 277.148 78.5068C277.408 78.1742 277.716 77.9189 278.071 77.7412C278.431 77.5589 278.832 77.4678 279.274 77.4678C279.739 77.4678 280.145 77.5498 280.491 77.7139C280.842 77.8734 281.138 78.1081 281.38 78.418C281.626 78.7233 281.82 79.0924 281.961 79.5254C282.102 79.9583 282.2 80.4482 282.255 80.9951V81.624C282.205 82.1663 282.107 82.654 281.961 83.0869C281.82 83.5199 281.626 83.889 281.38 84.1943C281.138 84.4997 280.842 84.7344 280.491 84.8984C280.14 85.0579 279.73 85.1377 279.261 85.1377C278.828 85.1377 278.431 85.0443 278.071 84.8574C277.716 84.6706 277.408 84.4085 277.148 84.0713C276.893 83.734 276.695 83.3376 276.554 82.8818C276.417 82.4215 276.349 81.9225 276.349 81.3848ZM277.62 81.2412V81.3848C277.62 81.7539 277.657 82.1003 277.729 82.4238C277.807 82.7474 277.925 83.0322 278.085 83.2783C278.244 83.5244 278.447 83.7181 278.693 83.8594C278.939 83.9961 279.233 84.0645 279.575 84.0645C279.994 84.0645 280.339 83.9756 280.607 83.7979C280.881 83.6201 281.1 83.3854 281.264 83.0938C281.428 82.8021 281.555 82.4854 281.646 82.1436V80.4961C281.592 80.2454 281.512 80.0039 281.407 79.7715C281.307 79.5345 281.175 79.3249 281.011 79.1426C280.851 78.9557 280.653 78.8076 280.416 78.6982C280.184 78.5889 279.908 78.5342 279.589 78.5342C279.243 78.5342 278.944 78.6071 278.693 78.7529C278.447 78.8942 278.244 79.0902 278.085 79.3408C277.925 79.5869 277.807 79.874 277.729 80.2021C277.657 80.5257 277.62 80.8721 277.62 81.2412ZM289.228 83.5654V74.501H290.499V85.001H289.337L289.228 83.5654ZM284.251 81.3848V81.2412C284.251 80.6761 284.319 80.1634 284.456 79.7031C284.597 79.2383 284.796 78.8395 285.051 78.5068C285.311 78.1742 285.618 77.9189 285.974 77.7412C286.334 77.5589 286.735 77.4678 287.177 77.4678C287.642 77.4678 288.047 77.5498 288.394 77.7139C288.744 77.8734 289.041 78.1081 289.282 78.418C289.528 78.7233 289.722 79.0924 289.863 79.5254C290.005 79.9583 290.103 80.4482 290.157 80.9951V81.624C290.107 82.1663 290.009 82.654 289.863 83.0869C289.722 83.5199 289.528 83.889 289.282 84.1943C289.041 84.4997 288.744 84.7344 288.394 84.8984C288.043 85.0579 287.632 85.1377 287.163 85.1377C286.73 85.1377 286.334 85.0443 285.974 84.8574C285.618 84.6706 285.311 84.4085 285.051 84.0713C284.796 83.734 284.597 83.3376 284.456 82.8818C284.319 82.4215 284.251 81.9225 284.251 81.3848ZM285.522 81.2412V81.3848C285.522 81.7539 285.559 82.1003 285.632 82.4238C285.709 82.7474 285.828 83.0322 285.987 83.2783C286.147 83.5244 286.35 83.7181 286.596 83.8594C286.842 83.9961 287.136 84.0645 287.478 84.0645C287.897 84.0645 288.241 83.9756 288.51 83.7979C288.783 83.6201 289.002 83.3854 289.166 83.0938C289.33 82.8021 289.458 82.4854 289.549 82.1436V80.4961C289.494 80.2454 289.414 80.0039 289.31 79.7715C289.209 79.5345 289.077 79.3249 288.913 79.1426C288.754 78.9557 288.555 78.8076 288.318 78.6982C288.086 78.5889 287.81 78.5342 287.491 78.5342C287.145 78.5342 286.846 78.6071 286.596 78.7529C286.35 78.8942 286.147 79.0902 285.987 79.3408C285.828 79.5869 285.709 79.874 285.632 80.2021C285.559 80.5257 285.522 80.8721 285.522 81.2412ZM295.537 85.1377C295.022 85.1377 294.555 85.0511 294.136 84.8779C293.721 84.7002 293.363 84.4518 293.062 84.1328C292.766 83.8138 292.538 83.4355 292.379 82.998C292.219 82.5605 292.14 82.082 292.14 81.5625V81.2754C292.14 80.6738 292.229 80.1383 292.406 79.6689C292.584 79.195 292.826 78.7939 293.131 78.4658C293.436 78.1377 293.783 77.8893 294.17 77.7207C294.557 77.5521 294.958 77.4678 295.373 77.4678C295.902 77.4678 296.357 77.5589 296.74 77.7412C297.128 77.9235 297.444 78.1787 297.69 78.5068C297.937 78.8304 298.119 79.2132 298.237 79.6553C298.356 80.0928 298.415 80.5713 298.415 81.0908V81.6582H292.892V80.626H297.15V80.5303C297.132 80.2021 297.064 79.8831 296.945 79.5732C296.831 79.2633 296.649 79.0081 296.398 78.8076C296.148 78.6071 295.806 78.5068 295.373 78.5068C295.086 78.5068 294.822 78.5684 294.58 78.6914C294.339 78.8099 294.131 78.9876 293.958 79.2246C293.785 79.4616 293.65 79.751 293.555 80.0928C293.459 80.4346 293.411 80.8288 293.411 81.2754V81.5625C293.411 81.9134 293.459 82.2438 293.555 82.5537C293.655 82.859 293.799 83.1279 293.985 83.3604C294.177 83.5928 294.407 83.7751 294.676 83.9072C294.949 84.0394 295.259 84.1055 295.605 84.1055C296.052 84.1055 296.43 84.0143 296.74 83.832C297.05 83.6497 297.321 83.4059 297.554 83.1006L298.319 83.709C298.16 83.9505 297.957 84.1807 297.711 84.3994C297.465 84.6182 297.162 84.7959 296.802 84.9326C296.446 85.0693 296.025 85.1377 295.537 85.1377ZM304.554 83.5654V74.501H305.825V85.001H304.663L304.554 83.5654ZM299.577 81.3848V81.2412C299.577 80.6761 299.646 80.1634 299.782 79.7031C299.924 79.2383 300.122 78.8395 300.377 78.5068C300.637 78.1742 300.944 77.9189 301.3 77.7412C301.66 77.5589 302.061 77.4678 302.503 77.4678C302.968 77.4678 303.373 77.5498 303.72 77.7139C304.071 77.8734 304.367 78.1081 304.608 78.418C304.854 78.7233 305.048 79.0924 305.189 79.5254C305.331 79.9583 305.429 80.4482 305.483 80.9951V81.624C305.433 82.1663 305.335 82.654 305.189 83.0869C305.048 83.5199 304.854 83.889 304.608 84.1943C304.367 84.4997 304.071 84.7344 303.72 84.8984C303.369 85.0579 302.959 85.1377 302.489 85.1377C302.056 85.1377 301.66 85.0443 301.3 84.8574C300.944 84.6706 300.637 84.4085 300.377 84.0713C300.122 83.734 299.924 83.3376 299.782 82.8818C299.646 82.4215 299.577 81.9225 299.577 81.3848ZM300.849 81.2412V81.3848C300.849 81.7539 300.885 82.1003 300.958 82.4238C301.035 82.7474 301.154 83.0322 301.313 83.2783C301.473 83.5244 301.676 83.7181 301.922 83.8594C302.168 83.9961 302.462 84.0645 302.804 84.0645C303.223 84.0645 303.567 83.9756 303.836 83.7979C304.109 83.6201 304.328 83.3854 304.492 83.0938C304.656 82.8021 304.784 82.4854 304.875 82.1436V80.4961C304.82 80.2454 304.741 80.0039 304.636 79.7715C304.535 79.5345 304.403 79.3249 304.239 79.1426C304.08 78.9557 303.882 78.8076 303.645 78.6982C303.412 78.5889 303.136 78.5342 302.817 78.5342C302.471 78.5342 302.173 78.6071 301.922 78.7529C301.676 78.8942 301.473 79.0902 301.313 79.3408C301.154 79.5869 301.035 79.874 300.958 80.2021C300.885 80.5257 300.849 80.8721 300.849 81.2412ZM233.132 105.736V101.929C233.132 101.637 233.073 101.384 232.954 101.17C232.84 100.951 232.667 100.783 232.435 100.664C232.202 100.546 231.915 100.486 231.573 100.486C231.254 100.486 230.974 100.541 230.732 100.65C230.495 100.76 230.309 100.903 230.172 101.081C230.04 101.259 229.974 101.45 229.974 101.655H228.709C228.709 101.391 228.777 101.129 228.914 100.869C229.051 100.609 229.247 100.375 229.502 100.165C229.762 99.9508 230.072 99.7822 230.432 99.6592C230.796 99.5316 231.202 99.4678 231.648 99.4678C232.186 99.4678 232.66 99.5589 233.07 99.7412C233.485 99.9235 233.809 100.199 234.041 100.568C234.278 100.933 234.396 101.391 234.396 101.942V105.388C234.396 105.634 234.417 105.896 234.458 106.174C234.504 106.452 234.57 106.691 234.656 106.892V107.001H233.337C233.273 106.855 233.223 106.661 233.187 106.42C233.15 106.174 233.132 105.946 233.132 105.736ZM233.351 102.517L233.364 103.405H232.086C231.726 103.405 231.405 103.435 231.122 103.494C230.84 103.549 230.603 103.633 230.411 103.747C230.22 103.861 230.074 104.005 229.974 104.178C229.873 104.346 229.823 104.545 229.823 104.772C229.823 105.005 229.876 105.217 229.98 105.408C230.085 105.6 230.243 105.752 230.452 105.866C230.666 105.976 230.928 106.03 231.238 106.03C231.626 106.03 231.967 105.948 232.264 105.784C232.56 105.62 232.795 105.42 232.968 105.183C233.146 104.946 233.241 104.715 233.255 104.492L233.795 105.101C233.763 105.292 233.676 105.504 233.535 105.736C233.394 105.969 233.205 106.192 232.968 106.406C232.735 106.616 232.457 106.791 232.134 106.933C231.815 107.069 231.455 107.138 231.054 107.138C230.552 107.138 230.113 107.04 229.734 106.844C229.361 106.648 229.069 106.386 228.859 106.058C228.654 105.725 228.552 105.354 228.552 104.943C228.552 104.547 228.629 104.198 228.784 103.897C228.939 103.592 229.162 103.339 229.454 103.139C229.746 102.934 230.097 102.779 230.507 102.674C230.917 102.569 231.375 102.517 231.881 102.517H233.351ZM241.048 105.565V96.501H242.319V107.001H241.157L241.048 105.565ZM236.071 103.385V103.241C236.071 102.676 236.14 102.163 236.276 101.703C236.418 101.238 236.616 100.84 236.871 100.507C237.131 100.174 237.438 99.9189 237.794 99.7412C238.154 99.5589 238.555 99.4678 238.997 99.4678C239.462 99.4678 239.868 99.5498 240.214 99.7139C240.565 99.8734 240.861 100.108 241.103 100.418C241.349 100.723 241.542 101.092 241.684 101.525C241.825 101.958 241.923 102.448 241.978 102.995V103.624C241.927 104.166 241.829 104.654 241.684 105.087C241.542 105.52 241.349 105.889 241.103 106.194C240.861 106.5 240.565 106.734 240.214 106.898C239.863 107.058 239.453 107.138 238.983 107.138C238.55 107.138 238.154 107.044 237.794 106.857C237.438 106.671 237.131 106.409 236.871 106.071C236.616 105.734 236.418 105.338 236.276 104.882C236.14 104.422 236.071 103.923 236.071 103.385ZM237.343 103.241V103.385C237.343 103.754 237.379 104.1 237.452 104.424C237.53 104.747 237.648 105.032 237.808 105.278C237.967 105.524 238.17 105.718 238.416 105.859C238.662 105.996 238.956 106.064 239.298 106.064C239.717 106.064 240.061 105.976 240.33 105.798C240.604 105.62 240.822 105.385 240.986 105.094C241.15 104.802 241.278 104.485 241.369 104.144V102.496C241.314 102.245 241.235 102.004 241.13 101.771C241.03 101.535 240.897 101.325 240.733 101.143C240.574 100.956 240.376 100.808 240.139 100.698C239.906 100.589 239.631 100.534 239.312 100.534C238.965 100.534 238.667 100.607 238.416 100.753C238.17 100.894 237.967 101.09 237.808 101.341C237.648 101.587 237.53 101.874 237.452 102.202C237.379 102.526 237.343 102.872 237.343 103.241ZM248.95 105.565V96.501H250.222V107.001H249.06L248.95 105.565ZM243.974 103.385V103.241C243.974 102.676 244.042 102.163 244.179 101.703C244.32 101.238 244.518 100.84 244.773 100.507C245.033 100.174 245.341 99.9189 245.696 99.7412C246.056 99.5589 246.457 99.4678 246.899 99.4678C247.364 99.4678 247.77 99.5498 248.116 99.7139C248.467 99.8734 248.763 100.108 249.005 100.418C249.251 100.723 249.445 101.092 249.586 101.525C249.727 101.958 249.825 102.448 249.88 102.995V103.624C249.83 104.166 249.732 104.654 249.586 105.087C249.445 105.52 249.251 105.889 249.005 106.194C248.763 106.5 248.467 106.734 248.116 106.898C247.765 107.058 247.355 107.138 246.886 107.138C246.453 107.138 246.056 107.044 245.696 106.857C245.341 106.671 245.033 106.409 244.773 106.071C244.518 105.734 244.32 105.338 244.179 104.882C244.042 104.422 243.974 103.923 243.974 103.385ZM245.245 103.241V103.385C245.245 103.754 245.282 104.1 245.354 104.424C245.432 104.747 245.55 105.032 245.71 105.278C245.869 105.524 246.072 105.718 246.318 105.859C246.564 105.996 246.858 106.064 247.2 106.064C247.619 106.064 247.964 105.976 248.232 105.798C248.506 105.62 248.725 105.385 248.889 105.094C249.053 104.802 249.18 104.485 249.271 104.144V102.496C249.217 102.245 249.137 102.004 249.032 101.771C248.932 101.535 248.8 101.325 248.636 101.143C248.476 100.956 248.278 100.808 248.041 100.698C247.809 100.589 247.533 100.534 247.214 100.534C246.868 100.534 246.569 100.607 246.318 100.753C246.072 100.894 245.869 101.09 245.71 101.341C245.55 101.587 245.432 101.874 245.354 102.202C245.282 102.526 245.245 102.872 245.245 103.241ZM251.855 103.385V103.228C251.855 102.694 251.933 102.2 252.088 101.744C252.243 101.284 252.466 100.885 252.758 100.548C253.049 100.206 253.403 99.9417 253.817 99.7549C254.232 99.5635 254.697 99.4678 255.212 99.4678C255.731 99.4678 256.199 99.5635 256.613 99.7549C257.033 99.9417 257.388 100.206 257.68 100.548C257.976 100.885 258.201 101.284 258.356 101.744C258.511 102.2 258.589 102.694 258.589 103.228V103.385C258.589 103.918 258.511 104.412 258.356 104.868C258.201 105.324 257.976 105.723 257.68 106.064C257.388 106.402 257.035 106.666 256.62 106.857C256.21 107.044 255.745 107.138 255.226 107.138C254.706 107.138 254.239 107.044 253.824 106.857C253.41 106.666 253.054 106.402 252.758 106.064C252.466 105.723 252.243 105.324 252.088 104.868C251.933 104.412 251.855 103.918 251.855 103.385ZM253.12 103.228V103.385C253.12 103.754 253.163 104.103 253.25 104.431C253.337 104.754 253.466 105.041 253.64 105.292C253.817 105.543 254.038 105.741 254.303 105.887C254.567 106.028 254.875 106.099 255.226 106.099C255.572 106.099 255.875 106.028 256.135 105.887C256.399 105.741 256.618 105.543 256.791 105.292C256.964 105.041 257.094 104.754 257.181 104.431C257.272 104.103 257.317 103.754 257.317 103.385V103.228C257.317 102.863 257.272 102.519 257.181 102.195C257.094 101.867 256.962 101.578 256.784 101.327C256.611 101.072 256.392 100.871 256.128 100.726C255.868 100.58 255.563 100.507 255.212 100.507C254.866 100.507 254.56 100.58 254.296 100.726C254.036 100.871 253.817 101.072 253.64 101.327C253.466 101.578 253.337 101.867 253.25 102.195C253.163 102.519 253.12 102.863 253.12 103.228ZM261.439 101.184V107.001H260.175V99.6045H261.371L261.439 101.184ZM261.139 103.022L260.612 103.002C260.617 102.496 260.692 102.029 260.838 101.601C260.984 101.168 261.189 100.792 261.453 100.473C261.717 100.154 262.032 99.9076 262.396 99.7344C262.766 99.5566 263.174 99.4678 263.62 99.4678C263.985 99.4678 264.313 99.5179 264.604 99.6182C264.896 99.7139 265.145 99.8688 265.35 100.083C265.559 100.297 265.719 100.575 265.828 100.917C265.938 101.254 265.992 101.667 265.992 102.154V107.001H264.721V102.141C264.721 101.753 264.664 101.443 264.55 101.211C264.436 100.974 264.27 100.803 264.051 100.698C263.832 100.589 263.563 100.534 263.244 100.534C262.93 100.534 262.643 100.6 262.383 100.732C262.128 100.865 261.907 101.047 261.72 101.279C261.537 101.512 261.394 101.778 261.289 102.079C261.189 102.375 261.139 102.69 261.139 103.022ZM272.22 105.039C272.22 104.857 272.179 104.688 272.097 104.533C272.019 104.374 271.857 104.23 271.611 104.103C271.37 103.97 271.005 103.856 270.518 103.761C270.107 103.674 269.736 103.572 269.403 103.453C269.075 103.335 268.795 103.191 268.562 103.022C268.335 102.854 268.159 102.656 268.036 102.428C267.913 102.2 267.852 101.933 267.852 101.628C267.852 101.336 267.915 101.061 268.043 100.801C268.175 100.541 268.36 100.311 268.597 100.11C268.838 99.9098 269.128 99.7526 269.465 99.6387C269.802 99.5247 270.178 99.4678 270.593 99.4678C271.185 99.4678 271.691 99.5726 272.11 99.7822C272.53 99.9919 272.851 100.272 273.074 100.623C273.298 100.969 273.409 101.354 273.409 101.778H272.145C272.145 101.573 272.083 101.375 271.96 101.184C271.841 100.988 271.666 100.826 271.434 100.698C271.206 100.571 270.925 100.507 270.593 100.507C270.242 100.507 269.957 100.562 269.738 100.671C269.524 100.776 269.367 100.91 269.267 101.074C269.171 101.238 269.123 101.411 269.123 101.594C269.123 101.73 269.146 101.854 269.191 101.963C269.242 102.068 269.328 102.166 269.451 102.257C269.574 102.343 269.747 102.425 269.971 102.503C270.194 102.58 270.479 102.658 270.825 102.735C271.431 102.872 271.93 103.036 272.322 103.228C272.714 103.419 273.006 103.654 273.197 103.932C273.389 104.21 273.484 104.547 273.484 104.943C273.484 105.267 273.416 105.563 273.279 105.832C273.147 106.101 272.953 106.333 272.698 106.529C272.448 106.721 272.147 106.871 271.796 106.98C271.45 107.085 271.06 107.138 270.627 107.138C269.975 107.138 269.424 107.021 268.973 106.789C268.521 106.557 268.18 106.256 267.947 105.887C267.715 105.518 267.599 105.128 267.599 104.718H268.87C268.888 105.064 268.989 105.34 269.171 105.545C269.353 105.745 269.576 105.889 269.841 105.976C270.105 106.058 270.367 106.099 270.627 106.099C270.973 106.099 271.263 106.053 271.495 105.962C271.732 105.871 271.912 105.745 272.035 105.586C272.158 105.426 272.22 105.244 272.22 105.039ZM280.696 106.235L282.754 99.6045H284.107L281.141 108.143C281.072 108.325 280.981 108.521 280.867 108.73C280.758 108.945 280.617 109.147 280.443 109.339C280.27 109.53 280.061 109.685 279.814 109.804C279.573 109.927 279.284 109.988 278.946 109.988C278.846 109.988 278.718 109.975 278.563 109.947C278.409 109.92 278.299 109.897 278.235 109.879L278.229 108.854C278.265 108.858 278.322 108.863 278.399 108.867C278.481 108.876 278.538 108.881 278.57 108.881C278.857 108.881 279.101 108.842 279.302 108.765C279.502 108.692 279.671 108.566 279.808 108.389C279.949 108.215 280.07 107.976 280.17 107.671L280.696 106.235ZM279.186 99.6045L281.106 105.347L281.435 106.68L280.525 107.145L277.805 99.6045H279.186ZM288.223 107.138C287.708 107.138 287.241 107.051 286.821 106.878C286.407 106.7 286.049 106.452 285.748 106.133C285.452 105.814 285.224 105.436 285.064 104.998C284.905 104.561 284.825 104.082 284.825 103.562V103.275C284.825 102.674 284.914 102.138 285.092 101.669C285.27 101.195 285.511 100.794 285.816 100.466C286.122 100.138 286.468 99.8893 286.855 99.7207C287.243 99.5521 287.644 99.4678 288.059 99.4678C288.587 99.4678 289.043 99.5589 289.426 99.7412C289.813 99.9235 290.13 100.179 290.376 100.507C290.622 100.83 290.804 101.213 290.923 101.655C291.041 102.093 291.101 102.571 291.101 103.091V103.658H285.577V102.626H289.836V102.53C289.818 102.202 289.749 101.883 289.631 101.573C289.517 101.263 289.335 101.008 289.084 100.808C288.833 100.607 288.492 100.507 288.059 100.507C287.771 100.507 287.507 100.568 287.266 100.691C287.024 100.81 286.817 100.988 286.644 101.225C286.47 101.462 286.336 101.751 286.24 102.093C286.145 102.435 286.097 102.829 286.097 103.275V103.562C286.097 103.913 286.145 104.244 286.24 104.554C286.34 104.859 286.484 105.128 286.671 105.36C286.862 105.593 287.092 105.775 287.361 105.907C287.635 106.039 287.945 106.105 288.291 106.105C288.738 106.105 289.116 106.014 289.426 105.832C289.736 105.65 290.007 105.406 290.239 105.101L291.005 105.709C290.845 105.951 290.643 106.181 290.396 106.399C290.15 106.618 289.847 106.796 289.487 106.933C289.132 107.069 288.71 107.138 288.223 107.138ZM295.674 99.6045V100.575H291.675V99.6045H295.674ZM293.028 97.8066H294.293V105.169C294.293 105.42 294.332 105.609 294.409 105.736C294.487 105.864 294.587 105.948 294.71 105.989C294.833 106.03 294.965 106.051 295.106 106.051C295.211 106.051 295.321 106.042 295.435 106.023C295.553 106.001 295.642 105.982 295.701 105.969L295.708 107.001C295.608 107.033 295.476 107.062 295.312 107.09C295.152 107.122 294.958 107.138 294.73 107.138C294.421 107.138 294.136 107.076 293.876 106.953C293.616 106.83 293.409 106.625 293.254 106.338C293.104 106.046 293.028 105.654 293.028 105.162V97.8066Z" fill="#141414"/>
<defs>
<clipPath id="clip0_345_44453">
<rect width="60" height="60" fill="white" transform="translate(232 0.000976562)"/>
</clipPath>
</defs>
</svg>
