<svg width="133" height="124" viewBox="0 0 133 124" fill="none" xmlns="http://www.w3.org/2000/svg">
<g clip-path="url(#clip0_320_28939)">
<path d="M107.925 53.5853C107.612 53.0848 107.064 52.7783 106.475 52.7783H28.1592C27.5701 52.7783 27.022 53.0848 26.712 53.5853C26.4022 54.0858 26.3716 54.7123 26.6372 55.2401C29.0275 60.0241 33.8319 62.9934 39.1778 62.9934H95.4558C100.798 62.9934 105.603 60.0241 108 55.2435C108.259 54.7123 108.235 54.0892 107.925 53.5853Z" fill="#DCE0E6"/>
<path d="M71.9845 22.4864C72.2637 21.8564 72.4238 21.1618 72.4238 20.4298C72.4238 17.6138 70.1322 15.3223 67.3162 15.3223C64.5002 15.3223 62.2087 17.6138 62.2087 20.4298C62.2087 21.1619 62.3688 21.8565 62.6479 22.4864C47.2199 24.6077 35.0367 37.0293 33.4738 52.7775H101.155C99.5924 37.0361 87.4059 24.6077 71.9845 22.4864ZM65.726 32.3439C56.2022 32.9739 47.9996 39.1913 44.8362 48.1841C44.5911 48.8821 43.9305 49.3213 43.2291 49.3213C43.0419 49.3213 42.8512 49.2907 42.664 49.226C41.7786 48.9127 41.3122 47.9423 41.622 47.0536C45.2381 36.7704 54.6122 29.6642 65.5015 28.9456C66.4037 28.8877 67.2482 29.5925 67.3129 30.5323C67.3742 31.4723 66.6658 32.2826 65.726 32.3439Z" fill="#CFD5DB"/>
</g>
<path d="M11.1016 86.0469V96H9.80273V86.0469H11.1016ZM14.3008 86.0469V87.127H6.61035V86.0469H14.3008ZM16.8506 85.5V96H15.5859V85.5H16.8506ZM16.5498 92.0215L16.0234 92.001C16.028 91.4951 16.1032 91.028 16.249 90.5996C16.3949 90.1667 16.5999 89.7907 16.8643 89.4717C17.1286 89.1527 17.443 88.9066 17.8076 88.7334C18.1768 88.5557 18.5846 88.4668 19.0312 88.4668C19.3958 88.4668 19.724 88.5169 20.0156 88.6172C20.3073 88.7129 20.5557 88.8678 20.7607 89.082C20.9704 89.2962 21.1299 89.5742 21.2393 89.916C21.3486 90.2533 21.4033 90.6657 21.4033 91.1533V96H20.1318V91.1396C20.1318 90.7523 20.0749 90.4424 19.9609 90.21C19.847 89.973 19.6807 89.8021 19.4619 89.6973C19.2432 89.5879 18.9743 89.5332 18.6553 89.5332C18.3408 89.5332 18.0537 89.5993 17.7939 89.7314C17.5387 89.8636 17.3177 90.0459 17.1309 90.2783C16.9486 90.5107 16.805 90.7773 16.7002 91.0781C16.5999 91.3743 16.5498 91.6888 16.5498 92.0215ZM26.3662 96.1367C25.8512 96.1367 25.3841 96.0501 24.9648 95.877C24.5501 95.6992 24.1924 95.4508 23.8916 95.1318C23.5954 94.8128 23.3675 94.4346 23.208 93.9971C23.0485 93.5596 22.9688 93.0811 22.9688 92.5615V92.2744C22.9688 91.6729 23.0576 91.1374 23.2354 90.668C23.4131 90.194 23.6546 89.793 23.96 89.4648C24.2653 89.1367 24.6117 88.8883 24.999 88.7197C25.3864 88.5511 25.7874 88.4668 26.2021 88.4668C26.7308 88.4668 27.1865 88.5579 27.5693 88.7402C27.9567 88.9225 28.2734 89.1777 28.5195 89.5059C28.7656 89.8294 28.9479 90.2122 29.0664 90.6543C29.1849 91.0918 29.2441 91.5703 29.2441 92.0898V92.6572H23.7207V91.625H27.9795V91.5293C27.9613 91.2012 27.8929 90.8822 27.7744 90.5723C27.6605 90.2624 27.4782 90.0072 27.2275 89.8066C26.9769 89.6061 26.6351 89.5059 26.2021 89.5059C25.915 89.5059 25.6507 89.5674 25.4092 89.6904C25.1676 89.8089 24.9603 89.9867 24.7871 90.2236C24.6139 90.4606 24.4795 90.75 24.3838 91.0918C24.2881 91.4336 24.2402 91.8278 24.2402 92.2744V92.5615C24.2402 92.9124 24.2881 93.2428 24.3838 93.5527C24.484 93.8581 24.6276 94.127 24.8145 94.3594C25.0059 94.5918 25.236 94.7741 25.5049 94.9062C25.7783 95.0384 26.0882 95.1045 26.4346 95.1045C26.8812 95.1045 27.2594 95.0133 27.5693 94.8311C27.8792 94.6488 28.1504 94.4049 28.3828 94.0996L29.1484 94.708C28.9889 94.9495 28.7861 95.1797 28.54 95.3984C28.2939 95.6172 27.9909 95.7949 27.6309 95.9316C27.2754 96.0684 26.8538 96.1367 26.3662 96.1367ZM38.8555 94.5645V85.5H40.127V96H38.9648L38.8555 94.5645ZM33.8789 92.3838V92.2402C33.8789 91.6751 33.9473 91.1624 34.084 90.7021C34.2253 90.2373 34.4235 89.8385 34.6787 89.5059C34.9385 89.1732 35.2461 88.918 35.6016 88.7402C35.9616 88.5579 36.3626 88.4668 36.8047 88.4668C37.2695 88.4668 37.6751 88.5488 38.0215 88.7129C38.3724 88.8724 38.6686 89.1071 38.9102 89.417C39.1562 89.7223 39.3499 90.0915 39.4912 90.5244C39.6325 90.9574 39.7305 91.4473 39.7852 91.9941V92.623C39.735 93.1654 39.637 93.653 39.4912 94.0859C39.3499 94.5189 39.1562 94.888 38.9102 95.1934C38.6686 95.4987 38.3724 95.7334 38.0215 95.8975C37.6706 96.057 37.2604 96.1367 36.791 96.1367C36.3581 96.1367 35.9616 96.0433 35.6016 95.8564C35.2461 95.6696 34.9385 95.4076 34.6787 95.0703C34.4235 94.7331 34.2253 94.3366 34.084 93.8809C33.9473 93.4206 33.8789 92.9215 33.8789 92.3838ZM35.1504 92.2402V92.3838C35.1504 92.7529 35.1868 93.0993 35.2598 93.4229C35.3372 93.7464 35.4557 94.0312 35.6152 94.2773C35.7747 94.5234 35.9775 94.7171 36.2236 94.8584C36.4697 94.9951 36.7637 95.0635 37.1055 95.0635C37.5247 95.0635 37.8688 94.9746 38.1377 94.7969C38.4111 94.6191 38.6299 94.3844 38.7939 94.0928C38.958 93.8011 39.0856 93.4844 39.1768 93.1426V91.4951C39.1221 91.2445 39.0423 91.0029 38.9375 90.7705C38.8372 90.5335 38.7051 90.3239 38.541 90.1416C38.3815 89.9548 38.1833 89.8066 37.9463 89.6973C37.7139 89.5879 37.4382 89.5332 37.1191 89.5332C36.7728 89.5332 36.4743 89.6061 36.2236 89.752C35.9775 89.8932 35.7747 90.0892 35.6152 90.3398C35.4557 90.5859 35.3372 90.873 35.2598 91.2012C35.1868 91.5247 35.1504 91.8711 35.1504 92.2402ZM43.4697 88.6035V96H42.1982V88.6035H43.4697ZM42.1025 86.6416C42.1025 86.4365 42.1641 86.2633 42.2871 86.1221C42.4147 85.9808 42.6016 85.9102 42.8477 85.9102C43.0892 85.9102 43.2738 85.9808 43.4014 86.1221C43.5335 86.2633 43.5996 86.4365 43.5996 86.6416C43.5996 86.8376 43.5335 87.0062 43.4014 87.1475C43.2738 87.2842 43.0892 87.3525 42.8477 87.3525C42.6016 87.3525 42.4147 87.2842 42.2871 87.1475C42.1641 87.0062 42.1025 86.8376 42.1025 86.6416ZM49.8066 94.0381C49.8066 93.8558 49.7656 93.6872 49.6836 93.5322C49.6061 93.3727 49.4443 93.2292 49.1982 93.1016C48.9567 92.9694 48.5921 92.8555 48.1045 92.7598C47.6943 92.6732 47.3229 92.5706 46.9902 92.4521C46.6621 92.3337 46.3818 92.1901 46.1494 92.0215C45.9215 91.8529 45.7461 91.6546 45.623 91.4268C45.5 91.1989 45.4385 90.9323 45.4385 90.627C45.4385 90.3353 45.5023 90.0596 45.6299 89.7998C45.762 89.54 45.9466 89.3099 46.1836 89.1094C46.4251 88.9089 46.7145 88.7516 47.0518 88.6377C47.389 88.5238 47.765 88.4668 48.1797 88.4668C48.7721 88.4668 49.278 88.5716 49.6973 88.7812C50.1165 88.9909 50.4378 89.2712 50.6611 89.6221C50.8844 89.9684 50.9961 90.3535 50.9961 90.7773H49.7314C49.7314 90.5723 49.6699 90.374 49.5469 90.1826C49.4284 89.9867 49.2529 89.8249 49.0205 89.6973C48.7926 89.5697 48.5124 89.5059 48.1797 89.5059C47.8288 89.5059 47.5439 89.5605 47.3252 89.6699C47.111 89.7747 46.9538 89.9092 46.8535 90.0732C46.7578 90.2373 46.71 90.4105 46.71 90.5928C46.71 90.7295 46.7327 90.8525 46.7783 90.9619C46.8285 91.0667 46.915 91.1647 47.0381 91.2559C47.1611 91.3424 47.3343 91.4245 47.5576 91.502C47.7809 91.5794 48.0658 91.6569 48.4121 91.7344C49.0182 91.8711 49.5173 92.0352 49.9092 92.2266C50.3011 92.418 50.5928 92.6527 50.7842 92.9307C50.9756 93.2087 51.0713 93.5459 51.0713 93.9424C51.0713 94.266 51.0029 94.5622 50.8662 94.8311C50.734 95.0999 50.5404 95.3324 50.2852 95.5283C50.0345 95.7197 49.7337 95.8701 49.3828 95.9795C49.0365 96.0843 48.6468 96.1367 48.2139 96.1367C47.5622 96.1367 47.0107 96.0205 46.5596 95.7881C46.1084 95.5557 45.7666 95.2549 45.5342 94.8857C45.3018 94.5166 45.1855 94.127 45.1855 93.7168H46.457C46.4753 94.0632 46.5755 94.3389 46.7578 94.5439C46.9401 94.7445 47.1634 94.888 47.4277 94.9746C47.6921 95.0566 47.9541 95.0977 48.2139 95.0977C48.5602 95.0977 48.8496 95.0521 49.082 94.9609C49.319 94.8698 49.499 94.7445 49.6221 94.585C49.7451 94.4255 49.8066 94.2432 49.8066 94.0381ZM53.9971 85.5V96H52.7324V85.5H53.9971ZM53.6963 92.0215L53.1699 92.001C53.1745 91.4951 53.2497 91.028 53.3955 90.5996C53.5413 90.1667 53.7464 89.7907 54.0107 89.4717C54.2751 89.1527 54.5895 88.9066 54.9541 88.7334C55.3232 88.5557 55.7311 88.4668 56.1777 88.4668C56.5423 88.4668 56.8704 88.5169 57.1621 88.6172C57.4538 88.7129 57.7021 88.8678 57.9072 89.082C58.1169 89.2962 58.2764 89.5742 58.3857 89.916C58.4951 90.2533 58.5498 90.6657 58.5498 91.1533V96H57.2783V91.1396C57.2783 90.7523 57.2214 90.4424 57.1074 90.21C56.9935 89.973 56.8271 89.8021 56.6084 89.6973C56.3896 89.5879 56.1208 89.5332 55.8018 89.5332C55.4873 89.5332 55.2002 89.5993 54.9404 89.7314C54.6852 89.8636 54.4642 90.0459 54.2773 90.2783C54.0951 90.5107 53.9515 90.7773 53.8467 91.0781C53.7464 91.3743 53.6963 91.6888 53.6963 92.0215ZM63.5127 96.1367C62.9977 96.1367 62.5306 96.0501 62.1113 95.877C61.6966 95.6992 61.3389 95.4508 61.0381 95.1318C60.7419 94.8128 60.514 94.4346 60.3545 93.9971C60.195 93.5596 60.1152 93.0811 60.1152 92.5615V92.2744C60.1152 91.6729 60.2041 91.1374 60.3818 90.668C60.5596 90.194 60.8011 89.793 61.1064 89.4648C61.4118 89.1367 61.7581 88.8883 62.1455 88.7197C62.5329 88.5511 62.9339 88.4668 63.3486 88.4668C63.8773 88.4668 64.333 88.5579 64.7158 88.7402C65.1032 88.9225 65.4199 89.1777 65.666 89.5059C65.9121 89.8294 66.0944 90.2122 66.2129 90.6543C66.3314 91.0918 66.3906 91.5703 66.3906 92.0898V92.6572H60.8672V91.625H65.126V91.5293C65.1077 91.2012 65.0394 90.8822 64.9209 90.5723C64.807 90.2624 64.6247 90.0072 64.374 89.8066C64.1234 89.6061 63.7816 89.5059 63.3486 89.5059C63.0615 89.5059 62.7972 89.5674 62.5557 89.6904C62.3141 89.8089 62.1068 89.9867 61.9336 90.2236C61.7604 90.4606 61.626 90.75 61.5303 91.0918C61.4346 91.4336 61.3867 91.8278 61.3867 92.2744V92.5615C61.3867 92.9124 61.4346 93.2428 61.5303 93.5527C61.6305 93.8581 61.7741 94.127 61.9609 94.3594C62.1523 94.5918 62.3825 94.7741 62.6514 94.9062C62.9248 95.0384 63.2347 95.1045 63.5811 95.1045C64.0277 95.1045 64.4059 95.0133 64.7158 94.8311C65.0257 94.6488 65.2969 94.4049 65.5293 94.0996L66.2949 94.708C66.1354 94.9495 65.9326 95.1797 65.6865 95.3984C65.4404 95.6172 65.1374 95.7949 64.7773 95.9316C64.4219 96.0684 64.0003 96.1367 63.5127 96.1367ZM72.1738 94.0381C72.1738 93.8558 72.1328 93.6872 72.0508 93.5322C71.9733 93.3727 71.8115 93.2292 71.5654 93.1016C71.3239 92.9694 70.9593 92.8555 70.4717 92.7598C70.0615 92.6732 69.6901 92.5706 69.3574 92.4521C69.0293 92.3337 68.749 92.1901 68.5166 92.0215C68.2887 91.8529 68.1133 91.6546 67.9902 91.4268C67.8672 91.1989 67.8057 90.9323 67.8057 90.627C67.8057 90.3353 67.8695 90.0596 67.9971 89.7998C68.1292 89.54 68.3138 89.3099 68.5508 89.1094C68.7923 88.9089 69.0817 88.7516 69.4189 88.6377C69.7562 88.5238 70.1322 88.4668 70.5469 88.4668C71.1393 88.4668 71.6452 88.5716 72.0645 88.7812C72.4837 88.9909 72.805 89.2712 73.0283 89.6221C73.2516 89.9684 73.3633 90.3535 73.3633 90.7773H72.0986C72.0986 90.5723 72.0371 90.374 71.9141 90.1826C71.7956 89.9867 71.6201 89.8249 71.3877 89.6973C71.1598 89.5697 70.8796 89.5059 70.5469 89.5059C70.196 89.5059 69.9111 89.5605 69.6924 89.6699C69.4782 89.7747 69.321 89.9092 69.2207 90.0732C69.125 90.2373 69.0771 90.4105 69.0771 90.5928C69.0771 90.7295 69.0999 90.8525 69.1455 90.9619C69.1956 91.0667 69.2822 91.1647 69.4053 91.2559C69.5283 91.3424 69.7015 91.4245 69.9248 91.502C70.1481 91.5794 70.4329 91.6569 70.7793 91.7344C71.3854 91.8711 71.8844 92.0352 72.2764 92.2266C72.6683 92.418 72.96 92.6527 73.1514 92.9307C73.3428 93.2087 73.4385 93.5459 73.4385 93.9424C73.4385 94.266 73.3701 94.5622 73.2334 94.8311C73.1012 95.0999 72.9076 95.3324 72.6523 95.5283C72.4017 95.7197 72.1009 95.8701 71.75 95.9795C71.4036 96.0843 71.014 96.1367 70.5811 96.1367C69.9294 96.1367 69.3779 96.0205 68.9268 95.7881C68.4756 95.5557 68.1338 95.2549 67.9014 94.8857C67.6689 94.5166 67.5527 94.127 67.5527 93.7168H68.8242C68.8424 94.0632 68.9427 94.3389 69.125 94.5439C69.3073 94.7445 69.5306 94.888 69.7949 94.9746C70.0592 95.0566 70.3213 95.0977 70.5811 95.0977C70.9274 95.0977 71.2168 95.0521 71.4492 94.9609C71.6862 94.8698 71.8662 94.7445 71.9893 94.585C72.1123 94.4255 72.1738 94.2432 72.1738 94.0381ZM80.6504 95.2344L82.708 88.6035H84.0615L81.0947 97.1416C81.0264 97.3239 80.9352 97.5199 80.8213 97.7295C80.7119 97.9437 80.5706 98.1465 80.3975 98.3379C80.2243 98.5293 80.0146 98.6842 79.7686 98.8027C79.527 98.9258 79.2376 98.9873 78.9004 98.9873C78.8001 98.9873 78.6725 98.9736 78.5176 98.9463C78.3626 98.9189 78.2533 98.8962 78.1895 98.8779L78.1826 97.8525C78.2191 97.8571 78.276 97.8617 78.3535 97.8662C78.4355 97.8753 78.4925 97.8799 78.5244 97.8799C78.8115 97.8799 79.0553 97.8411 79.2559 97.7637C79.4564 97.6908 79.625 97.5654 79.7617 97.3877C79.903 97.2145 80.0238 96.9753 80.124 96.6699L80.6504 95.2344ZM79.1396 88.6035L81.0605 94.3457L81.3887 95.6787L80.4795 96.1436L77.7588 88.6035H79.1396ZM84.7588 92.3838V92.2266C84.7588 91.6934 84.8363 91.1989 84.9912 90.7432C85.1462 90.2829 85.3695 89.8841 85.6611 89.5469C85.9528 89.2051 86.306 88.9408 86.7207 88.7539C87.1354 88.5625 87.6003 88.4668 88.1152 88.4668C88.6348 88.4668 89.1019 88.5625 89.5166 88.7539C89.9359 88.9408 90.2913 89.2051 90.583 89.5469C90.8792 89.8841 91.1048 90.2829 91.2598 90.7432C91.4147 91.1989 91.4922 91.6934 91.4922 92.2266V92.3838C91.4922 92.917 91.4147 93.4115 91.2598 93.8672C91.1048 94.3229 90.8792 94.7217 90.583 95.0635C90.2913 95.4007 89.9382 95.665 89.5234 95.8564C89.1133 96.0433 88.6484 96.1367 88.1289 96.1367C87.6094 96.1367 87.1423 96.0433 86.7275 95.8564C86.3128 95.665 85.9574 95.4007 85.6611 95.0635C85.3695 94.7217 85.1462 94.3229 84.9912 93.8672C84.8363 93.4115 84.7588 92.917 84.7588 92.3838ZM86.0234 92.2266V92.3838C86.0234 92.7529 86.0667 93.1016 86.1533 93.4297C86.2399 93.7533 86.3698 94.0404 86.543 94.291C86.7207 94.5417 86.9417 94.7399 87.2061 94.8857C87.4704 95.027 87.778 95.0977 88.1289 95.0977C88.4753 95.0977 88.7783 95.027 89.0381 94.8857C89.3024 94.7399 89.5212 94.5417 89.6943 94.291C89.8675 94.0404 89.9974 93.7533 90.084 93.4297C90.1751 93.1016 90.2207 92.7529 90.2207 92.3838V92.2266C90.2207 91.862 90.1751 91.5179 90.084 91.1943C89.9974 90.8662 89.8652 90.5768 89.6875 90.3262C89.5143 90.071 89.2956 89.8704 89.0312 89.7246C88.7715 89.5788 88.4661 89.5059 88.1152 89.5059C87.7689 89.5059 87.4635 89.5788 87.1992 89.7246C86.9395 89.8704 86.7207 90.071 86.543 90.3262C86.3698 90.5768 86.2399 90.8662 86.1533 91.1943C86.0667 91.5179 86.0234 91.862 86.0234 92.2266ZM97.6035 94.291V88.6035H98.875V96H97.665L97.6035 94.291ZM97.8428 92.7324L98.3691 92.7188C98.3691 93.2109 98.3167 93.6667 98.2119 94.0859C98.1117 94.5007 97.9476 94.8607 97.7197 95.166C97.4919 95.4714 97.1934 95.7106 96.8242 95.8838C96.4551 96.0524 96.0062 96.1367 95.4775 96.1367C95.1175 96.1367 94.7871 96.0843 94.4863 95.9795C94.1901 95.8747 93.9349 95.7129 93.7207 95.4941C93.5065 95.2754 93.3402 94.9906 93.2217 94.6396C93.1077 94.2887 93.0508 93.8672 93.0508 93.375V88.6035H94.3154V93.3887C94.3154 93.7214 94.3519 93.9971 94.4248 94.2158C94.5023 94.43 94.6048 94.6009 94.7324 94.7285C94.8646 94.8516 95.0104 94.9382 95.1699 94.9883C95.334 95.0384 95.5026 95.0635 95.6758 95.0635C96.2135 95.0635 96.6396 94.9609 96.9541 94.7559C97.2686 94.5462 97.4941 94.266 97.6309 93.915C97.7721 93.5596 97.8428 93.1654 97.8428 92.7324ZM108.637 94.7354V90.9277C108.637 90.6361 108.577 90.3831 108.459 90.1689C108.345 89.9502 108.172 89.7816 107.939 89.6631C107.707 89.5446 107.42 89.4854 107.078 89.4854C106.759 89.4854 106.479 89.54 106.237 89.6494C106 89.7588 105.813 89.9023 105.677 90.0801C105.545 90.2578 105.479 90.4492 105.479 90.6543H104.214C104.214 90.39 104.282 90.1279 104.419 89.8682C104.556 89.6084 104.752 89.3737 105.007 89.1641C105.267 88.9499 105.576 88.7812 105.937 88.6582C106.301 88.5306 106.707 88.4668 107.153 88.4668C107.691 88.4668 108.165 88.5579 108.575 88.7402C108.99 88.9225 109.313 89.1982 109.546 89.5674C109.783 89.932 109.901 90.39 109.901 90.9414V94.3867C109.901 94.6328 109.922 94.8949 109.963 95.1729C110.008 95.4508 110.075 95.6901 110.161 95.8906V96H108.842C108.778 95.8542 108.728 95.6605 108.691 95.4189C108.655 95.1729 108.637 94.945 108.637 94.7354ZM108.855 91.5156L108.869 92.4043H107.591C107.231 92.4043 106.91 92.4339 106.627 92.4932C106.344 92.5479 106.107 92.6322 105.916 92.7461C105.725 92.86 105.579 93.0036 105.479 93.1768C105.378 93.3454 105.328 93.5436 105.328 93.7715C105.328 94.0039 105.381 94.2158 105.485 94.4072C105.59 94.5986 105.747 94.7513 105.957 94.8652C106.171 94.9746 106.433 95.0293 106.743 95.0293C107.131 95.0293 107.472 94.9473 107.769 94.7832C108.065 94.6191 108.299 94.4186 108.473 94.1816C108.65 93.9447 108.746 93.7145 108.76 93.4912L109.3 94.0996C109.268 94.291 109.181 94.5029 109.04 94.7354C108.899 94.9678 108.71 95.1911 108.473 95.4053C108.24 95.6149 107.962 95.7904 107.639 95.9316C107.32 96.0684 106.96 96.1367 106.559 96.1367C106.057 96.1367 105.618 96.0387 105.239 95.8428C104.866 95.6468 104.574 95.3848 104.364 95.0566C104.159 94.724 104.057 94.3525 104.057 93.9424C104.057 93.5459 104.134 93.1973 104.289 92.8965C104.444 92.5911 104.667 92.3382 104.959 92.1377C105.251 91.9326 105.602 91.7777 106.012 91.6729C106.422 91.568 106.88 91.5156 107.386 91.5156H108.855ZM116.553 94.5645V85.5H117.824V96H116.662L116.553 94.5645ZM111.576 92.3838V92.2402C111.576 91.6751 111.645 91.1624 111.781 90.7021C111.923 90.2373 112.121 89.8385 112.376 89.5059C112.636 89.1732 112.943 88.918 113.299 88.7402C113.659 88.5579 114.06 88.4668 114.502 88.4668C114.967 88.4668 115.372 88.5488 115.719 88.7129C116.07 88.8724 116.366 89.1071 116.607 89.417C116.854 89.7223 117.047 90.0915 117.188 90.5244C117.33 90.9574 117.428 91.4473 117.482 91.9941V92.623C117.432 93.1654 117.334 93.653 117.188 94.0859C117.047 94.5189 116.854 94.888 116.607 95.1934C116.366 95.4987 116.07 95.7334 115.719 95.8975C115.368 96.057 114.958 96.1367 114.488 96.1367C114.055 96.1367 113.659 96.0433 113.299 95.8564C112.943 95.6696 112.636 95.4076 112.376 95.0703C112.121 94.7331 111.923 94.3366 111.781 93.8809C111.645 93.4206 111.576 92.9215 111.576 92.3838ZM112.848 92.2402V92.3838C112.848 92.7529 112.884 93.0993 112.957 93.4229C113.035 93.7464 113.153 94.0312 113.312 94.2773C113.472 94.5234 113.675 94.7171 113.921 94.8584C114.167 94.9951 114.461 95.0635 114.803 95.0635C115.222 95.0635 115.566 94.9746 115.835 94.7969C116.108 94.6191 116.327 94.3844 116.491 94.0928C116.655 93.8011 116.783 93.4844 116.874 93.1426V91.4951C116.819 91.2445 116.74 91.0029 116.635 90.7705C116.535 90.5335 116.402 90.3239 116.238 90.1416C116.079 89.9548 115.881 89.8066 115.644 89.6973C115.411 89.5879 115.135 89.5332 114.816 89.5332C114.47 89.5332 114.172 89.6061 113.921 89.752C113.675 89.8932 113.472 90.0892 113.312 90.3398C113.153 90.5859 113.035 90.873 112.957 91.2012C112.884 91.5247 112.848 91.8711 112.848 92.2402ZM124.455 94.5645V85.5H125.727V96H124.564L124.455 94.5645ZM119.479 92.3838V92.2402C119.479 91.6751 119.547 91.1624 119.684 90.7021C119.825 90.2373 120.023 89.8385 120.278 89.5059C120.538 89.1732 120.846 88.918 121.201 88.7402C121.561 88.5579 121.962 88.4668 122.404 88.4668C122.869 88.4668 123.275 88.5488 123.621 88.7129C123.972 88.8724 124.268 89.1071 124.51 89.417C124.756 89.7223 124.95 90.0915 125.091 90.5244C125.232 90.9574 125.33 91.4473 125.385 91.9941V92.623C125.335 93.1654 125.237 93.653 125.091 94.0859C124.95 94.5189 124.756 94.888 124.51 95.1934C124.268 95.4987 123.972 95.7334 123.621 95.8975C123.27 96.057 122.86 96.1367 122.391 96.1367C121.958 96.1367 121.561 96.0433 121.201 95.8564C120.846 95.6696 120.538 95.4076 120.278 95.0703C120.023 94.7331 119.825 94.3366 119.684 93.8809C119.547 93.4206 119.479 92.9215 119.479 92.3838ZM120.75 92.2402V92.3838C120.75 92.7529 120.786 93.0993 120.859 93.4229C120.937 93.7464 121.055 94.0312 121.215 94.2773C121.374 94.5234 121.577 94.7171 121.823 94.8584C122.069 94.9951 122.363 95.0635 122.705 95.0635C123.124 95.0635 123.468 94.9746 123.737 94.7969C124.011 94.6191 124.229 94.3844 124.394 94.0928C124.558 93.8011 124.685 93.4844 124.776 93.1426V91.4951C124.722 91.2445 124.642 91.0029 124.537 90.7705C124.437 90.5335 124.305 90.3239 124.141 90.1416C123.981 89.9548 123.783 89.8066 123.546 89.6973C123.313 89.5879 123.038 89.5332 122.719 89.5332C122.372 89.5332 122.074 89.6061 121.823 89.752C121.577 89.8932 121.374 90.0892 121.215 90.3398C121.055 90.5859 120.937 90.873 120.859 91.2012C120.786 91.5247 120.75 91.8711 120.75 92.2402ZM2.94629 116.688L4.84668 110.604H5.68066L5.5166 111.813L3.58203 118H2.76855L2.94629 116.688ZM1.66797 110.604L3.28809 116.756L3.4043 118H2.5498L0.40332 110.604H1.66797ZM7.49902 116.708L9.04395 110.604H10.3018L8.15527 118H7.30762L7.49902 116.708ZM5.86523 110.604L7.72461 116.585L7.93652 118H7.12988L5.14062 111.8L4.97656 110.604H5.86523ZM12.9746 110.604V118H11.7031V110.604H12.9746ZM11.6074 108.642C11.6074 108.437 11.6689 108.263 11.792 108.122C11.9196 107.981 12.1064 107.91 12.3525 107.91C12.5941 107.91 12.7786 107.981 12.9062 108.122C13.0384 108.263 13.1045 108.437 13.1045 108.642C13.1045 108.838 13.0384 109.006 12.9062 109.147C12.7786 109.284 12.5941 109.353 12.3525 109.353C12.1064 109.353 11.9196 109.284 11.792 109.147C11.6689 109.006 11.6074 108.838 11.6074 108.642ZM16.3789 107.5V118H15.1074V107.5H16.3789ZM19.7832 107.5V118H18.5117V107.5H19.7832ZM25.2793 107.5H26.5508V116.564L26.4414 118H25.2793V107.5ZM31.5479 114.24V114.384C31.5479 114.922 31.484 115.421 31.3564 115.881C31.2288 116.337 31.042 116.733 30.7959 117.07C30.5498 117.408 30.249 117.67 29.8936 117.856C29.5381 118.043 29.1302 118.137 28.6699 118.137C28.2005 118.137 27.7881 118.057 27.4326 117.897C27.0817 117.733 26.7855 117.499 26.5439 117.193C26.3024 116.888 26.1087 116.519 25.9629 116.086C25.8216 115.653 25.7236 115.165 25.6689 114.623V113.994C25.7236 113.447 25.8216 112.957 25.9629 112.524C26.1087 112.091 26.3024 111.722 26.5439 111.417C26.7855 111.107 27.0817 110.872 27.4326 110.713C27.7835 110.549 28.1914 110.467 28.6562 110.467C29.1211 110.467 29.5335 110.558 29.8936 110.74C30.2536 110.918 30.5544 111.173 30.7959 111.506C31.042 111.839 31.2288 112.237 31.3564 112.702C31.484 113.162 31.5479 113.675 31.5479 114.24ZM30.2764 114.384V114.24C30.2764 113.871 30.2422 113.525 30.1738 113.201C30.1055 112.873 29.9961 112.586 29.8457 112.34C29.6953 112.089 29.4971 111.893 29.251 111.752C29.0049 111.606 28.7018 111.533 28.3418 111.533C28.0228 111.533 27.7448 111.588 27.5078 111.697C27.2754 111.807 27.0771 111.955 26.9131 112.142C26.749 112.324 26.6146 112.534 26.5098 112.771C26.4095 113.003 26.3343 113.244 26.2842 113.495V115.143C26.3571 115.462 26.4756 115.769 26.6396 116.065C26.8083 116.357 27.0316 116.596 27.3096 116.783C27.5921 116.97 27.9408 117.063 28.3555 117.063C28.6973 117.063 28.9889 116.995 29.2305 116.858C29.4766 116.717 29.6748 116.523 29.8252 116.277C29.9801 116.031 30.0941 115.746 30.167 115.423C30.2399 115.099 30.2764 114.753 30.2764 114.384ZM36.2168 118.137C35.7018 118.137 35.2347 118.05 34.8154 117.877C34.4007 117.699 34.043 117.451 33.7422 117.132C33.446 116.813 33.2181 116.435 33.0586 115.997C32.8991 115.56 32.8193 115.081 32.8193 114.562V114.274C32.8193 113.673 32.9082 113.137 33.0859 112.668C33.2637 112.194 33.5052 111.793 33.8105 111.465C34.1159 111.137 34.4622 110.888 34.8496 110.72C35.237 110.551 35.638 110.467 36.0527 110.467C36.5814 110.467 37.0371 110.558 37.4199 110.74C37.8073 110.923 38.124 111.178 38.3701 111.506C38.6162 111.829 38.7985 112.212 38.917 112.654C39.0355 113.092 39.0947 113.57 39.0947 114.09V114.657H33.5713V113.625H37.8301V113.529C37.8118 113.201 37.7435 112.882 37.625 112.572C37.5111 112.262 37.3288 112.007 37.0781 111.807C36.8275 111.606 36.4857 111.506 36.0527 111.506C35.7656 111.506 35.5013 111.567 35.2598 111.69C35.0182 111.809 34.8109 111.987 34.6377 112.224C34.4645 112.461 34.3301 112.75 34.2344 113.092C34.1387 113.434 34.0908 113.828 34.0908 114.274V114.562C34.0908 114.912 34.1387 115.243 34.2344 115.553C34.3346 115.858 34.4782 116.127 34.665 116.359C34.8564 116.592 35.0866 116.774 35.3555 116.906C35.6289 117.038 35.9388 117.104 36.2852 117.104C36.7318 117.104 37.11 117.013 37.4199 116.831C37.7298 116.649 38.001 116.405 38.2334 116.1L38.999 116.708C38.8395 116.95 38.6367 117.18 38.3906 117.398C38.1445 117.617 37.8415 117.795 37.4814 117.932C37.126 118.068 36.7044 118.137 36.2168 118.137ZM48.7061 116.564V107.5H49.9775V118H48.8154L48.7061 116.564ZM43.7295 114.384V114.24C43.7295 113.675 43.7979 113.162 43.9346 112.702C44.0758 112.237 44.2741 111.839 44.5293 111.506C44.7891 111.173 45.0967 110.918 45.4521 110.74C45.8122 110.558 46.2132 110.467 46.6553 110.467C47.1201 110.467 47.5257 110.549 47.8721 110.713C48.223 110.872 48.5192 111.107 48.7607 111.417C49.0068 111.722 49.2005 112.091 49.3418 112.524C49.4831 112.957 49.5811 113.447 49.6357 113.994V114.623C49.5856 115.165 49.4876 115.653 49.3418 116.086C49.2005 116.519 49.0068 116.888 48.7607 117.193C48.5192 117.499 48.223 117.733 47.8721 117.897C47.5212 118.057 47.111 118.137 46.6416 118.137C46.2087 118.137 45.8122 118.043 45.4521 117.856C45.0967 117.67 44.7891 117.408 44.5293 117.07C44.2741 116.733 44.0758 116.337 43.9346 115.881C43.7979 115.421 43.7295 114.922 43.7295 114.384ZM45.001 114.24V114.384C45.001 114.753 45.0374 115.099 45.1104 115.423C45.1878 115.746 45.3063 116.031 45.4658 116.277C45.6253 116.523 45.8281 116.717 46.0742 116.858C46.3203 116.995 46.6143 117.063 46.9561 117.063C47.3753 117.063 47.7194 116.975 47.9883 116.797C48.2617 116.619 48.4805 116.384 48.6445 116.093C48.8086 115.801 48.9362 115.484 49.0273 115.143V113.495C48.9727 113.244 48.8929 113.003 48.7881 112.771C48.6878 112.534 48.5557 112.324 48.3916 112.142C48.2321 111.955 48.0339 111.807 47.7969 111.697C47.5645 111.588 47.2887 111.533 46.9697 111.533C46.6234 111.533 46.3249 111.606 46.0742 111.752C45.8281 111.893 45.6253 112.089 45.4658 112.34C45.3063 112.586 45.1878 112.873 45.1104 113.201C45.0374 113.525 45.001 113.871 45.001 114.24ZM53.3203 110.604V118H52.0488V110.604H53.3203ZM51.9531 108.642C51.9531 108.437 52.0146 108.263 52.1377 108.122C52.2653 107.981 52.4521 107.91 52.6982 107.91C52.9398 107.91 53.1243 107.981 53.252 108.122C53.3841 108.263 53.4502 108.437 53.4502 108.642C53.4502 108.838 53.3841 109.006 53.252 109.147C53.1243 109.284 52.9398 109.353 52.6982 109.353C52.4521 109.353 52.2653 109.284 52.1377 109.147C52.0146 109.006 51.9531 108.838 51.9531 108.642ZM59.6572 116.038C59.6572 115.856 59.6162 115.687 59.5342 115.532C59.4567 115.373 59.2949 115.229 59.0488 115.102C58.8073 114.969 58.4427 114.855 57.9551 114.76C57.5449 114.673 57.1735 114.571 56.8408 114.452C56.5127 114.334 56.2324 114.19 56 114.021C55.7721 113.853 55.5967 113.655 55.4736 113.427C55.3506 113.199 55.2891 112.932 55.2891 112.627C55.2891 112.335 55.3529 112.06 55.4805 111.8C55.6126 111.54 55.7972 111.31 56.0342 111.109C56.2757 110.909 56.5651 110.752 56.9023 110.638C57.2396 110.524 57.6156 110.467 58.0303 110.467C58.6227 110.467 59.1286 110.572 59.5479 110.781C59.9671 110.991 60.2884 111.271 60.5117 111.622C60.735 111.968 60.8467 112.354 60.8467 112.777H59.582C59.582 112.572 59.5205 112.374 59.3975 112.183C59.279 111.987 59.1035 111.825 58.8711 111.697C58.6432 111.57 58.363 111.506 58.0303 111.506C57.6794 111.506 57.3945 111.561 57.1758 111.67C56.9616 111.775 56.8044 111.909 56.7041 112.073C56.6084 112.237 56.5605 112.41 56.5605 112.593C56.5605 112.729 56.5833 112.853 56.6289 112.962C56.679 113.067 56.7656 113.165 56.8887 113.256C57.0117 113.342 57.1849 113.424 57.4082 113.502C57.6315 113.579 57.9163 113.657 58.2627 113.734C58.8688 113.871 59.3678 114.035 59.7598 114.227C60.1517 114.418 60.4434 114.653 60.6348 114.931C60.8262 115.209 60.9219 115.546 60.9219 115.942C60.9219 116.266 60.8535 116.562 60.7168 116.831C60.5846 117.1 60.391 117.332 60.1357 117.528C59.8851 117.72 59.5843 117.87 59.2334 117.979C58.887 118.084 58.4974 118.137 58.0645 118.137C57.4128 118.137 56.8613 118.021 56.4102 117.788C55.959 117.556 55.6172 117.255 55.3848 116.886C55.1523 116.517 55.0361 116.127 55.0361 115.717H56.3076C56.3258 116.063 56.4261 116.339 56.6084 116.544C56.7907 116.744 57.014 116.888 57.2783 116.975C57.5426 117.057 57.8047 117.098 58.0645 117.098C58.4108 117.098 58.7002 117.052 58.9326 116.961C59.1696 116.87 59.3496 116.744 59.4727 116.585C59.5957 116.425 59.6572 116.243 59.6572 116.038ZM63.8477 112.025V120.844H62.5762V110.604H63.7383L63.8477 112.025ZM68.8311 114.24V114.384C68.8311 114.922 68.7673 115.421 68.6396 115.881C68.512 116.337 68.3252 116.733 68.0791 117.07C67.8376 117.408 67.5391 117.67 67.1836 117.856C66.8281 118.043 66.4202 118.137 65.96 118.137C65.4906 118.137 65.0758 118.059 64.7158 117.904C64.3558 117.749 64.0505 117.524 63.7998 117.228C63.5492 116.931 63.3486 116.576 63.1982 116.161C63.0524 115.746 62.9521 115.279 62.8975 114.76V113.994C62.9521 113.447 63.0547 112.957 63.2051 112.524C63.3555 112.091 63.5537 111.722 63.7998 111.417C64.0505 111.107 64.3535 110.872 64.709 110.713C65.0645 110.549 65.4746 110.467 65.9395 110.467C66.4043 110.467 66.8167 110.558 67.1768 110.74C67.5368 110.918 67.8398 111.173 68.0859 111.506C68.332 111.839 68.5166 112.237 68.6396 112.702C68.7673 113.162 68.8311 113.675 68.8311 114.24ZM67.5596 114.384V114.24C67.5596 113.871 67.5208 113.525 67.4434 113.201C67.3659 112.873 67.2451 112.586 67.0811 112.34C66.9215 112.089 66.7165 111.893 66.4658 111.752C66.2152 111.606 65.9167 111.533 65.5703 111.533C65.2513 111.533 64.9733 111.588 64.7363 111.697C64.5039 111.807 64.3057 111.955 64.1416 112.142C63.9775 112.324 63.8431 112.534 63.7383 112.771C63.638 113.003 63.5628 113.244 63.5127 113.495V115.266C63.6038 115.585 63.7314 115.885 63.8955 116.168C64.0596 116.446 64.2783 116.672 64.5518 116.845C64.8252 117.013 65.1693 117.098 65.584 117.098C65.9258 117.098 66.2197 117.027 66.4658 116.886C66.7165 116.74 66.9215 116.542 67.0811 116.291C67.2451 116.04 67.3659 115.753 67.4434 115.43C67.5208 115.102 67.5596 114.753 67.5596 114.384ZM71.8184 107.5V118H70.5469V107.5H71.8184ZM78.21 116.735V112.928C78.21 112.636 78.1507 112.383 78.0322 112.169C77.9183 111.95 77.7451 111.782 77.5127 111.663C77.2803 111.545 76.9932 111.485 76.6514 111.485C76.3324 111.485 76.0521 111.54 75.8105 111.649C75.5736 111.759 75.3867 111.902 75.25 112.08C75.1178 112.258 75.0518 112.449 75.0518 112.654H73.7871C73.7871 112.39 73.8555 112.128 73.9922 111.868C74.1289 111.608 74.3249 111.374 74.5801 111.164C74.8398 110.95 75.1497 110.781 75.5098 110.658C75.8743 110.531 76.2799 110.467 76.7266 110.467C77.2643 110.467 77.7383 110.558 78.1484 110.74C78.5632 110.923 78.8867 111.198 79.1191 111.567C79.3561 111.932 79.4746 112.39 79.4746 112.941V116.387C79.4746 116.633 79.4951 116.895 79.5361 117.173C79.5817 117.451 79.6478 117.69 79.7344 117.891V118H78.415C78.3512 117.854 78.3011 117.66 78.2646 117.419C78.2282 117.173 78.21 116.945 78.21 116.735ZM78.4287 113.516L78.4424 114.404H77.1641C76.804 114.404 76.4827 114.434 76.2002 114.493C75.9176 114.548 75.6807 114.632 75.4893 114.746C75.2979 114.86 75.152 115.004 75.0518 115.177C74.9515 115.345 74.9014 115.544 74.9014 115.771C74.9014 116.004 74.9538 116.216 75.0586 116.407C75.1634 116.599 75.3206 116.751 75.5303 116.865C75.7445 116.975 76.0065 117.029 76.3164 117.029C76.7038 117.029 77.0456 116.947 77.3418 116.783C77.638 116.619 77.8727 116.419 78.0459 116.182C78.2236 115.945 78.3193 115.715 78.333 115.491L78.873 116.1C78.8411 116.291 78.7546 116.503 78.6133 116.735C78.472 116.968 78.2829 117.191 78.0459 117.405C77.8135 117.615 77.5355 117.79 77.2119 117.932C76.8929 118.068 76.5329 118.137 76.1318 118.137C75.6305 118.137 75.1908 118.039 74.8125 117.843C74.4388 117.647 74.1471 117.385 73.9375 117.057C73.7324 116.724 73.6299 116.353 73.6299 115.942C73.6299 115.546 73.7074 115.197 73.8623 114.896C74.0173 114.591 74.2406 114.338 74.5322 114.138C74.8239 113.933 75.1748 113.778 75.585 113.673C75.9951 113.568 76.4531 113.516 76.959 113.516H78.4287ZM83.4326 117.234L85.4902 110.604H86.8438L83.877 119.142C83.8086 119.324 83.7174 119.52 83.6035 119.729C83.4941 119.944 83.3529 120.146 83.1797 120.338C83.0065 120.529 82.7969 120.684 82.5508 120.803C82.3092 120.926 82.0199 120.987 81.6826 120.987C81.5824 120.987 81.4548 120.974 81.2998 120.946C81.1449 120.919 81.0355 120.896 80.9717 120.878L80.9648 119.853C81.0013 119.857 81.0583 119.862 81.1357 119.866C81.2178 119.875 81.2747 119.88 81.3066 119.88C81.5938 119.88 81.8376 119.841 82.0381 119.764C82.2386 119.691 82.4072 119.565 82.5439 119.388C82.6852 119.215 82.806 118.975 82.9062 118.67L83.4326 117.234ZM81.9219 110.604L83.8428 116.346L84.1709 117.679L83.2617 118.144L80.541 110.604H81.9219ZM90.959 118.137C90.444 118.137 89.9769 118.05 89.5576 117.877C89.1429 117.699 88.7852 117.451 88.4844 117.132C88.1882 116.813 87.9603 116.435 87.8008 115.997C87.6413 115.56 87.5615 115.081 87.5615 114.562V114.274C87.5615 113.673 87.6504 113.137 87.8281 112.668C88.0059 112.194 88.2474 111.793 88.5527 111.465C88.8581 111.137 89.2044 110.888 89.5918 110.72C89.9792 110.551 90.3802 110.467 90.7949 110.467C91.3236 110.467 91.7793 110.558 92.1621 110.74C92.5495 110.923 92.8662 111.178 93.1123 111.506C93.3584 111.829 93.5407 112.212 93.6592 112.654C93.7777 113.092 93.8369 113.57 93.8369 114.09V114.657H88.3135V113.625H92.5723V113.529C92.554 113.201 92.4857 112.882 92.3672 112.572C92.2533 112.262 92.071 112.007 91.8203 111.807C91.5697 111.606 91.2279 111.506 90.7949 111.506C90.5078 111.506 90.2435 111.567 90.002 111.69C89.7604 111.809 89.5531 111.987 89.3799 112.224C89.2067 112.461 89.0723 112.75 88.9766 113.092C88.8809 113.434 88.833 113.828 88.833 114.274V114.562C88.833 114.912 88.8809 115.243 88.9766 115.553C89.0768 115.858 89.2204 116.127 89.4072 116.359C89.5986 116.592 89.8288 116.774 90.0977 116.906C90.3711 117.038 90.681 117.104 91.0273 117.104C91.474 117.104 91.8522 117.013 92.1621 116.831C92.472 116.649 92.7432 116.405 92.9756 116.1L93.7412 116.708C93.5817 116.95 93.3789 117.18 93.1328 117.398C92.8867 117.617 92.5837 117.795 92.2236 117.932C91.8682 118.068 91.4466 118.137 90.959 118.137ZM99.9756 116.564V107.5H101.247V118H100.085L99.9756 116.564ZM94.999 114.384V114.24C94.999 113.675 95.0674 113.162 95.2041 112.702C95.3454 112.237 95.5436 111.839 95.7988 111.506C96.0586 111.173 96.3662 110.918 96.7217 110.74C97.0817 110.558 97.4827 110.467 97.9248 110.467C98.3896 110.467 98.7952 110.549 99.1416 110.713C99.4925 110.872 99.7887 111.107 100.03 111.417C100.276 111.722 100.47 112.091 100.611 112.524C100.753 112.957 100.851 113.447 100.905 113.994V114.623C100.855 115.165 100.757 115.653 100.611 116.086C100.47 116.519 100.276 116.888 100.03 117.193C99.7887 117.499 99.4925 117.733 99.1416 117.897C98.7907 118.057 98.3805 118.137 97.9111 118.137C97.4782 118.137 97.0817 118.043 96.7217 117.856C96.3662 117.67 96.0586 117.408 95.7988 117.07C95.5436 116.733 95.3454 116.337 95.2041 115.881C95.0674 115.421 94.999 114.922 94.999 114.384ZM96.2705 114.24V114.384C96.2705 114.753 96.307 115.099 96.3799 115.423C96.4574 115.746 96.5758 116.031 96.7354 116.277C96.8949 116.523 97.0977 116.717 97.3438 116.858C97.5898 116.995 97.8838 117.063 98.2256 117.063C98.6449 117.063 98.9889 116.975 99.2578 116.797C99.5312 116.619 99.75 116.384 99.9141 116.093C100.078 115.801 100.206 115.484 100.297 115.143V113.495C100.242 113.244 100.162 113.003 100.058 112.771C99.9574 112.534 99.8252 112.324 99.6611 112.142C99.5016 111.955 99.3034 111.807 99.0664 111.697C98.834 111.588 98.5583 111.533 98.2393 111.533C97.8929 111.533 97.5944 111.606 97.3438 111.752C97.0977 111.893 96.8949 112.089 96.7354 112.34C96.5758 112.586 96.4574 112.873 96.3799 113.201C96.307 113.525 96.2705 113.871 96.2705 114.24ZM107.953 107.5V118H106.688V107.5H107.953ZM107.652 114.021L107.126 114.001C107.131 113.495 107.206 113.028 107.352 112.6C107.497 112.167 107.702 111.791 107.967 111.472C108.231 111.153 108.546 110.907 108.91 110.733C109.279 110.556 109.687 110.467 110.134 110.467C110.498 110.467 110.826 110.517 111.118 110.617C111.41 110.713 111.658 110.868 111.863 111.082C112.073 111.296 112.232 111.574 112.342 111.916C112.451 112.253 112.506 112.666 112.506 113.153V118H111.234V113.14C111.234 112.752 111.177 112.442 111.063 112.21C110.95 111.973 110.783 111.802 110.564 111.697C110.346 111.588 110.077 111.533 109.758 111.533C109.443 111.533 109.156 111.599 108.896 111.731C108.641 111.864 108.42 112.046 108.233 112.278C108.051 112.511 107.908 112.777 107.803 113.078C107.702 113.374 107.652 113.689 107.652 114.021ZM117.469 118.137C116.954 118.137 116.487 118.05 116.067 117.877C115.653 117.699 115.295 117.451 114.994 117.132C114.698 116.813 114.47 116.435 114.311 115.997C114.151 115.56 114.071 115.081 114.071 114.562V114.274C114.071 113.673 114.16 113.137 114.338 112.668C114.516 112.194 114.757 111.793 115.062 111.465C115.368 111.137 115.714 110.888 116.102 110.72C116.489 110.551 116.89 110.467 117.305 110.467C117.833 110.467 118.289 110.558 118.672 110.74C119.059 110.923 119.376 111.178 119.622 111.506C119.868 111.829 120.05 112.212 120.169 112.654C120.287 113.092 120.347 113.57 120.347 114.09V114.657H114.823V113.625H119.082V113.529C119.064 113.201 118.995 112.882 118.877 112.572C118.763 112.262 118.581 112.007 118.33 111.807C118.079 111.606 117.738 111.506 117.305 111.506C117.018 111.506 116.753 111.567 116.512 111.69C116.27 111.809 116.063 111.987 115.89 112.224C115.716 112.461 115.582 112.75 115.486 113.092C115.391 113.434 115.343 113.828 115.343 114.274V114.562C115.343 114.912 115.391 115.243 115.486 115.553C115.587 115.858 115.73 116.127 115.917 116.359C116.108 116.592 116.339 116.774 116.607 116.906C116.881 117.038 117.191 117.104 117.537 117.104C117.984 117.104 118.362 117.013 118.672 116.831C118.982 116.649 119.253 116.405 119.485 116.1L120.251 116.708C120.091 116.95 119.889 117.18 119.643 117.398C119.396 117.617 119.093 117.795 118.733 117.932C118.378 118.068 117.956 118.137 117.469 118.137ZM123.088 111.766V118H121.823V110.604H123.054L123.088 111.766ZM125.398 110.562L125.392 111.738C125.287 111.715 125.187 111.702 125.091 111.697C125 111.688 124.895 111.684 124.776 111.684C124.485 111.684 124.227 111.729 124.004 111.82C123.781 111.911 123.591 112.039 123.437 112.203C123.282 112.367 123.159 112.563 123.067 112.791C122.981 113.014 122.924 113.26 122.896 113.529L122.541 113.734C122.541 113.288 122.584 112.868 122.671 112.477C122.762 112.085 122.901 111.738 123.088 111.438C123.275 111.132 123.512 110.895 123.799 110.727C124.09 110.553 124.437 110.467 124.838 110.467C124.929 110.467 125.034 110.478 125.152 110.501C125.271 110.519 125.353 110.54 125.398 110.562ZM129.5 118.137C128.985 118.137 128.518 118.05 128.099 117.877C127.684 117.699 127.326 117.451 127.025 117.132C126.729 116.813 126.501 116.435 126.342 115.997C126.182 115.56 126.103 115.081 126.103 114.562V114.274C126.103 113.673 126.191 113.137 126.369 112.668C126.547 112.194 126.788 111.793 127.094 111.465C127.399 111.137 127.745 110.888 128.133 110.72C128.52 110.551 128.921 110.467 129.336 110.467C129.865 110.467 130.32 110.558 130.703 110.74C131.09 110.923 131.407 111.178 131.653 111.506C131.899 111.829 132.082 112.212 132.2 112.654C132.319 113.092 132.378 113.57 132.378 114.09V114.657H126.854V113.625H131.113V113.529C131.095 113.201 131.027 112.882 130.908 112.572C130.794 112.262 130.612 112.007 130.361 111.807C130.111 111.606 129.769 111.506 129.336 111.506C129.049 111.506 128.785 111.567 128.543 111.69C128.301 111.809 128.094 111.987 127.921 112.224C127.748 112.461 127.613 112.75 127.518 113.092C127.422 113.434 127.374 113.828 127.374 114.274V114.562C127.374 114.912 127.422 115.243 127.518 115.553C127.618 115.858 127.761 116.127 127.948 116.359C128.14 116.592 128.37 116.774 128.639 116.906C128.912 117.038 129.222 117.104 129.568 117.104C130.015 117.104 130.393 117.013 130.703 116.831C131.013 116.649 131.284 116.405 131.517 116.1L132.282 116.708C132.123 116.95 131.92 117.18 131.674 117.398C131.428 117.617 131.125 117.795 130.765 117.932C130.409 118.068 129.988 118.137 129.5 118.137Z" fill="#141414"/>
<defs>
<clipPath id="clip0_320_28939">
<rect width="81.7204" height="76" fill="white" transform="translate(25.6398)"/>
</clipPath>
</defs>
</svg>
