<svg width="16" height="16" viewBox="0 0 16 16" fill="none" xmlns="http://www.w3.org/2000/svg">
<g clip-path="url(#clip0_1381_20963)">
<path d="M15.1003 14.1193L10.4628 9.48178C11.1824 8.55142 11.5717 7.41392 11.5717 6.21749C11.5717 4.78535 11.0128 3.44249 10.0021 2.42999C8.99135 1.41749 7.64492 0.860352 6.21456 0.860352C4.78421 0.860352 3.43778 1.41928 2.42706 2.42999C1.41456 3.44071 0.857422 4.78535 0.857422 6.21749C0.857422 7.64785 1.41635 8.99428 2.42706 10.005C3.43778 11.0175 4.78242 11.5746 6.21456 11.5746C7.41099 11.5746 8.54671 11.1854 9.47707 10.4675L14.1146 15.1032C14.1282 15.1168 14.1443 15.1276 14.1621 15.135C14.1799 15.1423 14.1989 15.1461 14.2181 15.1461C14.2374 15.1461 14.2564 15.1423 14.2742 15.135C14.292 15.1276 14.3081 15.1168 14.3217 15.1032L15.1003 14.3264C15.1139 14.3128 15.1247 14.2967 15.132 14.2789C15.1394 14.2611 15.1432 14.2421 15.1432 14.2229C15.1432 14.2036 15.1394 14.1846 15.132 14.1668C15.1247 14.149 15.1139 14.1329 15.1003 14.1193ZM9.04314 9.04607C8.28599 9.80142 7.28242 10.2175 6.21456 10.2175C5.14671 10.2175 4.14314 9.80142 3.38599 9.04607C2.63064 8.28892 2.21456 7.28535 2.21456 6.21749C2.21456 5.14964 2.63064 4.14428 3.38599 3.38892C4.14314 2.63357 5.14671 2.21749 6.21456 2.21749C7.28242 2.21749 8.28778 2.63178 9.04314 3.38892C9.79849 4.14607 10.2146 5.14964 10.2146 6.21749C10.2146 7.28535 9.79849 8.29071 9.04314 9.04607Z" fill="#8C8C8C"/>
</g>
<defs>
<clipPath id="clip0_1381_20963">
<rect width="16" height="16" fill="white" transform="translate(0 0.000976562)"/>
</clipPath>
</defs>
</svg>
