<svg width="22" height="22" viewBox="0 0 22 22" fill="none" xmlns="http://www.w3.org/2000/svg">
<path d="M14.0149 13.4538C13.8804 13.4098 13.03 13.0265 13.5614 11.4112H13.5538C14.9389 9.98457 15.9975 7.68896 15.9975 5.42888C15.9975 1.95373 13.6866 0.131958 11.0009 0.131958C8.31354 0.131958 6.01539 1.95288 6.01539 5.42888C6.01539 7.69827 7.068 10.0032 8.46162 11.4264C9.00485 12.8513 8.03347 13.3802 7.83039 13.4538C5.01777 14.4717 1.71777 16.3256 1.71777 18.1559V18.8421C1.71777 21.3357 6.5527 21.9026 11.0272 21.9026C15.5084 21.9026 20.2824 21.3357 20.2824 18.8421V18.1559C20.2824 16.2707 16.9663 14.4311 14.0149 13.4538ZM9.34754 20.823C9.34754 18.6661 10.7208 15.7545 10.7208 15.7545L9.77062 15.009C9.77062 14.2966 11.0001 13.5511 11.0001 13.5511C11.0001 13.5511 12.2262 14.3084 12.2262 15.009L11.2793 15.7545C11.2793 15.7545 12.6526 18.6551 12.6526 20.8466C12.6526 21.1902 9.34754 21.1106 9.34754 20.823Z" fill="#141414"/>
</svg>
