<svg width="105" height="100" viewBox="0 0 105 100" fill="none" xmlns="http://www.w3.org/2000/svg">
<path d="M44.6033 99.4921C69.237 99.4921 89.2066 95.7608 89.2066 91.1579C89.2066 86.5551 69.237 82.8237 44.6033 82.8237C19.9696 82.8237 0 86.5551 0 91.1579C0 95.7608 19.9696 99.4921 44.6033 99.4921Z" fill="#F5F5F7" fill-opacity="0.8"/>
<path fill-rule="evenodd" clip-rule="evenodd" d="M80.2854 66.6738L64.5452 47.3021C63.79 46.3902 62.686 45.8383 61.5235 45.8383H27.6814C26.5196 45.8383 25.4156 46.3902 24.6604 47.3021L8.9209 66.6738V76.7942H80.286V66.6738H80.2854Z" fill="#AEB8C2"/>
<path fill-rule="evenodd" clip-rule="evenodd" d="M22.2566 20.8356H66.9493C67.6473 20.8356 68.3166 21.1128 68.8102 21.6063C69.3037 22.0999 69.5809 22.7692 69.5809 23.4671V84.8777C69.5809 85.5756 69.3037 86.2449 68.8102 86.7385C68.3166 87.232 67.6473 87.5092 66.9493 87.5092H22.2566C21.5586 87.5092 20.8893 87.232 20.3958 86.7385C19.9023 86.2449 19.625 85.5756 19.625 84.8777V23.4671C19.625 22.7692 19.9023 22.0999 20.3958 21.6063C20.8893 21.1128 21.5586 20.8356 22.2566 20.8356V20.8356Z" fill="#F5F5F7"/>
<path fill-rule="evenodd" clip-rule="evenodd" d="M28.0772 27.3835H61.1278C61.4768 27.3835 61.8115 27.5222 62.0582 27.7689C62.305 28.0157 62.4436 28.3504 62.4436 28.6993V45.1184C62.4436 45.4674 62.305 45.8021 62.0582 46.0488C61.8115 46.2956 61.4768 46.4342 61.1278 46.4342H28.0772C27.7282 46.4342 27.3935 46.2956 27.1468 46.0488C26.9 45.8021 26.7614 45.4674 26.7614 45.1184V28.6993C26.7614 28.3504 26.9 28.0157 27.1468 27.7689C27.3935 27.5222 27.7282 27.3835 28.0772 27.3835ZM28.2495 53.577H60.9555C61.3501 53.577 61.7287 53.7338 62.0077 54.0128C62.2868 54.2919 62.4436 54.6704 62.4436 55.0651C62.4436 55.4598 62.2868 55.8383 62.0077 56.1174C61.7287 56.3965 61.3501 56.5533 60.9555 56.5533H28.2495C27.8548 56.5533 27.4763 56.3965 27.1972 56.1174C26.9182 55.8383 26.7614 55.4598 26.7614 55.0651C26.7614 54.6704 26.9182 54.2919 27.1972 54.0128C27.4763 53.7338 27.8548 53.577 28.2495 53.577ZM28.2495 61.3158H60.9555C61.3502 61.3158 61.7288 61.4726 62.008 61.7518C62.2871 62.0309 62.4439 62.4095 62.4439 62.8043C62.4439 63.199 62.2871 63.5776 62.008 63.8568C61.7288 64.1359 61.3502 64.2928 60.9555 64.2928H28.2495C27.8548 64.2928 27.4762 64.1359 27.197 63.8568C26.9179 63.5776 26.761 63.199 26.761 62.8043C26.761 62.4095 26.9179 62.0309 27.197 61.7518C27.4762 61.4726 27.8548 61.3158 28.2495 61.3158ZM80.1397 89.9355C79.6298 91.9559 77.839 93.4618 75.7087 93.4618H13.4962C11.366 93.4618 9.57519 91.9553 9.06597 89.9355C8.96886 89.5505 8.9198 89.1549 8.91992 88.7579V66.6743H26.2344C28.1469 66.6743 29.6883 68.2849 29.6883 70.2401V70.2664C29.6883 72.221 31.2476 73.7993 33.1601 73.7993H56.0449C57.9574 73.7993 59.5166 72.2066 59.5166 70.2513V70.2434C59.5166 68.2881 61.0581 66.6737 62.9706 66.6737H80.2851V88.7585C80.2851 89.1645 80.2344 89.5585 80.1397 89.9355Z" fill="#DCE0E6"/>
<path fill-rule="evenodd" clip-rule="evenodd" d="M82.3162 21.9026L77.8227 23.6461C77.7073 23.6909 77.5815 23.7023 77.4599 23.6789C77.3383 23.6555 77.2258 23.5982 77.1352 23.5137C77.0447 23.4292 76.9799 23.3208 76.9483 23.2011C76.9166 23.0813 76.9194 22.9551 76.9563 22.8368L78.2306 18.7533C76.5273 16.8164 75.5273 14.4546 75.5273 11.9059C75.5273 5.33026 82.1839 0 90.3958 0C98.6056 0 105.263 5.33026 105.263 11.9059C105.263 18.4816 98.6063 23.8118 90.3951 23.8118C87.4162 23.8118 84.6425 23.1105 82.3162 21.9026Z" fill="#DCE0E6"/>
<path d="M96.2523 14.0559C97.2874 14.0559 98.1266 13.2267 98.1266 12.2039C98.1266 11.1811 97.2874 10.3519 96.2523 10.3519C95.2171 10.3519 94.3779 11.1811 94.3779 12.2039C94.3779 13.2267 95.2171 14.0559 96.2523 14.0559Z" fill="white"/>
<path fill-rule="evenodd" clip-rule="evenodd" d="M86.4127 13.8243H82.6641L84.5706 10.5835L86.4127 13.8243ZM88.7555 10.5835H92.0351V13.8243H88.7555V10.5835Z" fill="white"/>
</svg>
