<svg width="40" height="40" viewBox="0 0 40 40" fill="none" xmlns="http://www.w3.org/2000/svg">
<path d="M19.9997 35C17.8946 33.2044 15.9433 31.2358 14.1663 29.115C11.4997 25.93 8.33301 21.1867 8.33301 16.6667C8.33185 14.3583 9.01552 12.1014 10.2975 10.1817C11.5795 8.262 13.4021 6.76575 15.5348 5.88232C17.6675 4.99889 20.0143 4.76797 22.2782 5.21881C24.5422 5.66965 26.6215 6.78196 28.253 8.41499C29.3393 9.49642 30.2003 10.7826 30.7862 12.1989C31.3721 13.6153 31.6712 15.1339 31.6663 16.6667C31.6663 21.1867 28.4997 25.93 25.833 29.115C24.056 31.2358 22.1048 33.2044 19.9997 35ZM19.9997 11.6667C18.6736 11.6667 17.4018 12.1934 16.4641 13.1311C15.5265 14.0688 14.9997 15.3406 14.9997 16.6667C14.9997 17.9927 15.5265 19.2645 16.4641 20.2022C17.4018 21.1399 18.6736 21.6667 19.9997 21.6667C21.3258 21.6667 22.5975 21.1399 23.5352 20.2022C24.4729 19.2645 24.9997 17.9927 24.9997 16.6667C24.9997 15.3406 24.4729 14.0688 23.5352 13.1311C22.5975 12.1934 21.3258 11.6667 19.9997 11.6667Z" fill="#141414"/>
</svg>
