<svg width="22" height="22" viewBox="0 0 22 22" fill="none" xmlns="http://www.w3.org/2000/svg">
<path fill-rule="evenodd" clip-rule="evenodd" d="M5.00005 3.20968V2H18V3.20968H12.4797C13.5695 4.10988 14.2677 5.41416 14.4226 6.83871H18V8.04839H14.4226C14.2773 9.37927 13.6577 10.6086 12.6825 11.5013C11.7072 12.394 10.4447 12.8874 9.13639 12.8871H7.18877L14.2477 19.0806L13.4796 20L5.20686 12.7419C5.11506 12.6616 5.04952 12.5543 5.01907 12.4347C4.98863 12.315 4.99475 12.1887 5.0366 12.0727C5.07845 11.9567 5.15402 11.8567 5.25314 11.786C5.35225 11.7153 5.47015 11.6774 5.59095 11.6774H9.13639C10.1312 11.6777 11.0928 11.3109 11.8449 10.6444C12.597 9.97788 13.0893 9.05623 13.2314 8.04839H5.00005V6.83871H13.2314C13.0893 5.83087 12.597 4.90921 11.8449 4.24269C11.0928 3.57616 10.1312 3.20942 9.13639 3.20968H5.00005Z" fill="#141414"/>
</svg>
