<svg width="95" height="94" viewBox="0 0 95 94" fill="none" xmlns="http://www.w3.org/2000/svg">
<g clip-path="url(#clip0_730_4142)">
<path d="M1.19922 14.8075C1.19922 6.55697 7.94702 -0.117581 16.2249 0.00157086C24.2434 0.116868 30.7633 6.69283 30.814 14.7118C30.8424 19.2027 28.871 23.2332 25.7385 25.9671C25.4079 26.2555 25.4556 26.782 25.8333 27.0055L28.6233 28.6563C29.0744 28.9233 28.8852 29.6147 28.361 29.6147L15.7264 29.6116C7.67787 29.4619 1.19922 22.8917 1.19922 14.8075Z" fill="#DCE0E6"/>
<path d="M28.6229 28.6564L25.8327 27.0055C25.4571 26.7834 25.4049 26.2576 25.7337 25.9708C28.902 23.2079 30.8837 19.1187 30.8119 14.5682C30.6876 6.69695 24.3169 0.235739 16.4479 0.00643063C15.332 -0.0260655 14.243 0.0651806 13.1934 0.26695C19.995 1.57083 25.1785 7.56609 25.2237 14.7117C25.2456 18.1723 24.0799 21.3595 22.1107 23.8907C20.9216 25.4191 21.308 27.6355 22.9747 28.6217L23.0331 28.6562C23.4792 28.9202 23.2982 29.5984 22.7872 29.6131L28.3604 29.6144C28.8846 29.6148 29.074 28.9232 28.6229 28.6564Z" fill="#CFD5DB"/>
<path d="M73.3489 53.748H39.7575C31.3677 53.748 26.7764 43.9705 32.1349 37.5146L32.4329 37.1555C34.7935 34.3115 36.0857 30.7316 36.0857 27.0355V20.5577C36.0858 9.20392 45.2898 0 56.6436 0C67.9974 0 77.2013 9.20392 77.2013 20.5577V27.2541C77.2013 30.989 78.5206 34.6037 80.9264 37.4606C86.3518 43.9033 81.7719 53.748 73.3489 53.748Z" fill="#AD9696"/>
<path d="M91.0063 70.3954V92.6029H22.0999V70.5625C22.0999 65.5724 25.0906 61.0688 29.6878 59.1337L40.8117 54.2979L44.557 52.6694C47.3991 51.4338 49.2368 48.6304 49.2368 45.5313V44.0938H63.8674V45.4579C63.8674 48.5698 65.7236 51.3843 68.5858 52.6107L83.6313 59.0603C88.1147 61.0468 91.0063 65.4898 91.0063 70.3954Z" fill="white"/>
<path d="M40.8108 59.5929C44.6074 60.7273 50.1954 61.9372 57.0069 61.818C63.398 61.7064 68.6444 60.4636 72.295 59.2976L74.1089 54.9782L68.5853 52.6108C65.7238 51.3842 63.8684 48.5706 63.8684 45.4572V44.0942H49.2378V45.5314C49.2378 48.6301 47.3996 51.4334 44.5582 52.669L40.0844 54.6142L40.8108 59.5929Z" fill="#FFCEBF"/>
<path d="M83.6305 59.0594L72.2969 54.2017L72.2949 54.2018V92.6025H91.0064V70.3955C91.0064 65.4905 88.115 61.0466 83.6305 59.0594Z" fill="#769676"/>
<path d="M40.8117 54.2979V92.6028H22.0999V70.5624C22.0999 65.5723 25.0906 61.0688 29.6878 59.1337L40.8117 54.2979Z" fill="#769676"/>
<path d="M61.6243 52.1244C63.3075 52.1244 64.9114 51.7864 66.3733 51.1766C64.8051 49.7289 63.868 47.669 63.868 45.4572V44.0942H49.2374V45.5312C49.2374 46.6506 48.9963 47.731 48.5559 48.7133C50.7713 50.8252 53.7685 52.1243 57.0708 52.1243H61.6243V52.1244Z" fill="#FFB09E"/>
<path d="M71.1753 22.0851V34.1885C71.1753 41.0072 65.6476 46.5346 58.8291 46.5346H54.2758C47.4571 46.5346 41.9297 41.007 41.9297 34.1885V22.0851C41.9297 17.6493 45.5256 14.0532 49.9615 14.0532H63.1436C67.5794 14.0534 71.1753 17.6493 71.1753 22.0851Z" fill="#FFCEBF"/>
<path d="M71.1755 28.3823C71.17 28.399 71.1632 28.4152 71.1583 28.4323C70.712 29.9735 69.5406 32.885 66.71 35.0677C65.392 36.0843 63.8885 36.8186 62.2417 37.2508C61.4952 37.4467 61.0487 38.2106 61.2446 38.9571C61.4095 39.5848 61.9755 40.0003 62.5955 40.0003C62.7128 40.0003 62.8321 39.9855 62.9511 39.9542C64.9618 39.4266 66.8007 38.5272 68.4169 37.2811C69.5329 36.4204 70.4362 35.4698 71.1675 34.514C71.1702 34.4057 71.1757 34.2979 71.1757 34.1888V28.3823H71.1755Z" fill="#7A6D79"/>
<path d="M60.7094 41.1138H57.4346C55.944 41.1138 54.7356 39.9054 54.7356 38.4148C54.7356 36.9242 55.944 35.7158 57.4346 35.7158H60.7094C62.2 35.7158 63.4084 36.9242 63.4084 38.4148C63.4082 39.9056 62.2 41.1138 60.7094 41.1138Z" fill="#685E68"/>
<path d="M59.4704 10.8495C59.784 6.89493 63.5701 4.27046 67.1937 2.91113C73.1878 6.50278 77.2008 13.0609 77.2008 20.5572V21.9706C76.8694 22.0401 76.5397 22.1011 76.2136 22.1497C74.2174 22.4479 72.5175 22.3188 71.3561 22.1497C63.8723 21.1528 59.0917 15.6257 59.4704 10.8495Z" fill="#957979"/>
<path d="M56.6427 0C61.2855 0 65.5683 1.53962 69.0098 4.13545C67.293 7.1227 63.3509 13.0289 55.9589 17.4014C50.4712 20.6475 45.2968 21.7382 42.1104 22.15H36.0852V20.5575C36.085 9.20392 45.2889 0 56.6427 0V0Z" fill="#AD9696"/>
<path d="M79.6236 92.6024H34.8903L32.423 69.3273C32.248 67.6764 33.5422 66.2378 35.2022 66.2378H79.3119C80.972 66.2378 82.2661 67.6764 82.0912 69.3273L79.6236 92.6024Z" fill="#EFEDEF"/>
<path d="M79.3114 66.2378H73.7217C75.3817 66.2378 76.6759 67.6764 76.5009 69.3273L74.0336 92.6026H79.6233L82.0906 69.3273C82.2658 67.6764 80.9716 66.2378 79.3114 66.2378Z" fill="#E5E1E5"/>
<path d="M93.123 94H1.87695C1.11632 94 0.5 93.3835 0.5 92.623C0.5 91.8626 1.11632 91.2461 1.87695 91.2461H93.123C93.8837 91.2461 94.5 91.8626 94.5 92.623C94.5 93.3835 93.8837 94 93.123 94Z" fill="#AEB8C2"/>
<path d="M57.2565 83.3333C59.4175 83.3333 61.1692 81.5815 61.1692 79.4206C61.1692 77.2596 59.4175 75.5078 57.2565 75.5078C55.0956 75.5078 53.3438 77.2596 53.3438 79.4206C53.3438 81.5815 55.0956 83.3333 57.2565 83.3333Z" fill="#AEB8C2"/>
<path d="M10.4166 16.2048C11.1883 16.2048 11.814 15.5792 11.814 14.8075C11.814 14.0358 11.1883 13.4102 10.4166 13.4102C9.64489 13.4102 9.01929 14.0358 9.01929 14.8075C9.01929 15.5792 9.64489 16.2048 10.4166 16.2048Z" fill="white"/>
<path d="M16.0063 16.2048C16.7781 16.2048 17.4037 15.5792 17.4037 14.8075C17.4037 14.0358 16.7781 13.4102 16.0063 13.4102C15.2346 13.4102 14.609 14.0358 14.609 14.8075C14.609 15.5792 15.2346 16.2048 16.0063 16.2048Z" fill="white"/>
<path d="M21.5963 16.2048C22.368 16.2048 22.9936 15.5792 22.9936 14.8075C22.9936 14.0358 22.368 13.4102 21.5963 13.4102C20.8246 13.4102 20.199 14.0358 20.199 14.8075C20.199 15.5792 20.8246 16.2048 21.5963 16.2048Z" fill="white"/>
</g>
<defs>
<clipPath id="clip0_730_4142">
<rect width="94" height="94" fill="white" transform="translate(0.5)"/>
</clipPath>
</defs>
</svg>
