<svg width="14" height="14" viewBox="0 0 15 14" fill="none" xmlns="http://www.w3.org/2000/svg">
<path d="M8.21838 1.62392H7.28088C7.19755 1.62392 7.15588 1.66558 7.15588 1.74892V6.65517H2.5C2.41667 6.65517 2.375 6.69683 2.375 6.78017V7.71767C2.375 7.801 2.41667 7.84267 2.5 7.84267H7.15588V12.7489C7.15588 12.8323 7.19755 12.8739 7.28088 12.8739H8.21838C8.30172 12.8739 8.34338 12.8323 8.34338 12.7489V7.84267H13C13.0833 7.84267 13.125 7.801 13.125 7.71767V6.78017C13.125 6.69683 13.0833 6.65517 13 6.65517H8.34338V1.74892C8.34338 1.66558 8.30172 1.62392 8.21838 1.62392Z" fill="white"/>
</svg>
