<svg width="24" height="24" viewBox="0 0 24 24" fill="none" xmlns="http://www.w3.org/2000/svg">
<path d="M0 4C0 1.79086 1.79086 0 4 0H20C22.2091 0 24 1.79086 24 4V20C24 22.2091 22.2091 24 20 24H4C1.79086 24 0 22.2091 0 20V4Z" fill="white"/>
<path d="M9.625 6.87354H9.5C9.56875 6.87354 9.625 6.81729 9.625 6.74854V6.87354H14.375V6.74854C14.375 6.81729 14.4313 6.87354 14.5 6.87354H14.375V7.99854H15.5V6.74854C15.5 6.19697 15.0516 5.74854 14.5 5.74854H9.5C8.94844 5.74854 8.5 6.19697 8.5 6.74854V7.99854H9.625V6.87354ZM17.5 7.99854H6.5C6.22344 7.99854 6 8.22197 6 8.49854V8.99854C6 9.06729 6.05625 9.12354 6.125 9.12354H7.06875L7.45469 17.2954C7.47969 17.8282 7.92031 18.2485 8.45313 18.2485H15.5469C16.0813 18.2485 16.5203 17.8298 16.5453 17.2954L16.9313 9.12354H17.875C17.9438 9.12354 18 9.06729 18 8.99854V8.49854C18 8.22197 17.7766 7.99854 17.5 7.99854ZM15.4266 17.1235H8.57344L8.19531 9.12354H15.8047L15.4266 17.1235Z" fill="#FF4D4F"/>
<path d="M4 1H20V-1H4V1ZM23 4V20H25V4H23ZM20 23H4V25H20V23ZM1 20V4H-1V20H1ZM4 23C2.34315 23 1 21.6569 1 20H-1C-1 22.7614 1.23858 25 4 25V23ZM23 20C23 21.6569 21.6569 23 20 23V25C22.7614 25 25 22.7614 25 20H23ZM20 1C21.6569 1 23 2.34315 23 4H25C25 1.23858 22.7614 -1 20 -1V1ZM4 -1C1.23858 -1 -1 1.23858 -1 4H1C1 2.34315 2.34315 1 4 1V-1Z" fill="#FF4D4F"/>
</svg>
