<svg width="14" height="18" viewBox="0 0 14 18" fill="none" xmlns="http://www.w3.org/2000/svg">
<path d="M12.7273 7.07143C12.7273 5.53696 12.1239 4.06534 11.0498 2.98031C9.97572 1.89528 8.51897 1.28571 7 1.28571C5.48103 1.28571 4.02428 1.89528 2.95021 2.98031C1.87613 4.06534 1.27273 5.53696 1.27273 7.07143C1.27273 9.44486 3.15255 12.5383 7 16.2437C10.8475 12.5383 12.7273 9.44486 12.7273 7.07143ZM7 18C2.33291 13.7147 0 10.071 0 7.07143C0 5.19597 0.737498 3.39732 2.05025 2.07117C3.36301 0.745024 5.14348 0 7 0C8.85651 0 10.637 0.745024 11.9497 2.07117C13.2625 3.39732 14 5.19597 14 7.07143C14 10.071 11.6671 13.7147 7 18Z" fill="white"/>
<path d="M6.99993 8.99997C7.50626 8.99997 7.99184 8.79679 8.34986 8.43511C8.70789 8.07343 8.90902 7.58289 8.90902 7.0714C8.90902 6.55991 8.70789 6.06937 8.34986 5.7077C7.99184 5.34602 7.50626 5.14283 6.99993 5.14283C6.49361 5.14283 6.00803 5.34602 5.65 5.7077C5.29198 6.06937 5.09084 6.55991 5.09084 7.0714C5.09084 7.58289 5.29198 8.07343 5.65 8.43511C6.00803 8.79679 6.49361 8.99997 6.99993 8.99997ZM6.99993 10.2857C6.15606 10.2857 5.34675 9.94704 4.75005 9.34425C4.15334 8.74145 3.81812 7.92388 3.81812 7.0714C3.81812 6.21892 4.15334 5.40135 4.75005 4.79856C5.34675 4.19576 6.15606 3.85712 6.99993 3.85712C7.8438 3.85712 8.65311 4.19576 9.24982 4.79856C9.84653 5.40135 10.1818 6.21892 10.1818 7.0714C10.1818 7.92388 9.84653 8.74145 9.24982 9.34425C8.65311 9.94704 7.8438 10.2857 6.99993 10.2857Z" fill="white"/>
</svg>
