<svg width="16" height="14" viewBox="0 0 16 14" fill="none" xmlns="http://www.w3.org/2000/svg">
<path d="M15.4286 0.71106H0.571429C0.255357 0.71106 0 0.966417 0 1.28249V12.7111C0 13.0271 0.255357 13.2825 0.571429 13.2825H15.4286C15.7446 13.2825 16 13.0271 16 12.7111V1.28249C16 0.966417 15.7446 0.71106 15.4286 0.71106ZM14.7143 2.68963V11.9968H1.28571V2.68963L0.792857 2.3057L1.49464 1.40392L2.25893 1.99856H13.7429L14.5071 1.40392L15.2089 2.3057L14.7143 2.68963ZM13.7429 1.99677L8 6.46106L2.25714 1.99677L1.49286 1.40213L0.791072 2.30392L1.28393 2.68785L7.38393 7.4307C7.55936 7.56699 7.77518 7.64097 7.99732 7.64097C8.21947 7.64097 8.43529 7.56699 8.61071 7.4307L14.7143 2.68963L15.2071 2.3057L14.5054 1.40392L13.7429 1.99677Z" fill="#769676"/>
</svg>
