<svg width="14" height="16" viewBox="0 0 14 16" fill="none" xmlns="http://www.w3.org/2000/svg">
<path d="M12.7144 7.14497H11.5001V3.14497C11.5001 1.88247 10.4769 0.859253 9.21436 0.859253H4.78578C3.52328 0.859253 2.50007 1.88247 2.50007 3.14497V7.14497H1.28578C0.969713 7.14497 0.714355 7.40033 0.714355 7.7164V14.5735C0.714355 14.8896 0.969713 15.145 1.28578 15.145H12.7144C13.0304 15.145 13.2858 14.8896 13.2858 14.5735V7.7164C13.2858 7.40033 13.0304 7.14497 12.7144 7.14497ZM3.78578 3.14497C3.78578 2.59318 4.234 2.14497 4.78578 2.14497H9.21436C9.76614 2.14497 10.2144 2.59318 10.2144 3.14497V7.14497H3.78578V3.14497ZM12.0001 13.8593H2.00007V8.43068H12.0001V13.8593ZM6.50007 11.3771V12.3235C6.50007 12.4021 6.56436 12.4664 6.64293 12.4664H7.35721C7.43578 12.4664 7.50007 12.4021 7.50007 12.3235V11.3771C7.64748 11.2713 7.7575 11.1214 7.8143 10.9491C7.87111 10.7767 7.87176 10.5908 7.81618 10.4181C7.76059 10.2453 7.65162 10.0947 7.50497 9.98782C7.35831 9.88095 7.18153 9.82337 7.00007 9.82337C6.81861 9.82337 6.64183 9.88095 6.49517 9.98782C6.34852 10.0947 6.23955 10.2453 6.18397 10.4181C6.12838 10.5908 6.12903 10.7767 6.18584 10.9491C6.24264 11.1214 6.35267 11.2713 6.50007 11.3771Z" fill="#769676"/>
</svg>
